{
.appVersion = "3151";
.formatVersion = 3;
axes = (
{
name = Weight;
tag = wght;
},
{
name = Width;
tag = wdth;
},
{
name = Slant;
tag = slnt;
}
);
classes = (
{
code = "zero one two three four five six seven eight nine ";
name = Num;
},
{
code = "zero.canadian one.canadian two.canadian three.canadian four.canadian five.canadian six.canadian seven.canadian eight.canadian nine.canadian 
";
name = Num_can;
},
{

glyphs = (
{
glyphname = idotless;
lastChange = "2023-01-13 15:28:15 +0000";
layers = (
{
layerId = "9763B71A-4976-465B-BEF0-2F1E1DB14637";
shapes = (
{
closed = 1;
nodes = (
(227,549,l),
(62,549,l),
(62,0,l),
(227,0,l)
);
}
);
width = 289;
}
);
note = dotlessi;
unicode = 305;
},
{
glyphname = "acuteFinal-canadian";
lastChange = "2023-01-13 15:28:15 +0000";
layers = (
{
layerId = "9763B71A-4976-465B-BEF0-2F1E1DB14637";
shapes = (
{
closed = 1;
nodes = (
(154,357,l),
(328,714,l),
(201,714,l),
(27,357,l)
);
}
);
width = 355;
}
);
metricRight = "=|";
note = uni141F;
unicode = 5151;
},
{
glyphname = "graveFinal-canadian";
kernLeft = mwestleft;
kernRight = mwestright;
lastChange = "2023-01-13 15:28:15 +0000";
layers = (
{
layerId = "9763B71A-4976-465B-BEF0-2F1E1DB14637";
shapes = (
{
closed = 1;
nodes = (
(328,357,l),
(154,714,l),
(27,714,l),
(201,357,l)
);
}
);
width = 355;
}
);
metricLeft = "=|acuteFinal-canadian";
metricRight = "=|acuteFinal-canadian";
note = uni1420;
unicode = 5152;
},
{
glyphname = "ringBottomhalfFinal-canadian";
kernLeft = mwestleft;
kernRight = mwestright;
lastChange = "2023-01-13 15:30:28 +0000";
layers = (
{
layerId = "9763B71A-4976-465B-BEF0-2F1E1DB14637";
shapes = (
{
closed = 1;
nodes = (
(325,351,o),
(389,411,o),
(389,525,cs),
(389,714,l),
(276,714,l),
(276,525,ls),
(276,477,o),
(257,454,o),
(223,454,cs),
(187,454,o),
(168,477,o),
(168,525,cs),
(168,714,l),
(55,714,l),
(55,524,ls),
(55,413,o),
(119,351,o),
(222,351,cs)
);
}
);
width = 444;
}
);
metricLeft = "ai-canadian";
metricRight = "==|ai-canadian";
note = uni1421;
unicode = 5153;
},
{
glyphname = "ringTophalfFinal-canadian";
lastChange = "2023-01-13 15:30:28 +0000";
layers = (
{
layerId = "9763B71A-4976-465B-BEF0-2F1E1DB14637";
shapes = (
{
closed = 1;
nodes = (
(168,357,l),
(168,546,ls),
(168,594,o),
(187,617,o),
(223,617,cs),
(257,617,o),
(276,594,o),
(276,546,cs),
(276,357,l),
(389,357,l),
(389,546,ls),
(389,660,o),
(325,720,o),
(222,720,cs),
(119,720,o),
(55,658,o),
(55,547,cs),
(55,357,l)
);
}
);
width = 444;
}
);
metricLeft = "ai-canadian";
metricRight = "==|ai-canadian";
note = uni1422;
unicode = 5154;
},
{
glyphname = "ringRighthalfFinal-canadian";
kernLeft = mwestleft;
kernRight = mwestright;
lastChange = "2023-01-13 15:28:15 +0000";
layers = (
{
layerId = "9763B71A-4976-465B-BEF0-2F1E1DB14637";
shapes = (
{
closed = 1;
nodes = (
(142.992,357,ls),
(263,357,o),
(330,425,o),
(330,535,cs),
(330,645,o),
(263,714,o),
(143,714,cs),
(55,714,l),
(55,609,l),
(135,609,ls),
(188,609,o),
(216,583,o),
(216,535,cs),
(216,487,o),
(188,462,o),
(135,462,cs),
(55,462,l),
(55,357,l)
);
}
);
width = 378;
}
);
metricLeft = "=|t-canadian";
metricWidth = "t-canadian";
note = uni1423;
unicode = 5155;
},
{
glyphname = "ringFinal-canadian";
kernLeft = mwestleft;
kernRight = mwestright;
lastChange = "2023-01-13 15:28:15 +0000";
layers = (
{
layerId = "9763B71A-4976-465B-BEF0-2F1E1DB14637";
shapes = (
{
closed = 1;
nodes = (
(333,369,o),
(408,444,o),
(408,545,cs),
(408,645,o),
(332,720,o),
(228,720,cs),
(125,720,o),
(48,646,o),
(48,545,cs),
(48,444,o),
(123,369,o),
(228,369,cs)
);
},
{
closed = 1;
nodes = (
(182,465,o),
(154,500,o),
(154,545,cs),
(154,589,o),
(182,624,o),
(228,624,cs),
(273,624,o),
(303,589,o),
(303,545,cs),
(303,500,o),
(274,465,o),
(228,465,cs)
);
}
);
width = 456;
}
);
note = uni1424;
unicode = 5156;
},
{
glyphname = "doubleacuteFinal-canadian";
lastChange = "2023-01-13 15:28:15 +0000";
layers = (
{
layerId = "9763B71A-4976-465B-BEF0-2F1E1DB14637";
shapes = (
{
closed = 1;
nodes = (
(328,714,l),
(201,714,l),
(27,357,l),
(154,357,l)
);
},
{
closed = 1;
nodes = (
(516,714,l),
(389,714,l),
(215,357,l),
(342,357,l)
);
}
);
width = 543;
}
);
metricLeft = "acuteFinal-canadian";
metricRight = "=|";
note = uni1425;
unicode = 5157;
},
{
glyphname = "doubleshortverticalstrokesFinal-canadian";
kernLeft = mwestleft;
kernRight = mwestright;
lastChange = "2023-01-13 15:28:15 +0000";
layers = (
{
layerId = "9763B71A-4976-465B-BEF0-2F1E1DB14637";
shapes = (
{
closed = 1;
nodes = (
(168,714,l),
(55,714,l),
(55,357,l),
(168,357,l)
);
},
{
closed = 1;
nodes = (
(334,714,l),
(221,714,l),
(221,357,l),
(334,357,l)
);
}
);
width = 389;
}
);
metricLeft = "pWestCree-canadian";
metricRight = "pWestCree-canadian";
note = uni1426;
unicode = 5158;
},
{
glyphname = "middledotFinal-canadian";
lastChange = "2023-01-13 15:28:15 +0000";
layers = (
{
layerId = "9763B71A-4976-465B-BEF0-2F1E1DB14637";
shapes = (
{
closed = 1;
nodes = (
(166,288,o),
(201,323,o),
(201,367,cs),
(201,411,o),
(166,446,o),
(122,446,cs),
(79,446,o),
(44,411,o),
(44,367,cs),
(44,323,o),
(79,288,o),
(122,288,cs)
);
}
);
width = 245;
}
);
note = uni1427;
unicode = 5159;
},
{
glyphname = "shorthorizontalstrokeFinal-canadian";
kernLeft = mwestleft;
kernRight = mwestright;
lastChange = "2023-01-13 15:28:15 +0000";
layers = (
{
layerId = "9763B71A-4976-465B-BEF0-2F1E1DB14637";
shapes = (
{
closed = 1;
nodes = (
(391,488,l),
(391,603,l),
(55,603,l),
(55,488,l)
);
}
);
width = 446;
}
);
metricRight = "=|";
note = uni1428;
unicode = 5160;
},
{
glyphname = "plusFinal-canadian";
kernLeft = mwestleft;
kernRight = mwestright;
lastChange = "2023-01-13 15:28:15 +0000";
layers = (
{
layerId = "9763B71A-4976-465B-BEF0-2F1E1DB14637";
shapes = (
{
closed = 1;
nodes = (
(279,377,l),
(279,493,l),
(391,493,l),
(391,601,l),
(279,601,l),
(279,714,l),
(168,714,l),
(168,601,l),
(55,601,l),
(55,493,l),
(168,493,l),
(168,377,l)
);
}
);
width = 446;
}
);
metricLeft = "shorthorizontalstrokeFinal-canadian";
metricRight = "shorthorizontalstrokeFinal-canadian";
note = uni1429;
unicode = 5161;
},
{
glyphname = "downtackFinal-canadian";
kernLeft = mwestleft;
kernRight = mwestright;
lastChange = "2023-01-13 15:28:15 +0000";
layers = (
{
layerId = "9763B71A-4976-465B-BEF0-2F1E1DB14637";
shapes = (
{
closed = 1;
nodes = (
(280,357,l),
(280,607,l),
(391,607,l),
(391,714,l),
(55,714,l),
(55,607,l),
(167,607,l),
(167,357,l)
);
}
);
width = 446;
}
);
metricLeft = "shorthorizontalstrokeFinal-canadian";
metricRight = "shorthorizontalstrokeFinal-canadian";
note = uni142A;
unicode = 5162;
},
{
glyphname = "thFinalWoodScree-canadian";
lastChange = "2023-01-13 15:30:28 +0000";
layers = (
{
layerId = "9763B71A-4976-465B-BEF0-2F1E1DB14637";
shapes = (
{
closed = 1;
nodes = (
(281,357,l),
(281,414,l),
(391,414,l),
(391,506,l),
(281,506,l),
(281,565,l),
(391,565,l),
(391,657,l),
(281,657,l),
(281,714,l),
(168,714,l),
(168,657,l),
(55,657,l),
(55,565,l),
(168,565,l),
(168,506,l),
(55,506,l),
(55,414,l),
(168,414,l),
(168,357,l)
);
}
);
width = 446;
}
);
metricLeft = "hyphen-canadian";
metricRight = "hyphen-canadian";
note = uni167E;
unicode = 5758;
},
{
glyphname = "ringSmallFinal-canadian";
kernLeft = mwestleft;
kernRight = mwestright;
lastChange = "2023-01-13 15:28:15 +0000";
layers = (
{
layerId = "9763B71A-4976-465B-BEF0-2F1E1DB14637";
shapes = (
{
closed = 1;
nodes = (
(239,499,o),
(296,546,o),
(296,614,cs),
(296,681,o),
(239,729,o),
(174,729,cs),
(110,729,o),
(55,681,o),
(55,614,cs),
(55,546,o),
(110,499,o),
(174,499,cs)
);
},
{
closed = 1;
nodes = (
(147,567,o),
(130,588,o),
(130,614,cs),
(130,639,o),
(149,660,o),
(175,660,cs),
(202,660,o),
(221,639,o),
(221,614,cs),
(221,588,o),
(202,567,o),
(175,567,cs)
);
}
);
width = 351;
}
);
note = g725;
unicode = 6366;
},
{
glyphname = "raiseddotFinal-canadian";
kernLeft = mwestleft;
kernRight = mwestright;
lastChange = "2023-01-13 15:28:15 +0000";
layers = (
{
layerId = "9763B71A-4976-465B-BEF0-2F1E1DB14637";
shapes = (
{
closed = 1;
nodes = (
(166,571,o),
(201,606,o),
(201,650,cs),
(201,693,o),
(166,729,o),
(123,729,cs),
(79,729,o),
(44,693,o),
(44,650,cs),
(44,606,o),
(79,571,o),
(123,571,cs)
);
}
);
width = 245;
}
);
note = g725;
unicode = 6367;
},
{
glyphname = "plusFinal-canadian.base";
lastChange = "2023-01-13 15:28:15 +0000";
layers = (
{
layerId = "9763B71A-4976-465B-BEF0-2F1E1DB14637";
shapes = (
{
closed = 1;
nodes = (
(279,0,l),
(279,116,l),
(391,116,l),
(391,224,l),
(279,224,l),
(279,337,l),
(168,337,l),
(168,224,l),
(55,224,l),
(55,116,l),
(168,116,l),
(168,0,l)
);
}
);
width = 446;
}
);
metricLeft = "shorthorizontalstrokeFinal-canadian";
metricRight = "shorthorizontalstrokeFinal-canadian";
note = uni1429;
},
{
glyphname = "e-canadian";
kernLeft = ecanleft;
kernRight = ecanright;
lastChange = "2023-01-13 15:28:15 +0000";
layers = (
{
anchors = (
{
name = middle_center_can;
pos = (378,470);
},
{
name = top_center_can;
pos = (378,714);
},
{
name = top_left_can;
pos = (145,714);
},
{
name = top_right_can;
pos = (611,714);
}
);
layerId = "9763B71A-4976-465B-BEF0-2F1E1DB14637";
shapes = (
{
closed = 1;
nodes = (
(402,0,l),
(731,674,l),
(731,714,l),
(25,714,l),
(25,674,l),
(353,0,l)
);
},
{
closed = 1;
nodes = (
(407,209,l),
(216,614,l),
(192,581,l),
(562,581,l),
(545,614,l),
(354,209,l)
);
}
);
width = 756;
}
);
metricRight = "=|";
note = uni1401;
unicode = 5121;
},
{
glyphname = "i-canadian";
kernLeft = icanleft;
kernRight = icanright;
lastChange = "2023-01-13 15:28:15 +0000";
layers = (
{
anchors = (
{
name = middle_center_can;
pos = (378,275);
},
{
name = top_center_can;
pos = (378,714);
},
{
name = top_left_can;
pos = (145,714);
},
{
name = top_right_can;
pos = (610,714);
}
);
layerId = "9763B71A-4976-465B-BEF0-2F1E1DB14637";
shapes = (
{
closed = 1;
nodes = (
(731,0,l),
(731,40,l),
(402,714,l),
(353,714,l),
(25,40,l),
(25,0,l)
);
},
{
closed = 1;
nodes = (
(402,505,l),
(349,505,l),
(540,100,l),
(562,133,l),
(191,133,l),
(210,100,l)
);
}
);
width = 756;
}
);
metricLeft = "e-canadian";
metricWidth = "e-canadian";
note = uni1403;
unicode = 5123;
},
{
glyphname = "o-canadian";
kernLeft = ocanleft;
kernRight = ocanright;
lastChange = "2023-01-13 15:28:15 +0000";
layers = (
{
anchors = (
{
name = middle_center_can;
pos = (277,357);
},
{
name = top_center_can;
pos = (361,714);
},
{
name = top_double;
pos = (475,714);
},
{
name = top_left_can;
pos = (133,714);
},
{
name = top_right_can;
pos = (599,714);
}
);
layerId = "9763B71A-4976-465B-BEF0-2F1E1DB14637";
shapes = (
{
closed = 1;
nodes = (
(104,0,l),
(662,332,l),
(662,382,l),
(104,714,l),
(65,714,l),
(65,0,l)
);
},
{
closed = 1;
nodes = (
(205,532,l),
(165,524,l),
(481,336,l),
(481,381,l),
(165,194,l),
(205,184,l)
);
}
);
width = 690;
}
);
metricLeft = "nunavuth-canadian";
note = uni1405;
unicode = 5125;
},
{
glyphname = "eeCarrier-canadian";
lastChange = "2023-01-13 15:28:15 +0000";
layers = (
{
layerId = "9763B71A-4976-465B-BEF0-2F1E1DB14637";
shapes = (
{
closed = 1;
nodes = (
(104,0,l),
(662,332,l),
(662,382,l),
(104,714,l),
(65,714,l),
(65,0,l)
);
},
{
closed = 1;
nodes = (
(200,532,l),
(165,528,l),
(481,341,l),
(481,377,l),
(165,190,l),
(200,184,l)
);
},
{
closed = 1;
nodes = (
(301,420,l),
(248,420,l),
(248,294,l),
(301,294,l)
);
}
);
width = 690;
}
);
metricLeft = "nunavuth-canadian";
metricRight = "o-canadian";
note = uni1408;
unicode = 5128;
},
{
glyphname = "a-canadian";
kernLeft = acanleft;
kernRight = acanright;
lastChange = "2023-01-13 15:30:28 +0000";
layers = (
{
anchors = (
{
name = middle_center_can;
pos = (412,357);
},
{
name = top_center_can;
pos = (316,714);
},
{
name = top_left_can;
pos = (103,714);
},
{
name = top_right_can;
pos = (555,714);
}
);
layerId = "9763B71A-4976-465B-BEF0-2F1E1DB14637";
shapes = (
{
closed = 1;
nodes = (
(626,0,l),
(626,714,l),
(587,714,l),
(29,382,l),
(29,332,l),
(587,0,l)
);
},
{
closed = 1;
nodes = (
(525,193,l),
(210,380,l),
(210,335,l),
(525,522,l),
(486,532,l),
(486,184,l)
);
}
);
width = 691;
}
);
metricRight = "nunavuth-canadian";
note = uni140A;
unicode = 5130;
},
{
glyphname = "ai-canadian";
lastChange = "2023-01-13 15:28:15 +0000";
layers = (
{
layerId = "9763B71A-4976-465B-BEF0-2F1E1DB14637";
shapes = (
{
closed = 1;
nodes = (
(266,351,o),
(305,373,o),
(333,423,c),
(299,423,l),
(325,373,o),
(367,351,o),
(423,351,cs),
(518,351,o),
(576,411,o),
(576,516,cs),
(576,714,l),
(470,714,l),
(470,517,ls),
(470,469,o),
(453,448,o),
(419,448,cs),
(386,448,o),
(368,470,o),
(368,517,cs),
(368,714,l),
(263.004,714,l),
(263,517,ls),
(263,469,o),
(245,448,o),
(211,448,cs),
(178,448,o),
(161,471,o),
(161,517,cs),
(161,714,l),
(55,714,l),
(55,516,ls),
(55,409,o),
(115,351,o),
(209,351,cs)
);
}
);
width = 631;
}
);
metricRight = "=|";
note = uni141C;
unicode = 5148;
},
{
glyphname = "ycreew-canadian";
lastChange = "2023-01-13 15:28:15 +0000";
layers = (
{
layerId = "9763B71A-4976-465B-BEF0-2F1E1DB14637";
shapes = (
{
closed = 1;
nodes = (
(352,528,o),
(389,567,o),
(389,625,cs),
(389,682,o),
(351,720,o),
(300,720,cs),
(248,720,o),
(210,682,o),
(210,625,cs),
(210,567,o),
(247,528,o),
(300,528,cs)
);
},
{
closed = 1;
nodes = (
(191,351,o),
(229,390,o),
(229,448,cs),
(229,505,o),
(191,543,o),
(139,543,cs),
(88,543,o),
(50,505,o),
(50,448,cs),
(50,390,o),
(87,351,o),
(139,351,cs)
);
},
{
closed = 1;
nodes = (
(119,403,o),
(105,420,o),
(105,448,cs),
(105,475,o),
(119,491,o),
(139,491,cs),
(159,491,o),
(173,475,o),
(173,448,cs),
(173,420,o),
(159,403,o),
(139,403,cs)
);
},
{
closed = 1;
nodes = (
(279,580,o),
(266,597,o),
(266,625,cs),
(266,652,o),
(279,668,o),
(300,668,cs),
(320,668,o),
(333,652,o),
(333,625,cs),
(333,597,o),
(320,580,o),
(300,580,cs)
);
}
);
width = 439;
}
);
metricRight = "=|";
note = uni141D;
unicode = 5149;
},
{
glyphname = "glottalstop-canadian";
lastChange = "2023-01-13 15:28:15 +0000";
layers = (
{
layerId = "9763B71A-4976-465B-BEF0-2F1E1DB14637";
shapes = (
{
closed = 1;
nodes = (
(393.992,357,l),
(394,378,l),
(230,714,l),
(205,714,l),
(41,378,l),
(41,357,l)
);
},
{
closed = 1;
nodes = (
(241,606,l),
(193,606,l),
(286,407,l),
(307,439,l),
(129,439,l),
(147,407,l)
);
}
);
width = 435;
}
);
metricRight = "=|";
note = uni141E;
unicode = 5150;
},
{
glyphname = "pe-canadian";
kernLeft = ecanleft;
kernRight = ecanright;
lastChange = "2023-01-13 15:28:15 +0000";
layers = (
{
anchors = (
{
name = middle_center_can;
pos = (378,470);
},
{
name = top_center_can;
pos = (378,714);
},
{
name = top_left_can;
pos = (145,714);
},
{
name = top_right_can;
pos = (611,714);
}
);
layerId = "9763B71A-4976-465B-BEF0-2F1E1DB14637";
shapes = (
{
closed = 1;
nodes = (
(402,0,l),
(731,674,l),
(731,714,l),
(577,714,l),
(336,203,l),
(427,203,l),
(187,714,l),
(25,714,l),
(25,674,l),
(353,0,l)
);
}
);
width = 756;
}
);
metricLeft = "e-canadian";
metricRight = "e-canadian";
note = uni142F;
unicode = 5167;
},
{
glyphname = "pi-canadian";
kernLeft = icanleft;
kernRight = icanright;
lastChange = "2023-01-13 15:28:15 +0000";
layers = (
{
anchors = (
{
name = middle_center_can;
pos = (377,275);
},
{
name = top_center_can;
pos = (378,714);
},
{
name = top_left_can;
pos = (144,714);
},
{
name = top_right_can;
pos = (611,714);
}
);
layerId = "9763B71A-4976-465B-BEF0-2F1E1DB14637";
shapes = (
{
closed = 1;
nodes = (
(181,0,l),
(424,511,l),
(332,511,l),
(571,0,l),
(731,0,l),
(731,40,l),
(402,714,l),
(353,714,l),
(25,40,l),
(25,0,l)
);
}
);
width = 756;
}
);
metricLeft = "e-canadian";
metricRight = "e-canadian";
note = uni1431;
unicode = 5169;
},
{
glyphname = "po-canadian";
kernLeft = ocanleft;
kernRight = ocanright;
lastChange = "2023-01-13 15:30:28 +0000";
layers = (
{
anchors = (
{
name = middle_center_can;
pos = (176,357);
},
{
name = top_center_can;
pos = (339,714);
},
{
name = top_double;
pos = (459,714);
},
{
name = top_left_can;
pos = (114,714);
},
{
name = top_right_can;
pos = (576,714);
}
);
layerId = "9763B71A-4976-465B-BEF0-2F1E1DB14637";
shapes = (
{
closed = 1;
nodes = (
(82,0,l),
(639,332,l),
(639,382,l),
(82,714,l),
(43,714,l),
(43,558,l),
(445,321,l),
(445,395,l),
(43,158,l),
(43,0,l)
);
}
);
width = 667;
}
);
metricRight = "o-canadian";
note = uni1433;
unicode = 5171;
},
{
glyphname = "pa-canadian";
kernLeft = acanleft;
kernRight = acanright;
lastChange = "2023-01-13 15:28:15 +0000";
layers = (
{
anchors = (
{
name = middle_center_can;
pos = (413,357);
},
{
name = top_center_can;
pos = (330,714);
},
{
name = top_left_can;
pos = (103,714);
},
{
name = top_right_can;
pos = (553,714);
}
);
layerId = "9763B71A-4976-465B-BEF0-2F1E1DB14637";
shapes = (
{
closed = 1;
nodes = (
(625,0,l),
(625,156,l),
(223,393,l),
(223,319,l),
(625,556,l),
(625,714,l),
(585,714,l),
(29,382,l),
(29,332,l),
(585,0,l)
);
}
);
width = 668;
}
);
metricRight = "=|po-canadian";
note = uni1438;
unicode = 5176;
},
{
glyphname = "p-canadian";
kernLeft = mwestleft;
kernRight = mwestright;
lastChange = "2023-01-13 15:28:15 +0000";
layers = (
{
layerId = "9763B71A-4976-465B-BEF0-2F1E1DB14637";
shapes = (
{
closed = 1;
nodes = (
(351,357,l),
(351,461,l),
(153,579,l),
(153,492,l),
(351,609,l),
(351,714,l),
(331,714,l),
(55,549,l),
(55,523,l),
(331,357,l)
);
}
);
width = 406;
}
);
note = uni1449;
unicode = 5193;
},
{
glyphname = "pWestCree-canadian";
kernLeft = mwestleft;
kernRight = mwestright;
lastChange = "2023-01-13 15:28:15 +0000";
layers = (
{
layerId = "9763B71A-4976-465B-BEF0-2F1E1DB14637";
shapes = (
{
closed = 1;
nodes = (
(168,357,l),
(168,714,l),
(55,714,l),
(55,357,l)
);
}
);
width = 223;
}
);
metricRight = "=|";
note = uni144A;
unicode = 5194;
},
{
color = 6;
glyphname = "hCarrier-canadian";
lastChange = "2023-01-13 15:28:15 +0000";
layers = (
{
layerId = "9763B71A-4976-465B-BEF0-2F1E1DB14637";
shapes = (
{
closed = 1;
nodes = (
(168,189,l),
(168,297,ls),
(168,331,o),
(184,350,o),
(212,350,cs),
(237,350,o),
(250,332,o),
(250,297,cs),
(250,189,l),
(363,189,l),
(363,318,ls),
(363,413,o),
(300,452,o),
(238,452,cs),
(190,452,o),
(152,427,o),
(144,397,c),
(168,376,l),
(168,546,l),
(55,546,l),
(55,189,l)
);
}
);
width = 398;
}
);
metricLeft = "pWestCree-canadian";
note = uni144B;
unicode = 5195;
},
{
glyphname = "te-canadian";
lastChange = "2023-01-13 15:28:15 +0000";
layers = (
{
anchors = (
{
name = middle_center_can;
pos = (375,357);
},
{
name = top_center_can;
pos = (375,714);
},
{
name = top_left_can;
pos = (141,714);
},
{
name = top_right_can;
pos = (611,714);
}
);
layerId = "9763B71A-4976-465B-BEF0-2F1E1DB14637";
shapes = (
{
closed = 1;
nodes = (
(576,-15,o),
(693,108,o),
(693,320,cs),
(693,714,l),
(527,714,l),
(527,320,ls),
(527,195,o),
(475,135,o),
(375,135,cs),
(278,135,o),
(224,199,o),
(224,320,cs),
(224,714,l),
(58,714,l),
(58,319,ls),
(58,106,o),
(175,-15,o),
(376,-15,cs)
);
}
);
width = 751;
}
);
metricRight = "=|";
note = uni144C;
unicode = 5196;
},
{
glyphname = "ti-canadian";
lastChange = "2023-01-13 15:28:15 +0000";
layers = (
{
anchors = (
{
name = middle_center_can;
pos = (375,357);
},
{
name = middle_right_can;
pos = (844,357);
},
{
name = top_center_can;
pos = (375,714);
},
{
name = top_left_can;
pos = (141,714);
},
{
name = top_right_can;
pos = (611,714);
}
);
layerId = "9763B71A-4976-465B-BEF0-2F1E1DB14637";
shapes = (
{
closed = 1;
nodes = (
(224,0,l),
(224,394,ls),
(224,516,o),
(281,579,o),
(378,579,cs),
(474,579,o),
(527,515,o),
(527,394,cs),
(527,0,l),
(693,0,l),
(693,395,ls),
(693,607,o),
(577,729,o),
(381,729,cs),
(181,729,o),
(58,607,o),
(58,395,cs),
(58,0,l)
);
}
);
width = 751;
}
);
metricLeft = "te-canadian";
metricRight = "te-canadian";
note = uni144E;
unicode = 5198;
},
{
glyphname = "to-canadian";
kernLeft = toleft;
lastChange = "2023-01-13 15:28:15 +0000";
layers = (
{
anchors = (
{
name = middle_center_can;
pos = (236,357);
},
{
name = middle_right_can;
pos = (738,357);
},
{
name = top_center_can;
pos = (291,714);
},
{
name = top_double;
pos = (387,714);
},
{
name = top_left_can;
pos = (121,714);
},
{
name = top_right_can;
pos = (516,714);
}
);
layerId = "9763B71A-4976-465B-BEF0-2F1E1DB14637";
shapes = (
{
closed = 1;
nodes = (
(225,0,ls),
(454,0,o),
(587,129,o),
(587,358,cs),
(587,587,o),
(454,714,o),
(225,714,cs),
(49,714,l),
(49,565,l),
(217,565,ls),
(345,565,o),
(421,499,o),
(421,358,cs),
(421,217,o),
(345,149,o),
(218,149,cs),
(49,149,l),
(49,0,l)
);
}
);
width = 639;
}
);
note = uni1450;
unicode = 5200;
},
{
glyphname = "ta-canadian";
kernRight = taright;
lastChange = "2023-01-13 15:28:15 +0000";
layers = (
{
anchors = (
{
name = middle_center_can;
pos = (404,357);
},
{
name = top_center_can;
pos = (349,714);
},
{
name = top_left_can;
pos = (124,714);
},
{
name = top_right_can;
pos = (519,714);
}
);
layerId = "9763B71A-4976-465B-BEF0-2F1E1DB14637";
shapes = (
{
closed = 1;
nodes = (
(590,0,l),
(590,149,l),
(422,149,ls),
(294,149,o),
(219,216,o),
(219,357,cs),
(219,498,o),
(294,565,o),
(422,565,cs),
(590,565,l),
(590,714,l),
(415,714,ls),
(186,714,o),
(52,586,o),
(52,357,cs),
(52,128,o),
(186,0,o),
(414,0,cs)
);
}
);
width = 639;
}
);
metricLeft = "=|to-canadian";
metricRight = "=|to-canadian";
note = uni1455;
unicode = 5205;
},
{
glyphname = "t-canadian";
kernLeft = mwestleft;
kernRight = mwestright;
lastChange = "2023-01-13 15:28:15 +0000";
layers = (
{
layerId = "9763B71A-4976-465B-BEF0-2F1E1DB14637";
shapes = (
{
closed = 1;
nodes = (
(323,357,l),
(323,462,l),
(243,462,ls),
(190,462,o),
(162,487,o),
(162,535,cs),
(162,582,o),
(190,609,o),
(243,609,cs),
(323,609,l),
(323,714,l),
(235,714,ls),
(115,714,o),
(48,645,o),
(48,535,cs),
(48,425,o),
(115,357,o),
(235,357,cs)
);
}
);
width = 378;
}
);
note = uni1466;
unicode = 5222;
},
{
glyphname = "ke-canadian";
lastChange = "2023-01-13 15:30:28 +0000";
layers = (
{
anchors = (
{
name = middle_center_can;
pos = (304,457);
},
{
name = top_center_can;
pos = (300,714);
},
{
name = top_left_can;
pos = (125,714);
},
{
name = top_right_can;
pos = (474,714);
}
);
layerId = "9763B71A-4976-465B-BEF0-2F1E1DB14637";
shapes = (
{
closed = 1;
nodes = (
(557,0,l),
(557,450,ls),
(557,623,o),
(462,729,o),
(304,729,cs),
(146,729,o),
(43,622,o),
(43,455,cs),
(43,296,o),
(139,190,o),
(276,190,cs),
(343,190,o),
(393,222,o),
(404,256,c),
(391,269,l),
(391,0,l)
);
},
{
closed = 1;
nodes = (
(244,330,o),
(206,373,o),
(206,459,cs),
(206,546,o),
(241,589,o),
(300,589,cs),
(358,589,o),
(394,546,o),
(394,459,cs),
(394,373,o),
(355,330,o),
(300,330,cs)
);
}
);
width = 615;
}
);
metricRight = "te-canadian";
note = uni146B;
unicode = 5227;
},
{
glyphname = "ki-canadian";
lastChange = "2023-01-13 15:28:15 +0000";
layers = (
{
anchors = (
{
name = middle_center_can;
pos = (319,457);
},
{
name = top_center_can;
pos = (315,714);
},
{
name = top_left_can;
pos = (140,714);
},
{
name = top_right_can;
pos = (490,714);
}
);
layerId = "9763B71A-4976-465B-BEF0-2F1E1DB14637";
shapes = (
{
closed = 1;
nodes = (
(224,0,l),
(224,269,l),
(210,256,l),
(221,222,o),
(271,190,o),
(338,190,cs),
(475,190,o),
(571,297,o),
(571,458,cs),
(571,624,o),
(469,729,o),
(317,729,cs),
(156,729,o),
(58,620,o),
(58,450,cs),
(58,0,l)
);
},
{
closed = 1;
nodes = (
(259,330,o),
(220,373,o),
(220,459,cs),
(220,546,o),
(256,589,o),
(315,589,cs),
(373,589,o),
(409,546,o),
(409,459,cs),
(409,373,o),
(370,330,o),
(315,330,cs)
);
}
);
width = 614;
}
);
metricLeft = "te-canadian";
metricRight = "=|ke-canadian";
note = uni146D;
unicode = 5229;
},
{
glyphname = "ko-canadian";
lastChange = "2023-01-13 15:30:28 +0000";
layers = (
{
anchors = (
{
name = middle_center_can;
pos = (304,287);
},
{
name = top_center_can;
pos = (300,714);
},
{
name = top_double;
pos = (474,714);
},
{
name = top_left_can;
pos = (125,714);
},
{
name = top_right_can;
pos = (474,714);
}
);
layerId = "9763B71A-4976-465B-BEF0-2F1E1DB14637";
shapes = (
{
closed = 1;
nodes = (
(461,-15,o),
(557,91,o),
(557,264,cs),
(557,714,l),
(391,714,l),
(391,445,l),
(404,458,l),
(393,492,o),
(343,524,o),
(278,524,cs),
(139,524,o),
(43,415,o),
(43,252,cs),
(43,89,o),
(141,-15,o),
(300,-15,cs)
);
},
{
closed = 1;
nodes = (
(241,125,o),
(206,168,o),
(206,255,cs),
(206,341,o),
(244,384,o),
(300,384,cs),
(355,384,o),
(394,341,o),
(394,255,cs),
(394,168,o),
(358,125,o),
(300,125,cs)
);
}
);
width = 615;
}
);
metricLeft = "ke-canadian";
metricRight = "te-canadian";
note = uni146F;
unicode = 5231;
},
{
glyphname = "ka-canadian";
lastChange = "2023-01-13 15:28:15 +0000";
layers = (
{
anchors = (
{
name = middle_center_can;
pos = (319,291);
},
{
name = top_center_can;
pos = (315,714);
},
{
name = top_left_can;
pos = (141,714);
},
{
name = top_right_can;
pos = (490,714);
}
);
layerId = "9763B71A-4976-465B-BEF0-2F1E1DB14637";
shapes = (
{
closed = 1;
nodes = (
(467,-15,o),
(571,90,o),
(571,257,cs),
(571,417,o),
(475,524,o),
(342,524,cs),
(274,524,o),
(224,492,o),
(210,458,c),
(224,445,l),
(224,714,l),
(58,714,l),
(58,264,ls),
(58,91,o),
(152,-15,o),
(313,-15,cs)
);
},
{
closed = 1;
nodes = (
(256,125,o),
(220,168,o),
(220,255,cs),
(220,341,o),
(259,384,o),
(315,384,cs),
(370,384,o),
(409,341,o),
(409,255,cs),
(409,168,o),
(373,125,o),
(315,125,cs)
);
}
);
width = 614;
}
);
metricLeft = "te-canadian";
metricRight = "==|ke-canadian";
note = uni1472;
unicode = 5234;
},
{
glyphname = "k-canadian";
kernLeft = mwestleft;
kernRight = mwestright;
lastChange = "2023-01-13 15:28:15 +0000";
layers = (
{
layerId = "9763B71A-4976-465B-BEF0-2F1E1DB14637";
shapes = (
{
closed = 1;
nodes = (
(281,351,o),
(344,400,o),
(344,489,cs),
(344,571,o),
(291,622,o),
(223,622,cs),
(184,622,o),
(154,601,o),
(147,575,c),
(168,574,l),
(168,714,l),
(55,714,l),
(55,492,ls),
(55,408,o),
(110,351,o),
(203,351,cs)
);
},
{
closed = 1;
nodes = (
(176,432,o),
(158,449,o),
(158,486,cs),
(158,524,o),
(177,541,o),
(201,541,cs),
(225,541,o),
(244,524,o),
(244,486,cs),
(244,449,o),
(225,432,o),
(201,432,cs)
);
}
);
width = 389;
}
);
note = uni1483;
unicode = 5251;
},
{
glyphname = "kw-canadian";
kernLeft = mwestleft;
kernRight = mwestright;
lastChange = "2023-01-13 15:28:15 +0000";
layers = (
{
layerId = "9763B71A-4976-465B-BEF0-2F1E1DB14637";
shapes = (
{
closed = 1;
nodes = (
(279,351,o),
(334,408,o),
(334,492,cs),
(334,714,l),
(221,714,l),
(221,574,l),
(243,575,l),
(235,601,o),
(205,622,o),
(166,622,cs),
(98,622,o),
(45,571,o),
(45,489,cs),
(45,400,o),
(108,351,o),
(186,351,cs)
);
},
{
closed = 1;
nodes = (
(164,432,o),
(145,449,o),
(145,486,cs),
(145,524,o),
(164,541,o),
(188,541,cs),
(212,541,o),
(231,524,o),
(231,486,cs),
(231,449,o),
(213,432,o),
(188,432,cs)
);
}
);
width = 389;
}
);
metricLeft = "=|k-canadian";
metricRight = "=|k-canadian";
note = uni1484;
unicode = 5252;
},
{
glyphname = "ce-canadian";
kernLeft = celeft;
lastChange = "2023-01-13 15:30:28 +0000";
layers = (
{
anchors = (
{
name = middle_center_can;
pos = (299,373);
},
{
name = top_center_can;
pos = (299,714);
},
{
name = top_left_can;
pos = (124,714);
},
{
name = top_right_can;
pos = (466,714);
}
);
layerId = "9763B71A-4976-465B-BEF0-2F1E1DB14637";
shapes = (
{
closed = 1;
nodes = (
(549,0,l),
(549,454,ls),
(549,629,o),
(456,729,o),
(299,729,cs),
(139,729,o),
(42,628,o),
(42,453,cs),
(42,393,l),
(206,393,l),
(206,470,ls),
(206,545,o),
(238,585,o),
(295,585,cs),
(351,585,o),
(383,546,o),
(383,469,cs),
(383,0,l)
);
}
);
width = 607;
}
);
metricRight = "te-canadian";
note = uni1489;
unicode = 5257;
},
{
glyphname = "ci-canadian";
kernRight = ciright;
lastChange = "2023-01-13 15:30:28 +0000";
layers = (
{
anchors = (
{
name = middle_center_can;
pos = (304,373);
},
{
name = top_center_can;
pos = (316,714);
},
{
name = top_left_can;
pos = (141,714);
},
{
name = top_right_can;
pos = (483,714);
}
);
layerId = "9763B71A-4976-465B-BEF0-2F1E1DB14637";
shapes = (
{
closed = 1;
nodes = (
(224,0,l),
(224,469,ls),
(224,546,o),
(257,585,o),
(314,585,cs),
(369,585,o),
(400,546,o),
(400,471,cs),
(400,393,l),
(565,393,l),
(565,453,ls),
(565,628,o),
(472,729,o),
(316,729,cs),
(151,729,o),
(58,625,o),
(58,453,cs),
(58,0,l)
);
}
);
width = 607;
}
);
metricLeft = "te-canadian";
metricRight = "=|ce-canadian";
note = uni148B;
unicode = 5259;
},
{
glyphname = "co-canadian";
kernLeft = coleft;
lastChange = "2023-01-13 15:30:28 +0000";
layers = (
{
anchors = (
{
name = middle_center_can;
pos = (299,373);
},
{
name = top_center_can;
pos = (298,714);
},
{
name = top_double;
pos = (466,714);
},
{
name = top_left_can;
pos = (124,714);
},
{
name = top_right_can;
pos = (466,714);
}
);
layerId = "9763B71A-4976-465B-BEF0-2F1E1DB14637";
shapes = (
{
closed = 1;
nodes = (
(455,-15,o),
(549,84,o),
(549,260,cs),
(549,714,l),
(383,714,l),
(383,243,ls),
(383,166,o),
(351,129,o),
(295,129,cs),
(236,129,o),
(206,169,o),
(206,250,cs),
(206,321,l),
(42,321,l),
(42,261,ls),
(42,86,o),
(134,-15,o),
(299,-15,cs)
);
}
);
width = 607;
}
);
metricLeft = "ce-canadian";
metricRight = "te-canadian";
note = uni148D;
unicode = 5261;
},
{
glyphname = "ca-canadian";
kernRight = caright;
lastChange = "2023-01-13 15:30:28 +0000";
layers = (
{
anchors = (
{
name = middle_center_can;
pos = (304,373);
},
{
name = top_center_can;
pos = (316,714);
},
{
name = top_left_can;
pos = (141,714);
},
{
name = top_right_can;
pos = (483,714);
}
);
layerId = "9763B71A-4976-465B-BEF0-2F1E1DB14637";
shapes = (
{
closed = 1;
nodes = (
(470,-15,o),
(565,86,o),
(565,261,cs),
(565,321,l),
(400,321,l),
(400,248,ls),
(400,167,o),
(370,129,o),
(313,129,cs),
(255,129,o),
(224,168,o),
(224,249,cs),
(224,714,l),
(58,714,l),
(58,260,ls),
(58,86,o),
(147,-15,o),
(312,-15,cs)
);
}
);
width = 607;
}
);
metricLeft = "te-canadian";
metricRight = "=|ce-canadian";
note = uni1490;
unicode = 5264;
},
{
glyphname = "c-canadian";
kernLeft = mwestleft;
kernRight = mwestright;
lastChange = "2023-01-13 15:28:15 +0000";
layers = (
{
layerId = "9763B71A-4976-465B-BEF0-2F1E1DB14637";
shapes = (
{
closed = 1;
nodes = (
(291,351,o),
(347,402,o),
(347,488,cs),
(347,508,l),
(241,508,l),
(241,480,ls),
(241,454,o),
(227,438,o),
(203,438,cs),
(180,438,o),
(168,454,o),
(168,482,cs),
(168,714,l),
(55,714,l),
(55,497,ls),
(55,402,o),
(106,351,o),
(203,351,cs)
);
}
);
width = 379;
}
);
note = uni14A1;
unicode = 5281;
},
{
glyphname = "thSayisi-canadian";
lastChange = "2023-01-13 15:28:15 +0000";
layers = (
{
layerId = "9763B71A-4976-465B-BEF0-2F1E1DB14637";
shapes = (
{
closed = 1;
nodes = (
(273,351,o),
(324,402,o),
(324,497,cs),
(324,714,l),
(211,714,l),
(211,482,ls),
(211,454,o),
(199,438,o),
(176,438,cs),
(152,438,o),
(138,454,o),
(138,480,cs),
(138,508,l),
(32,508,l),
(32,488,ls),
(32,402,o),
(88,351,o),
(178,351,cs)
);
}
);
width = 379;
}
);
metricLeft = "=|c-canadian";
metricRight = "=|c-canadian";
note = uni14A2;
unicode = 5282;
},
{
glyphname = "me-canadian";
kernLeft = meleft;
lastChange = "2023-01-13 15:30:28 +0000";
layers = (
{
anchors = (
{
name = middle_center_can;
pos = (189,357);
},
{
name = top_center_can;
pos = (276,714);
},
{
name = top_left_can;
pos = (119,714);
},
{
name = top_right_can;
pos = (424,714);
}
);
layerId = "9763B71A-4976-465B-BEF0-2F1E1DB14637";
shapes = (
{
closed = 1;
nodes = (
(507,0,l),
(507,714,l),
(37,714,l),
(37,565,l),
(341,565,l),
(341,0,l)
);
}
);
width = 572;
}
);
metricRight = "nunavuth-canadian";
note = uni14A3;
unicode = 5283;
},
{
glyphname = "mi-canadian";
kernRight = miright;
lastChange = "2023-01-13 15:30:28 +0000";
layers = (
{
anchors = (
{
name = middle_center_can;
pos = (383,357);
},
{
name = top_center_can;
pos = (300,714);
},
{
name = top_left_can;
pos = (148,714);
},
{
name = top_right_can;
pos = (452,714);
}
);
layerId = "9763B71A-4976-465B-BEF0-2F1E1DB14637";
shapes = (
{
closed = 1;
nodes = (
(231,0,l),
(231,565,l),
(535,565,l),
(535,714,l),
(65,714,l),
(65,0,l)
);
}
);
width = 572;
}
);
metricLeft = "nunavuth-canadian";
metricRight = "=|me-canadian";
note = uni14A5;
unicode = 5285;
},
{
glyphname = "mo-canadian";
kernLeft = moleft;
lastChange = "2023-01-13 15:30:28 +0000";
layers = (
{
anchors = (
{
name = middle_center_can;
pos = (189,357);
},
{
name = top_center_can;
pos = (276,714);
},
{
name = top_double;
pos = (424,714);
},
{
name = top_left_can;
pos = (119,714);
},
{
name = top_right_can;
pos = (424,714);
}
);
layerId = "9763B71A-4976-465B-BEF0-2F1E1DB14637";
shapes = (
{
closed = 1;
nodes = (
(507,0,l),
(507,714,l),
(341,714,l),
(341,149,l),
(37,149,l),
(37,0,l)
);
}
);
width = 572;
}
);
metricLeft = "me-canadian";
metricRight = "nunavuth-canadian";
note = uni14A7;
unicode = 5287;
},
{
glyphname = "ma-canadian";
kernRight = maright;
lastChange = "2023-01-13 15:30:28 +0000";
layers = (
{
anchors = (
{
name = middle_center_can;
pos = (383,357);
},
{
name = top_center_can;
pos = (300,714);
},
{
name = top_left_can;
pos = (148,714);
},
{
name = top_right_can;
pos = (451,714);
}
);
layerId = "9763B71A-4976-465B-BEF0-2F1E1DB14637";
shapes = (
{
closed = 1;
nodes = (
(535,0,l),
(535,149,l),
(231,149,l),
(231,714,l),
(65,714,l),
(65,0,l)
);
}
);
width = 572;
}
);
metricLeft = "nunavuth-canadian";
metricRight = "=|me-canadian";
note = uni14AA;
unicode = 5290;
},
{
glyphname = "m-canadian";
kernLeft = mwestleft;
kernRight = mwestright;
lastChange = "2023-01-13 15:28:15 +0000";
layers = (
{
layerId = "9763B71A-4976-465B-BEF0-2F1E1DB14637";
shapes = (
{
closed = 1;
nodes = (
(310,462,l),
(168,462,l),
(168,714,l),
(55,714,l),
(55,357,l),
(310,357,l)
);
}
);
width = 352;
}
);
metricLeft = "pWestCree-canadian";
note = uni14BB;
unicode = 5307;
},
{
glyphname = "mh-canadian";
kernLeft = mwestleft;
kernRight = mwestright;
lastChange = "2023-01-13 15:28:15 +0000";
layers = (
{
layerId = "9763B71A-4976-465B-BEF0-2F1E1DB14637";
shapes = (
{
closed = 1;
nodes = (
(297,357,l),
(297,714,l),
(184,714,l),
(184,462,l),
(42,462,l),
(42,357,l)
);
}
);
width = 352;
}
);
metricLeft = "=|m-canadian";
metricRight = "=|m-canadian";
note = uni14BD;
unicode = 5309;
},
{
glyphname = "mAthapascan-canadian";
lastChange = "2023-01-13 15:28:15 +0000";
layers = (
{
layerId = "9763B71A-4976-465B-BEF0-2F1E1DB14637";
shapes = (
{
closed = 1;
nodes = (
(320,357,l),
(320,446,l),
(167,446,l),
(168,402,l),
(260,494,ls),
(298,531,o),
(313,570,o),
(313,607,cs),
(313,674,o),
(268,720,o),
(184,720,cs),
(94,720,o),
(45,666,o),
(43,588,c),
(142,588,l),
(142,623,o),
(155,640,o),
(181,640,cs),
(203,640,o),
(214,627,o),
(214,604,cs),
(214,580,o),
(205,562,o),
(176,531,cs),
(56,415,l),
(56,357,l)
);
}
);
width = 363;
}
);
note = uni14BE;
unicode = 5310;
},
{
glyphname = "ne-canadian";
kernLeft = neleft;
lastChange = "2023-01-13 15:30:28 +0000";
layers = (
{
anchors = (
{
name = middle_center_can;
pos = (522,254);
},
{
name = top_center_can;
pos = (504,529);
},
{
name = top_left_can;
pos = (124,529);
},
{
name = top_right_can;
pos = (703,529);
}
);
layerId = "9763B71A-4976-465B-BEF0-2F1E1DB14637";
shapes = (
{
closed = 1;
nodes = (
(676,-15,o),
(784,86,o),
(784,248,cs),
(784,416,o),
(679,509,o),
(502,509,cs),
(42,509,l),
(42,362,l),
(337,362,l),
(314,398,l),
(279,360,o),
(261,298,o),
(261,239,cs),
(261,82,o),
(363,-15,o),
(522,-15,cs)
);
},
{
closed = 1;
nodes = (
(458,125,o),
(424,174,o),
(424,247,cs),
(424,320,o),
(458,369,o),
(521,369,cs),
(585,369,o),
(621,321,o),
(621,247,cs),
(621,173,o),
(585,125,o),
(522,125,cs)
);
}
);
width = 827;
}
);
metricRight = "=|ke-canadian";
note = uni14C0;
unicode = 5312;
},
{
glyphname = "ni-canadian";
kernRight = niright;
lastChange = "2023-01-13 15:30:28 +0000";
layers = (
{
anchors = (
{
name = middle_center_can;
pos = (306,254);
},
{
name = top_center_can;
pos = (326,529);
},
{
name = top_left_can;
pos = (125,529);
},
{
name = top_right_can;
pos = (702,529);
}
);
layerId = "9763B71A-4976-465B-BEF0-2F1E1DB14637";
shapes = (
{
closed = 1;
nodes = (
(464,-15,o),
(565,82,o),
(565,241,cs),
(565,301,o),
(547,362,o),
(513,400,c),
(489,362,l),
(785,362,l),
(785,509,l),
(327,509,ls),
(145,509,o),
(43,404,o),
(43,244,cs),
(43,85,o),
(149,-15,o),
(305,-15,cs)
);
},
{
closed = 1;
nodes = (
(241,125,o),
(206,173,o),
(206,248,cs),
(206,322,o),
(241,370,o),
(305,370,cs),
(368,370,o),
(403,321,o),
(403,248,cs),
(403,174,o),
(368,125,o),
(305,125,cs)
);
}
);
width = 827;
}
);
metricLeft = "ke-canadian";
metricRight = "=|ne-canadian";
note = uni14C2;
unicode = 5314;
},
{
glyphname = "no-canadian";
kernLeft = noleft;
lastChange = "2023-01-13 15:30:28 +0000";
layers = (
{
anchors = (
{
name = middle_center_can;
pos = (521,254);
},
{
name = top_center_can;
pos = (521,529);
},
{
name = top_double;
pos = (522,529);
},
{
name = top_left_can;
pos = (124,529);
},
{
name = top_right_can;
pos = (703,529);
}
);
layerId = "9763B71A-4976-465B-BEF0-2F1E1DB14637";
shapes = (
{
closed = 1;
nodes = (
(508,0,ls),
(681,0,o),
(784,97,o),
(784,261,cs),
(784,423,o),
(679,524,o),
(522,524,cs),
(363,524,o),
(261,425,o),
(261,269,cs),
(261,210,o),
(279,149,o),
(315,111,c),
(337,147,l),
(42,147,l),
(42,0,l)
);
},
{
closed = 1;
nodes = (
(458,139,o),
(424,188,o),
(424,262,cs),
(424,336,o),
(458,384,o),
(522,384,cs),
(585,384,o),
(621,336,o),
(621,262,cs),
(621,187,o),
(585,139,o),
(521,139,cs)
);
}
);
width = 827;
}
);
metricLeft = "ne-canadian";
metricRight = "=|ke-canadian";
note = uni14C4;
unicode = 5316;
},
{
glyphname = "na-canadian";
kernRight = naright;
lastChange = "2023-01-13 15:30:28 +0000";
layers = (
{
anchors = (
{
name = middle_center_can;
pos = (306,254);
},
{
name = top_center_can;
pos = (306,529);
},
{
name = top_double;
pos = (491,529);
},
{
name = top_left_can;
pos = (125,529);
},
{
name = top_right_can;
pos = (702,529);
}
);
layerId = "9763B71A-4976-465B-BEF0-2F1E1DB14637";
shapes = (
{
closed = 1;
nodes = (
(785,0,l),
(785,148,l),
(489,148,l),
(512,109,l),
(547,147,o),
(565,209,o),
(565,268,cs),
(565,427,o),
(464,524,o),
(305,524,cs),
(149,524,o),
(43,423,o),
(43,261,cs),
(43,101,o),
(144,0,o),
(321,0,cs)
);
},
{
closed = 1;
nodes = (
(241,139,o),
(206,187,o),
(206,262,cs),
(206,336,o),
(241,384,o),
(305,384,cs),
(368,384,o),
(403,336,o),
(403,262,cs),
(403,188,o),
(368,139,o),
(305,139,cs)
);
}
);
width = 827;
}
);
metricLeft = "ke-canadian";
metricRight = "=|ne-canadian";
note = uni14C7;
unicode = 5319;
},
{
glyphname = "n-canadian";
kernLeft = mwestleft;
kernRight = mwestright;
lastChange = "2023-01-13 15:28:15 +0000";
layers = (
{
layerId = "9763B71A-4976-465B-BEF0-2F1E1DB14637";
shapes = (
{
closed = 1;
nodes = (
(447,450,l),
(447,555,l),
(285,555,l),
(290,506,l),
(311,517,o),
(330,550,o),
(330,591,cs),
(330,670,o),
(277,721,o),
(188,721,cs),
(101,721,o),
(45,668,o),
(45,585,cs),
(45,505,o),
(99,450,o),
(193,450,cs)
);
},
{
closed = 1;
nodes = (
(163,531,o),
(145,549,o),
(145,585,cs),
(145,622,o),
(163,641,o),
(188,641,cs),
(213,641,o),
(230,622,o),
(230,585,cs),
(230,550,o),
(213,531,o),
(188,531,cs)
);
}
);
width = 489;
}
);
metricLeft = "=|k-canadian";
note = uni14D0;
unicode = 5328;
},
{
glyphname = "nh-canadian";
kernLeft = mwestleft;
kernRight = mwestright;
lastChange = "2023-01-13 15:28:15 +0000";
layers = (
{
layerId = "9763B71A-4976-465B-BEF0-2F1E1DB14637";
shapes = (
{
closed = 1;
nodes = (
(296,450,ls),
(390,450,o),
(444,505,o),
(444,585,cs),
(444,668,o),
(388,721,o),
(301,721,cs),
(212,721,o),
(159,670,o),
(159,591,cs),
(159,550,o),
(178,517,o),
(199,506,c),
(204,555,l),
(42,555,l),
(42,450,l)
);
},
{
closed = 1;
nodes = (
(276,531,o),
(259,550,o),
(259,585,cs),
(259,622,o),
(276,641,o),
(301,641,cs),
(326,641,o),
(344,622,o),
(344,585,cs),
(344,549,o),
(326,531,o),
(301,531,cs)
);
}
);
width = 489;
}
);
metricLeft = "=|n-canadian";
metricRight = "=|n-canadian";
note = uni14D2;
unicode = 5330;
},
{
glyphname = "le-canadian";
kernLeft = neleft;
lastChange = "2023-01-13 15:30:28 +0000";
layers = (
{
anchors = (
{
name = middle_center_can;
pos = (521,254);
},
{
name = top_center_can;
pos = (505,529);
},
{
name = top_left_can;
pos = (124,529);
},
{
name = top_right_can;
pos = (702,529);
}
);
layerId = "9763B71A-4976-465B-BEF0-2F1E1DB14637";
shapes = (
{
closed = 1;
nodes = (
(504,0,ls),
(674,0,o),
(784,93,o),
(784,255,cs),
(784,416,o),
(683,509,o),
(504,509,cs),
(42,509,l),
(42,361,l),
(501,361,ls),
(575,361,o),
(619,324,o),
(619,253,cs),
(619,182,o),
(573,145,o),
(495,145,cs),
(442,145,l),
(442,0,l)
);
}
);
width = 827;
}
);
metricLeft = "ne-canadian";
metricRight = "=|ke-canadian";
note = uni14D3;
unicode = 5331;
},
{
glyphname = "li-canadian";
kernRight = niright;
lastChange = "2023-01-13 15:30:28 +0000";
layers = (
{
anchors = (
{
name = middle_center_can;
pos = (306,254);
},
{
name = top_center_can;
pos = (326,529);
},
{
name = top_left_can;
pos = (125,529);
},
{
name = top_right_can;
pos = (702,529);
}
);
layerId = "9763B71A-4976-465B-BEF0-2F1E1DB14637";
shapes = (
{
closed = 1;
nodes = (
(385,0,l),
(385,145,l),
(330,145,ls),
(251,145,o),
(207,182,o),
(207,252,cs),
(207,321,o),
(248,361,o),
(327,361,cs),
(785,361,l),
(785,509,l),
(322,509,ls),
(151,509,o),
(43,414,o),
(43,253,cs),
(43,93,o),
(151,0,o),
(323,0,cs)
);
}
);
width = 827;
}
);
metricLeft = "ke-canadian";
metricRight = "=|ne-canadian";
note = uni14D5;
unicode = 5333;
},
{
glyphname = "lo-canadian";
kernLeft = noleft;
lastChange = "2023-01-13 15:30:28 +0000";
layers = (
{
anchors = (
{
name = middle_center_can;
pos = (521,254);
},
{
name = top_center_can;
pos = (521,529);
},
{
name = top_double;
pos = (508,529);
},
{
name = top_left_can;
pos = (124,529);
},
{
name = top_right_can;
pos = (702,529);
}
);
layerId = "9763B71A-4976-465B-BEF0-2F1E1DB14637";
shapes = (
{
closed = 1;
nodes = (
(502,0,ls),
(677,0,o),
(784,93,o),
(784,255,cs),
(784,418,o),
(674,509,o),
(508,509,cs),
(442,509,l),
(442,365,l),
(497,365,ls),
(578,365,o),
(619,328,o),
(619,257,cs),
(619,186,o),
(577,148,o),
(501,148,cs),
(42,148,l),
(42,0,l)
);
}
);
width = 827;
}
);
metricLeft = "ne-canadian";
metricRight = "=|ke-canadian";
note = uni14D7;
unicode = 5335;
},
{
glyphname = "la-canadian";
kernRight = naright;
lastChange = "2023-01-13 15:30:28 +0000";
layers = (
{
anchors = (
{
name = middle_center_can;
pos = (306,254);
},
{
name = top_center_can;
pos = (306,529);
},
{
name = top_left_can;
pos = (125,529);
},
{
name = top_right_can;
pos = (702,529);
}
);
layerId = "9763B71A-4976-465B-BEF0-2F1E1DB14637";
shapes = (
{
closed = 1;
nodes = (
(785,0,l),
(785,148,l),
(327,148,ls),
(247,148,o),
(207,186,o),
(207,256,cs),
(207,327,o),
(250,365,o),
(326,365,cs),
(385,365,l),
(385,509,l),
(320,509,ls),
(150,509,o),
(43,413,o),
(43,254,cs),
(43,92,o),
(150,0,o),
(322,0,cs)
);
}
);
width = 827;
}
);
metricLeft = "ke-canadian";
metricRight = "=|ne-canadian";
note = uni14DA;
unicode = 5338;
},
{
glyphname = "l-canadian";
kernLeft = mwestleft;
kernRight = mwestright;
lastChange = "2023-01-13 15:28:15 +0000";
layers = (
{
layerId = "9763B71A-4976-465B-BEF0-2F1E1DB14637";
shapes = (
{
closed = 1;
nodes = (
(432,357,l),
(432,462,l),
(244,462,ls),
(190,462,o),
(161,486,o),
(161,536,cs),
(161,585,o),
(190,613,o),
(243,613,cs),
(258,613,l),
(258,714,l),
(234,714,ls),
(118,714,o),
(48,645,o),
(48,535,cs),
(48,425,o),
(118,357,o),
(234,357,cs)
);
}
);
width = 474;
}
);
metricLeft = "t-canadian";
metricRight = "m-canadian";
note = uni14EA;
unicode = 5354;
},
{
glyphname = "lWestCree-canadian";
kernLeft = mwestleft;
kernRight = mwestright;
lastChange = "2023-01-13 15:28:15 +0000";
layers = (
{
layerId = "9763B71A-4976-465B-BEF0-2F1E1DB14637";
shapes = (
{
closed = 1;
nodes = (
(304,357,l),
(304,430,l),
(144,499,l),
(144,445,l),
(304,513,l),
(304,558,l),
(144,628,l),
(144,571,l),
(304,640,l),
(304,714,l),
(286,714,l),
(55,618,l),
(55,584,l),
(221,515,l),
(221,555,l),
(55,487,l),
(55,453,l),
(286,357,l)
);
}
);
width = 359;
}
);
metricRight = "=|";
note = uni14EB;
unicode = 5355;
},
{
glyphname = "mediall-canadian";
lastChange = "2023-01-13 15:30:28 +0000";
layers = (
{
layerId = "9763B71A-4976-465B-BEF0-2F1E1DB14637";
shapes = (
{
closed = 1;
nodes = (
(576,-15,l),
(576,107,l),
(227,253,l),
(227,180,l),
(576,325,l),
(576,389,l),
(227,534,l),
(227,460,l),
(576,607,l),
(576,729,l),
(537,729,l),
(57,529,l),
(57,472,l),
(407,328,l),
(407,386,l),
(57,242,l),
(57,185,l),
(537,-15,l)
);
}
);
width = 633;
}
);
metricRight = "=|";
note = uni14EC;
unicode = 5356;
},
{
glyphname = "se-canadian";
kernRight = seright;
lastChange = "2023-01-13 15:28:15 +0000";
layers = (
{
anchors = (
{
name = top_left_can;
pos = (148,714);
},
{
name = top_right_can;
pos = (430,714);
}
);
layerId = "9763B71A-4976-465B-BEF0-2F1E1DB14637";
shapes = (
{
closed = 1;
nodes = (
(512,0,l),
(512,379,l),
(469,379,ls),
(308,379,o),
(230,443,o),
(230,624,cs),
(230,714,l),
(64,714,l),
(64,609,ls),
(64,362,o),
(201,232,o),
(434,232,cs),
(472,232,l),
(346,287,l),
(346,0,l)
);
}
);
width = 577;
}
);
note = uni14ED;
unicode = 5357;
},
{
glyphname = "si-canadian";
kernLeft = sileft;
lastChange = "2023-01-13 15:30:28 +0000";
layers = (
{
anchors = (
{
name = top_left_can;
pos = (148,714);
},
{
name = top_right_can;
pos = (430,714);
}
);
layerId = "9763B71A-4976-465B-BEF0-2F1E1DB14637";
shapes = (
{
closed = 1;
nodes = (
(231,0,l),
(231,287,l),
(105,232,l),
(143,232,ls),
(376,232,o),
(512,362,o),
(512,609,cs),
(512,714,l),
(346,714,l),
(346,624,ls),
(346,443,o),
(269,379,o),
(108,379,cs),
(65,379,l),
(65,0,l)
);
}
);
width = 576;
}
);
metricLeft = "=|se-canadian";
metricRight = "=|se-canadian";
note = uni14EF;
unicode = 5359;
},
{
glyphname = "so-canadian";
kernRight = soright;
lastChange = "2023-01-13 15:28:15 +0000";
layers = (
{
anchors = (
{
name = top_double;
pos = (429,714);
},
{
name = top_left_can;
pos = (148,714);
},
{
name = top_right_can;
pos = (429,714);
}
);
layerId = "9763B71A-4976-465B-BEF0-2F1E1DB14637";
shapes = (
{
closed = 1;
nodes = (
(230,0,l),
(230,90,ls),
(230,271,o),
(308,335,o),
(469,335,cs),
(512,335,l),
(512,714,l),
(346,714,l),
(346,427,l),
(472,482,l),
(434,482,ls),
(201,482,o),
(64,352,o),
(64,105,cs),
(64,0,l)
);
}
);
width = 577;
}
);
metricLeft = "se-canadian";
metricRight = "se-canadian";
note = uni14F1;
unicode = 5361;
},
{
glyphname = "sa-canadian";
kernLeft = saleft;
kernRight = saright;
lastChange = "2023-01-13 15:30:28 +0000";
layers = (
{
anchors = (
{
name = top_left_can;
pos = (148,714);
},
{
name = top_right_can;
pos = (430,714);
}
);
layerId = "9763B71A-4976-465B-BEF0-2F1E1DB14637";
shapes = (
{
closed = 1;
nodes = (
(512,0,l),
(512,105,ls),
(512,352,o),
(376,482,o),
(143,482,cs),
(105,482,l),
(231,427,l),
(231,714,l),
(65,714,l),
(65,335,l),
(108,335,ls),
(269,335,o),
(346,271,o),
(346,90,cs),
(346,0,l)
);
}
);
width = 576;
}
);
metricLeft = "=|se-canadian";
metricRight = "=|se-canadian";
note = uni14F4;
unicode = 5364;
},
{
glyphname = "s-canadian";
kernLeft = mwestleft;
kernRight = mwestright;
lastChange = "2023-01-13 15:28:15 +0000";
layers = (
{
layerId = "9763B71A-4976-465B-BEF0-2F1E1DB14637";
shapes = (
{
closed = 1;
nodes = (
(320,357,l),
(320,415,ls),
(320,539,o),
(249,614,o),
(139,614,cs),
(93,614,l),
(168,570,l),
(168,714,l),
(55,714,l),
(55,525,l),
(93,525,ls),
(170,525,o),
(207,491,o),
(207,411,cs),
(207,357,l)
);
}
);
width = 375;
}
);
metricRight = "=|";
note = uni1505;
unicode = 5381;
},
{
color = 6;
glyphname = "sAthapascan-canadian";
lastChange = "2023-01-13 15:28:15 +0000";
layers = (
{
layerId = "9763B71A-4976-465B-BEF0-2F1E1DB14637";
shapes = (
{
closed = 1;
nodes = (
(287,183,o),
(341,230,o),
(341,292,cs),
(341,337,o),
(316,373,o),
(260,391,cs),
(185,415,ls),
(165,423,o),
(158,430,o),
(158,444,cs),
(158,461,o),
(170,473,o),
(197,473,cs),
(225,473,o),
(241,463,o),
(242,430,c),
(339,430,l),
(338,509,o),
(284,552,o),
(199,552,cs),
(116.008,552,o),
(60,508,o),
(60,443,cs),
(60,397,o),
(87,359,o),
(139,342,cs),
(214,318,ls),
(235,311,o),
(243,303,o),
(243,289,cs),
(243,271,o),
(228,262,o),
(203,262,cs),
(171,262,o),
(155,274,o),
(153,305,c),
(55,305,l),
(57,226,o),
(111,183,o),
(201,183,cs)
);
}
);
width = 396;
}
);
metricRight = "=|";
note = uni1506;
unicode = 5382;
},
{
glyphname = "sw-canadian";
kernLeft = mwestleft;
kernRight = mwestright;
lastChange = "2023-01-13 15:28:15 +0000";
layers = (
{
layerId = "9763B71A-4976-465B-BEF0-2F1E1DB14637";
shapes = (
{
closed = 1;
nodes = (
(168,357,l),
(168,411,ls),
(168,491,o),
(205,525,o),
(282,525,cs),
(320,525,l),
(320,714,l),
(207,714,l),
(207,570,l),
(282,614,l),
(236,614,ls),
(127,614,o),
(55,539,o),
(55,415,cs),
(55,357,l)
);
}
);
width = 375;
}
);
metricLeft = "=|s-canadian";
metricRight = "=|s-canadian";
note = uni1507;
unicode = 5383;
},
{
glyphname = "sBlackfoot-canadian";
lastChange = "2023-01-13 15:28:15 +0000";
layers = (
{
layerId = "9763B71A-4976-465B-BEF0-2F1E1DB14637";
shapes = (
{
closed = 1;
nodes = (
(324,357,l),
(324,462,l),
(234,462,ls),
(190,462,o),
(168,483,o),
(168,528,cs),
(168,714,l),
(55,714,l),
(55,512,ls),
(55,413,o),
(112,357,o),
(212,357,c)
);
}
);
width = 366;
}
);
metricLeft = "ai-canadian";
metricRight = "m-canadian";
note = uni1508;
unicode = 5384;
},
{
glyphname = "moosecreesk-canadian";
kernLeft = mwestleft;
kernRight = mwestright;
lastChange = "2023-01-13 15:30:28 +0000";
layers = (
{
layerId = "9763B71A-4976-465B-BEF0-2F1E1DB14637";
shapes = (
{
closed = 1;
nodes = (
(281,225,o),
(344,280,o),
(344,392,cs),
(344,531,o),
(273,613,o),
(145,613,cs),
(114,613,l),
(172,569,l),
(172,714,l),
(59,714,l),
(59,526,l),
(108,526,ls),
(201,526,o),
(227,499,o),
(235,449,c),
(263,447,l),
(255,470,o),
(228,493,o),
(189,493,cs),
(110,493,o),
(56,439,o),
(56,361,cs),
(56,274,o),
(119,225,o),
(196,225,cs)
);
},
{
closed = 1;
nodes = (
(174,305,o),
(155,323,o),
(155,360,cs),
(155,398,o),
(174,416,o),
(199,416,cs),
(223,416,o),
(241,398,o),
(241,360,cs),
(241,323,o),
(224,305,o),
(199,305,cs)
);
}
);
width = 400;
}
);
metricRight = "=|";
note = uni1509;
unicode = 5385;
},
{
glyphname = "skwNaskapi-canadian";
kernLeft = mwestleft;
kernRight = mwestright;
lastChange = "2023-01-13 15:30:28 +0000";
layers = (
{
layerId = "9763B71A-4976-465B-BEF0-2F1E1DB14637";
shapes = (
{
closed = 1;
nodes = (
(281,225,o),
(344,274,o),
(344,361,cs),
(344,439,o),
(290,493,o),
(211,493,cs),
(172,493,o),
(146,470,o),
(137,447,c),
(165,449,l),
(173,499,o),
(199,526,o),
(292,526,cs),
(341,526,l),
(341,714,l),
(228,714,l),
(228,569,l),
(286,613,l),
(255,613,ls),
(127,613,o),
(56,531,o),
(56,392,cs),
(56,280,o),
(119,225,o),
(204,225,cs)
);
},
{
closed = 1;
nodes = (
(176,305,o),
(159,323,o),
(159,360,cs),
(159,398,o),
(177,416,o),
(201,416,cs),
(226,416,o),
(245,398,o),
(245,360,cs),
(245,323,o),
(226,305,o),
(201,305,cs)
);
}
);
width = 400;
}
);
metricLeft = "=|moosecreesk-canadian";
metricRight = "=|moosecreesk-canadian";
note = uni150A;
unicode = 5386;
},
{
glyphname = "swNaskapi-canadian";
lastChange = "2023-01-13 15:30:28 +0000";
layers = (
{
layerId = "9763B71A-4976-465B-BEF0-2F1E1DB14637";
shapes = (
{
closed = 1;
nodes = (
(339,198,l),
(339,246,ls),
(339,358,o),
(269,431,o),
(159,431,cs),
(124,431,l),
(178,388,l),
(178,517,l),
(65,517,l),
(65,345,l),
(114,345,ls),
(190,345,o),
(226,316,o),
(226,241,cs),
(226,198,l)
);
},
{
closed = 1;
nodes = (
(325,2,o),
(360,37,o),
(360,79,cs),
(360,122,o),
(325,157,o),
(283,157,cs),
(240,157,o),
(206,122,o),
(206,79,cs),
(206,37,o),
(240,2,o),
(283,2,cs)
);
},
{
closed = 1;
nodes = (
(164,557,o),
(199,592,o),
(199,635,cs),
(199,677,o),
(164,712,o),
(122,712,cs),
(79,712,o),
(45,677,o),
(45,635,cs),
(45,592,o),
(79,557,o),
(122,557,cs)
);
}
);
width = 405;
}
);
metricRight = "=|";
note = uni150B;
unicode = 5387;
},
{
glyphname = "spwaNaskapi-canadian";
lastChange = "2023-01-13 15:28:15 +0000";
layers = (
{
layerId = "9763B71A-4976-465B-BEF0-2F1E1DB14637";
shapes = (
{
closed = 1;
nodes = (
(625,0,l),
(625,157,l),
(223,393,l),
(223,319,l),
(625,556,l),
(625,714,l),
(585,714,l),
(29,382,l),
(29,332,l),
(585,0,l)
);
},
{
closed = 1;
nodes = (
(159,515,o),
(194,549,o),
(194,592,cs),
(194,635,o),
(159,670,o),
(117,670,cs),
(75,670,o),
(41,635,o),
(41,592,cs),
(41,549,o),
(75,515,o),
(117,515,cs)
);
},
{
closed = 1;
nodes = (
(378,636,l),
(378,684,ls),
(378,777,o),
(325,834,o),
(235,834,cs),
(206,834,l),
(275,797,l),
(275,906,l),
(165,906,l),
(165,753,l),
(191,753,ls),
(239,753,o),
(268,728,o),
(268,675,cs),
(268,636,l)
);
},
{
closed = 1;
nodes = (
(543,740,o),
(577,775,o),
(577,818,cs),
(577,860,o),
(543,895,o),
(500,895,cs),
(458,895,o),
(424,860,o),
(424,818,cs),
(424,775,o),
(458,740,o),
(500,740,cs)
);
}
);
width = 668;
}
);
metricRight = "pa-canadian";
metricWidth = "pa-canadian";
note = uni150C;
unicode = 5388;
},
{
glyphname = "she-canadian";
kernRight = caright;
lastChange = "2023-01-13 15:28:15 +0000";
layers = (
{
anchors = (
{
name = top_left_can;
pos = (294,714);
},
{
name = top_right_can;
pos = (758,714);
}
);
layerId = "9763B71A-4976-465B-BEF0-2F1E1DB14637";
shapes = (
{
closed = 1;
nodes = (
(774,-15,o),
(866,85,o),
(866,261,cs),
(866,321,l),
(701,321,l),
(701,248,ls),
(701,167,o),
(673,129,o),
(623,129,cs),
(569,129,o),
(545,168,o),
(540,250,cs),
(530,465,ls),
(521,633,o),
(446,729,o),
(294,729,cs),
(137,729,o),
(41,629,o),
(41,453,cs),
(41,393,l),
(206,393,l),
(206,469,ls),
(206,546,o),
(235,585,o),
(286,585,cs),
(337,585,o),
(363,547,o),
(367,468,cs),
(377,249,ls),
(385,83,o),
(458,-15,o),
(618,-15,cs)
);
}
);
width = 907;
}
);
metricRight = "=|";
note = uni1510;
unicode = 5392;
},
{
glyphname = "shi-canadian";
kernLeft = coleft;
lastChange = "2023-01-13 15:28:15 +0000";
layers = (
{
anchors = (
{
name = top_left_can;
pos = (151,714);
},
{
name = top_right_can;
pos = (613,714);
}
);
layerId = "9763B71A-4976-465B-BEF0-2F1E1DB14637";
shapes = (
{
closed = 1;
nodes = (
(449,-15,o),
(522,83,o),
(530,249,cs),
(540,468,ls),
(544,547,o),
(570,585,o),
(621,585,cs),
(672,585,o),
(701,546,o),
(701,469,cs),
(701,393,l),
(866,393,l),
(866,453,ls),
(866,629,o),
(770,729,o),
(613,729,cs),
(461,729,o),
(386,633,o),
(377,465,cs),
(367,250,ls),
(362,168,o),
(338,129,o),
(284,129,cs),
(234,129,o),
(206,167,o),
(206,248,cs),
(206,321,l),
(41,321,l),
(41,261,ls),
(41,85,o),
(134,-15,o),
(289,-15,cs)
);
}
);
width = 907;
}
);
metricLeft = "she-canadian";
metricRight = "she-canadian";
note = uni1511;
unicode = 5393;
},
{
glyphname = "sho-canadian";
lastChange = "2023-01-13 15:28:15 +0000";
layers = (
{
anchors = (
{
name = top_center_can;
pos = (465,529);
},
{
name = top_left_can;
pos = (289,529);
},
{
name = top_right_can;
pos = (641,529);
}
);
layerId = "9763B71A-4976-465B-BEF0-2F1E1DB14637";
shapes = (
{
closed = 1;
nodes = (
(371,124,l),
(263,123,o),
(206,150,o),
(206,204,cs),
(206,239,o),
(229,259,o),
(272,259,cs),
(382,259,o),
(502,106,o),
(675,106,cs),
(802,106,o),
(887,182,o),
(887,298,cs),
(887,440,o),
(766,525,o),
(564,524,c),
(559,385,l),
(667,386,o),
(724,359,o),
(724,306,cs),
(724,271,o),
(701,250,o),
(658,250,cs),
(548,250,o),
(428,403,o),
(254,403,cs),
(128,403,o),
(43,327,o),
(43,211,cs),
(43,69,o),
(165,-16,o),
(366,-15,c)
);
}
);
width = 930;
}
);
metricLeft = "ke-canadian";
metricRight = "=|ke-canadian";
note = uni1513;
unicode = 5395;
},
{
glyphname = "sha-canadian";
lastChange = "2023-01-13 15:28:15 +0000";
layers = (
{
anchors = (
{
name = top_center_can;
pos = (465,529);
},
{
name = top_left_can;
pos = (289,529);
},
{
name = top_right_can;
pos = (641,529);
}
);
layerId = "9763B71A-4976-465B-BEF0-2F1E1DB14637";
shapes = (
{
closed = 1;
nodes = (
(766,-18,o),
(887,69,o),
(887,210,cs),
(887,327,o),
(806,403,o),
(675,403,cs),
(502,403,o),
(382,250,o),
(272,250,cs),
(229,250,o),
(206,271,o),
(206,306,cs),
(206,359,o),
(263,388,o),
(371,385,c),
(366,524,l),
(165,528,o),
(43,440,o),
(43,300,cs),
(43,182,o),
(124,106,o),
(254,106,cs),
(428,106,o),
(548,259,o),
(658,259,cs),
(701,259,o),
(724,239,o),
(724,204,cs),
(724,150,o),
(667,121,o),
(559,124,c),
(564,-15,l)
);
}
);
width = 930;
}
);
metricLeft = "ke-canadian";
metricRight = "=|ke-canadian";
note = uni1515;
unicode = 5397;
},
{
glyphname = "sh-canadian";
kernLeft = mwestleft;
kernRight = mwestright;
lastChange = "2023-01-13 15:28:15 +0000";
layers = (
{
layerId = "9763B71A-4976-465B-BEF0-2F1E1DB14637";
shapes = (
{
closed = 1;
nodes = (
(583,294,o),
(681,355,o),
(681,465,cs),
(681,553,o),
(620,617,o),
(519,617,cs),
(391,617,o),
(303,509,o),
(220,509,cs),
(183,509,o),
(165,527,o),
(165,556,cs),
(165,599,o),
(210,623,o),
(295,623,c),
(291,724,l),
(147,724,o),
(48,663,o),
(48,553,cs),
(48,465,o),
(109,401,o),
(210,401,cs),
(338,401,o),
(426,509,o),
(509,509,cs),
(546,509,o),
(565,491,o),
(565,462,cs),
(565,419,o),
(519,395,o),
(434,395,c),
(439,294,l)
);
}
);
width = 729;
}
);
metricLeft = "t-canadian";
metricRight = "=|";
note = uni1525;
unicode = 5413;
},
{
glyphname = "ye-canadian";
kernLeft = yeleft;
lastChange = "2023-01-13 15:28:15 +0000";
layers = (
{
anchors = (
{
name = middle_right_can;
pos = (684,357);
},
{
name = top_left_can;
pos = (112,714);
},
{
name = top_right_can;
pos = (454,714);
}
);
layerId = "9763B71A-4976-465B-BEF0-2F1E1DB14637";
shapes = (
{
closed = 1;
nodes = (
(536,0,l),
(536,365,l),
(242,365,l),
(246,286,l),
(558,628,l),
(446,726,l),
(30,262,l),
(30,221,l),
(370,221,l),
(370,0,l)
);
}
);
width = 600;
}
);
note = uni1526;
unicode = 5414;
},
{
glyphname = "yi-canadian";
kernRight = yiright;
lastChange = "2023-01-13 15:28:15 +0000";
layers = (
{
anchors = (
{
name = top_left_can;
pos = (148,714);
},
{
name = top_right_can;
pos = (488,714);
}
);
layerId = "9763B71A-4976-465B-BEF0-2F1E1DB14637";
shapes = (
{
closed = 1;
nodes = (
(231,0,l),
(231,221,l),
(570,221,l),
(570,262,l),
(155,726,l),
(45,629,l),
(356,287,l),
(360,365,l),
(65,365,l),
(65,0,l)
);
}
);
width = 600;
}
);
metricRight = "=|ye-canadian";
metricWidth = "ye-canadian";
note = uni1528;
unicode = 5416;
},
{
glyphname = "yo-canadian";
kernLeft = yoleft;
lastChange = "2023-01-13 15:28:15 +0000";
layers = (
{
anchors = (
{
name = middle_right_can;
pos = (684,357);
},
{
name = top_double;
pos = (453,714);
},
{
name = top_left_can;
pos = (112,714);
},
{
name = top_right_can;
pos = (453,714);
}
);
layerId = "9763B71A-4976-465B-BEF0-2F1E1DB14637";
shapes = (
{
closed = 1;
nodes = (
(556,85,l),
(245,427,l),
(240,349,l),
(536,349,l),
(536,714,l),
(370,714,l),
(370,493,l),
(30,493,l),
(30,452,l),
(446,-12,l)
);
}
);
width = 600;
}
);
metricLeft = "ye-canadian";
metricWidth = "ye-canadian";
note = uni152A;
unicode = 5418;
},
{
glyphname = "ya-canadian";
kernRight = yaright;
lastChange = "2023-01-13 15:28:15 +0000";
layers = (
{
anchors = (
{
name = top_left_can;
pos = (148,714);
},
{
name = top_right_can;
pos = (488,714);
}
);
layerId = "9763B71A-4976-465B-BEF0-2F1E1DB14637";
shapes = (
{
closed = 1;
nodes = (
(570,452,l),
(570,493,l),
(231,493,l),
(231,714,l),
(65,714,l),
(65,349,l),
(358,349,l),
(354,428,l),
(43,86,l),
(155,-12,l)
);
}
);
width = 600;
}
);
metricRight = "=|ye-canadian";
metricWidth = "ye-canadian";
note = uni152D;
unicode = 5421;
},
{
glyphname = "y-canadian";
kernLeft = mwestleft;
kernRight = mwestright;
lastChange = "2023-01-13 15:28:15 +0000";
layers = (
{
layerId = "9763B71A-4976-465B-BEF0-2F1E1DB14637";
shapes = (
{
closed = 1;
nodes = (
(328,575,l),
(328,603,l),
(170,603,l),
(170,714,l),
(57,714,l),
(57,514,l),
(208,514,l),
(207,582,l),
(55,407,l),
(133,347,l)
);
}
);
width = 351;
}
);
note = uni153E;
unicode = 5438;
},
{
glyphname = "biblecreey-canadian";
lastChange = "2023-01-13 15:28:15 +0000";
layers = (
{
layerId = "9763B71A-4976-465B-BEF0-2F1E1DB14637";
shapes = (
{
closed = 1;
nodes = (
(208,602,l),
(145,602,l),
(238,357,l),
(309,357,l),
(402,602,l),
(339,602,l),
(401,357,l),
(501,357,l),
(501,383,l),
(419,714,l),
(343,714,l),
(244,454,l),
(302,454,l),
(203,714,l),
(127,714,l),
(46,383,l),
(46,357,l),
(146,357,l)
);
}
);
width = 547;
}
);
metricRight = "=|";
note = uni153F;
unicode = 5439;
},
{
glyphname = "yWestCree-canadian";
lastChange = "2023-01-13 15:28:15 +0000";
layers = (
{
layerId = "9763B71A-4976-465B-BEF0-2F1E1DB14637";
shapes = (
{
closed = 1;
nodes = (
(279,198,l),
(279,315,l),
(391,315,l),
(391,422,l),
(279,422,l),
(279,535,l),
(168,535,l),
(168,422,l),
(55,422,l),
(55,315,l),
(168,315,l),
(168,198,l)
);
}
);
width = 446;
}
);
metricLeft = "shorthorizontalstrokeFinal-canadian";
metricRight = "shorthorizontalstrokeFinal-canadian";
note = uni1540;
unicode = 5440;
},
{
glyphname = "re-canadian";
kernRight = niright;
lastChange = "2023-01-13 15:30:28 +0000";
layers = (
{
anchors = (
{
name = top_center_can;
pos = (320,529);
},
{
name = top_left_can;
pos = (144,529);
},
{
name = top_right_can;
pos = (753,529);
}
);
layerId = "9763B71A-4976-465B-BEF0-2F1E1DB14637";
shapes = (
{
closed = 1;
nodes = (
(481,-15,o),
(576,89,o),
(576,249,cs),
(576,362,l),
(835,362,l),
(835,509,l),
(414,509,l),
(414,249,ls),
(414,169,o),
(380,128,o),
(320,128,cs),
(260,128,o),
(227,170,o),
(227,249,cs),
(227,509,l),
(61,509,l),
(61,250,ls),
(61,86,o),
(159,-15,o),
(320,-15,cs)
);
}
);
width = 877;
}
);
metricRight = "=|ne-canadian";
note = uni1542;
unicode = 5442;
},
{
glyphname = "reRCree-canadian";
kernLeft = neleft;
lastChange = "2023-01-13 15:30:28 +0000";
layers = (
{
anchors = (
{
name = top_center_can;
pos = (556,529);
},
{
name = top_left_can;
pos = (123,529);
},
{
name = top_right_can;
pos = (733,529);
}
);
layerId = "9763B71A-4976-465B-BEF0-2F1E1DB14637";
shapes = (
{
closed = 1;
nodes = (
(717,-15,o),
(816,86,o),
(816,250,cs),
(816,509,l),
(650,509,l),
(650,249,ls),
(650,170,o),
(616,128,o),
(556,128,cs),
(496,128,o),
(463,167,o),
(463,247,cs),
(463,509,l),
(42,509,l),
(42,362,l),
(301,362,l),
(301,248,ls),
(301,88,o),
(396,-15,o),
(557,-15,cs)
);
}
);
width = 877;
}
);
metricLeft = "ne-canadian";
metricRight = "=|re-canadian";
note = uni1543;
unicode = 5443;
},
{
glyphname = "leWestCree-canadian";
kernLeft = noleft;
lastChange = "2023-01-13 15:30:28 +0000";
layers = (
{
anchors = (
{
name = top_center_can;
pos = (556,529);
},
{
name = top_left_can;
pos = (123,529);
},
{
name = top_right_can;
pos = (733,529);
}
);
layerId = "9763B71A-4976-465B-BEF0-2F1E1DB14637";
shapes = (
{
closed = 1;
nodes = (
(463,0,l),
(463,254,ls),
(463,340,o),
(497,381,o),
(558,381,cs),
(617,381,o),
(650,339,o),
(650,260,cs),
(650,0,l),
(816,0,l),
(816,260,ls),
(816,424,o),
(722,524,o),
(559,524,cs),
(400,524,o),
(301,420,o),
(301,254,cs),
(301,147,l),
(42,147,l),
(42,0,l)
);
}
);
width = 877;
}
);
metricLeft = "ne-canadian";
metricRight = "=|re-canadian";
note = uni1544;
unicode = 5444;
},
{
glyphname = "ri-canadian";
kernRight = naright;
lastChange = "2023-01-13 15:30:28 +0000";
layers = (
{
anchors = (
{
name = top_center_can;
pos = (320,529);
},
{
name = top_left_can;
pos = (144,529);
},
{
name = top_right_can;
pos = (753,529);
}
);
layerId = "9763B71A-4976-465B-BEF0-2F1E1DB14637";
shapes = (
{
closed = 1;
nodes = (
(227,0,l),
(227,260,ls),
(227,339,o),
(260,381,o),
(320,381,cs),
(380,381,o),
(414,342,o),
(414,262,cs),
(414,0,l),
(835,0,l),
(835,147,l),
(576,147,l),
(576,262,ls),
(576,422,o),
(485,524,o),
(321,524,cs),
(162,524,o),
(61,424,o),
(61,257,cs),
(61,0,l)
);
}
);
width = 877;
}
);
metricLeft = "re-canadian";
metricRight = "=|ne-canadian";
note = uni1546;
unicode = 5446;
},
{
glyphname = "ro-canadian";
lastChange = "2023-01-13 15:28:15 +0000";
layers = (
{
anchors = (
{
name = top_center_can;
pos = (255,714);
}
);
layerId = "9763B71A-4976-465B-BEF0-2F1E1DB14637";
shapes = (
{
closed = 1;
nodes = (
(231,0,l),
(231,262,l),
(189,221,l),
(273,221,ls),
(431,221,o),
(533,318,o),
(533,465,cs),
(533,623,o),
(433,714,o),
(248,714,cs),
(65,714,l),
(65,567,l),
(250,567,ls),
(326,567,o),
(368,531,o),
(368,467,cs),
(368,403,o),
(326,367,o),
(250,367,cs),
(65,367,l),
(65,0,l)
);
}
);
width = 577;
}
);
metricLeft = "nunavuth-canadian";
note = uni1548;
unicode = 5448;
},
{
glyphname = "loWestCree-canadian";
lastChange = "2023-01-13 15:28:15 +0000";
layers = (
{
anchors = (
{
name = top_center_can;
pos = (257,714);
},
{
name = top_left_can;
pos = (148,714);
}
);
layerId = "9763B71A-4976-465B-BEF0-2F1E1DB14637";
shapes = (
{
closed = 1;
nodes = (
(248,0,ls),
(433,0,o),
(533,92,o),
(533,249,cs),
(533,397,o),
(431,493,o),
(273,493,cs),
(189,493,l),
(231,452,l),
(231,714,l),
(65,714,l),
(65,348,l),
(250,348,ls),
(326,348,o),
(368,311,o),
(368,247,cs),
(368,183,o),
(326,147,o),
(250,147,cs),
(65,147,l),
(65,0,l)
);
}
);
width = 577;
}
);
metricLeft = "nunavuth-canadian";
metricRight = "ro-canadian";
note = uni154A;
unicode = 5450;
},
{
glyphname = "ra-canadian";
lastChange = "2023-01-13 15:28:15 +0000";
layers = (
{
anchors = (
{
name = top_center_can;
pos = (322,714);
},
{
name = top_right_can;
pos = (430,714);
}
);
layerId = "9763B71A-4976-465B-BEF0-2F1E1DB14637";
shapes = (
{
closed = 1;
nodes = (
(512,0,l),
(512,367,l),
(327,367,ls),
(251,367,o),
(209,403,o),
(209,467,cs),
(209,531,o),
(251,567,o),
(327,567,cs),
(512,567,l),
(512,714,l),
(328,714,ls),
(144,714,o),
(44,623,o),
(44,465,cs),
(44,318,o),
(146,221,o),
(304,221,cs),
(388,221,l),
(346,262,l),
(346,0,l)
);
}
);
width = 577;
}
);
metricLeft = "=|ro-canadian";
metricRight = "nunavuth-canadian";
note = uni154B;
unicode = 5451;
},
{
glyphname = "laWestCree-canadian";
lastChange = "2023-01-13 15:28:15 +0000";
layers = (
{
anchors = (
{
name = top_center_can;
pos = (430,714);
}
);
layerId = "9763B71A-4976-465B-BEF0-2F1E1DB14637";
shapes = (
{
closed = 1;
nodes = (
(512,0,l),
(512,147,l),
(327,147,ls),
(251,147,o),
(209,183,o),
(209,247,cs),
(209,311,o),
(251,348,o),
(327,348,cs),
(512,348,l),
(512,714,l),
(346,714,l),
(346,452,l),
(388,493,l),
(304,493,ls),
(146,493,o),
(44,397,o),
(44,249,cs),
(44,92,o),
(144,0,o),
(328,0,cs)
);
}
);
width = 577;
}
);
metricLeft = "=|ro-canadian";
metricRight = "nunavuth-canadian";
note = uni154D;
unicode = 5453;
},
{
glyphname = "r-canadian";
kernLeft = mwestleft;
kernRight = mwestright;
lastChange = "2023-01-13 15:28:15 +0000";
layers = (
{
layerId = "9763B71A-4976-465B-BEF0-2F1E1DB14637";
shapes = (
{
closed = 1;
nodes = (
(291,357,l),
(291,550,l),
(198,550,ls),
(166,550,o),
(150,563,o),
(150,588,cs),
(150,612,o),
(167,626,o),
(198,626,cs),
(291,626,l),
(291,714,l),
(196,714,ls),
(99,714,o),
(45,668,o),
(45,587,cs),
(45,513,o),
(99,464,o),
(184,464,cs),
(234,464,l),
(178,498,l),
(178.002,357,l)
);
}
);
width = 346;
}
);
metricLeft = "=|k-canadian";
note = uni1550;
unicode = 5456;
},
{
glyphname = "rWestCree-canadian";
kernLeft = mwestleft;
kernRight = mwestright;
lastChange = "2023-01-13 15:28:15 +0000";
layers = (
{
layerId = "9763B71A-4976-465B-BEF0-2F1E1DB14637";
shapes = (
{
closed = 1;
nodes = (
(74,357,l),
(304,453,l),
(304,487,l),
(139,555,l),
(139,515,l),
(304,584,l),
(304,618,l),
(74,714,l),
(55,714,l),
(55,640,l),
(215,571,l),
(215,628,l),
(55,558,l),
(55,513,l),
(215,445,l),
(215,499,l),
(55,430,l),
(55,357,l)
);
}
);
width = 359;
}
);
metricLeft = "=|lWestCree-canadian";
metricRight = "=|lWestCree-canadian";
note = uni1551;
unicode = 5457;
},
{
glyphname = "rMedial-canadian";
lastChange = "2023-01-13 15:30:28 +0000";
layers = (
{
layerId = "9763B71A-4976-465B-BEF0-2F1E1DB14637";
shapes = (
{
closed = 1;
nodes = (
(96,-15,l),
(583,185,l),
(583,239,l),
(233,383,l),
(233,331,l),
(583,475,l),
(583,529,l),
(96,729,l),
(57,729,l),
(57,608,l),
(414,462,l),
(414,536,l),
(57,391,l),
(57,323,l),
(414,178,l),
(414,253,l),
(57,106,l),
(57,-15,l)
);
}
);
width = 640;
}
);
metricLeft = "mediall-canadian";
metricRight = "mediall-canadian";
note = uni1552;
unicode = 5458;
},
{
glyphname = "fe-canadian";
kernLeft = ecanleft;
kernRight = ecanright;
lastChange = "2023-01-13 15:28:15 +0000";
layers = (
{
layerId = "9763B71A-4976-465B-BEF0-2F1E1DB14637";
shapes = (
{
closed = 1;
nodes = (
(413,0,l),
(784,674,l),
(784,714,l),
(642,714,l),
(359,191,l),
(400,191,l),
(297,360,l),
(180,359,l),
(205,329,o),
(234,315,o),
(274,315,cs),
(367,315,o),
(452,400,o),
(452,524,cs),
(452,641,o),
(380,729,o),
(262,729,cs),
(144,729,o),
(71,641,o),
(71,530,cs),
(71,473,o),
(88,420,o),
(127,360,cs),
(364,0,l)
);
},
{
closed = 1;
nodes = (
(227,433,o),
(204,464,o),
(204,524,cs),
(204,582,o),
(228,610,o),
(262,610,cs),
(297,610,o),
(319,584,o),
(319,523,cs),
(319,461,o),
(296,433,o),
(262,433,cs)
);
}
);
width = 809;
}
);
metricRight = "e-canadian";
note = uni1553;
unicode = 5459;
},
{
glyphname = "fi-canadian";
kernLeft = icanleft;
kernRight = icanright;
lastChange = "2023-01-13 15:28:15 +0000";
layers = (
{
anchors = (
{
name = top_center_can;
pos = (391,714);
},
{
name = top_left_can;
pos = (152,714);
},
{
name = top_right_can;
pos = (646,714);
}
);
layerId = "9763B71A-4976-465B-BEF0-2F1E1DB14637";
shapes = (
{
closed = 1;
nodes = (
(380,-15,o),
(452,73,o),
(452,190,cs),
(452,314,o),
(367,399,o),
(274,399,cs),
(234,399,o),
(205,385,o),
(180,355,c),
(297,354,l),
(400,523,l),
(359,523,l),
(642,0,l),
(784,0,l),
(784,40,l),
(413,714,l),
(364,714,l),
(126,352,ls),
(87,293,o),
(71,241,o),
(71,184,cs),
(71,73,o),
(144,-15,o),
(262,-15,cs)
);
},
{
closed = 1;
nodes = (
(228,104,o),
(204,132,o),
(204,190,cs),
(204,250,o),
(227,281,o),
(262,281,cs),
(296,281,o),
(319,253,o),
(319,191,cs),
(319,130,o),
(297,104,o),
(262,104,cs)
);
}
);
width = 809;
}
);
metricLeft = "fe-canadian";
metricRight = "e-canadian";
note = uni1555;
unicode = 5461;
},
{
glyphname = "fo-canadian";
kernLeft = ocanleft;
kernRight = ocanright;
lastChange = "2023-01-13 15:30:28 +0000";
layers = (
{
anchors = (
{
name = top_center_can;
pos = (236,714);
}
);
layerId = "9763B71A-4976-465B-BEF0-2F1E1DB14637";
shapes = (
{
closed = 1;
nodes = (
(119,0,l),
(670,332,l),
(670,381,l),
(372,670,ls),
(329,713,o),
(281,729,o),
(234,729,cs),
(130,729,o),
(44,652,o),
(44,519,cs),
(44,399,o),
(118,313,o),
(230,313,cs),
(341,313,o),
(412,400,o),
(412,519,cs),
(412,545,o),
(402,590,o),
(390,618,c),
(341,514,l),
(505,357,l),
(505,392,l),
(80,139,l),
(80,0,l)
);
},
{
closed = 1;
nodes = (
(200,433,o),
(177,460,o),
(177,521,cs),
(177,582,o),
(200,610,o),
(235,610,cs),
(270,610,o),
(291,585,o),
(291,523,cs),
(291,461,o),
(269,433,o),
(234,433,cs)
);
}
);
width = 698;
}
);
metricRight = "o-canadian";
note = uni1557;
unicode = 5463;
},
{
glyphname = "fa-canadian";
kernLeft = acanleft;
kernRight = acanright;
lastChange = "2023-01-13 15:28:15 +0000";
layers = (
{
anchors = (
{
name = top_center_can;
pos = (464,714);
}
);
layerId = "9763B71A-4976-465B-BEF0-2F1E1DB14637";
shapes = (
{
closed = 1;
nodes = (
(619,0,l),
(619,137,l),
(194,390,l),
(194,361,l),
(358,518,l),
(309,618,l),
(297,590,o),
(287,545,o),
(287,519,cs),
(287,400,o),
(358,313,o),
(469,313,cs),
(581,313,o),
(655,399,o),
(655,519,cs),
(655,652,o),
(569,729,o),
(465,729,cs),
(418,729,o),
(370,713,o),
(327,670,cs),
(29,381,l),
(29,332,l),
(580,0,l)
);
},
{
closed = 1;
nodes = (
(430,432,o),
(408,461,o),
(408,522,cs),
(408,584,o),
(429,609,o),
(464,609,cs),
(499,609,o),
(522,582,o),
(522,521,cs),
(522,459,o),
(499,432,o),
(465,432,cs)
);
}
);
width = 699;
}
);
metricRight = "=|fo-canadian";
note = uni1559;
unicode = 5465;
},
{
glyphname = "f-canadian";
kernLeft = mwestleft;
kernRight = mwestright;
lastChange = "2023-01-13 15:28:15 +0000";
layers = (
{
layerId = "9763B71A-4976-465B-BEF0-2F1E1DB14637";
shapes = (
{
closed = 1;
nodes = (
(342,357,l),
(342,425,l),
(131,549,l),
(131,536,l),
(209,614,l),
(189,664,l),
(182,651,o),
(177,627,o),
(177,612,cs),
(177,552,o),
(216,512,o),
(268,512,cs),
(322,512,o),
(359,552,o),
(359,615,cs),
(359,688,o),
(313,720,o),
(265,720,cs),
(243,720,o),
(214,710,o),
(191,688,cs),
(46,546,l),
(46,521,l),
(322,357,l)
);
},
{
closed = 1;
nodes = (
(249,572,o),
(238,586,o),
(238,615,cs),
(238,647,o),
(249,660,o),
(266,660,cs),
(283,660,o),
(294,646,o),
(294,615,cs),
(294,586,o),
(283,572,o),
(267,572,cs)
);
}
);
width = 408;
}
);
note = uni155D;
unicode = 5469;
},
{
glyphname = "the-canadian";
lastChange = "2023-01-13 15:30:28 +0000";
layers = (
{
anchors = (
{
name = middle_right_can;
pos = (854,357);
},
{
name = top_center_can;
pos = (380,714);
},
{
name = top_left_can;
pos = (138,714);
},
{
name = top_right_can;
pos = (620,714);
}
);
layerId = "9763B71A-4976-465B-BEF0-2F1E1DB14637";
shapes = (
{
closed = 1;
nodes = (
(583,-15,o),
(703,108,o),
(703,320,cs),
(703,714,l),
(536,714,l),
(536,315,ls),
(536,194,o),
(482,132,o),
(379,132,cs),
(280,132,o),
(222,185,o),
(222,301,cs),
(222,412,l),
(160,358,l),
(182,322,o),
(219,302,o),
(263,302,cs),
(369,302,o),
(439,387,o),
(439,515,cs),
(439,642,o),
(371,729,o),
(253,729,cs),
(129,729,o),
(58,639,o),
(58,476,cs),
(58,348,ls),
(58,107,o),
(176,-15,o),
(380,-15,cs)
);
},
{
closed = 1;
nodes = (
(212,421,o),
(191,449,o),
(191,515,cs),
(191,581,o),
(213,609,o),
(248,609,cs),
(283,609,o),
(305,581,o),
(305,517,cs),
(305,452,o),
(283,421,o),
(247,421,cs)
);
}
);
width = 761;
}
);
metricLeft = "te-canadian";
metricRight = "te-canadian";
note = uni155E;
unicode = 5470;
},
{
glyphname = "theNCree-canadian";
lastChange = "2023-01-13 15:30:28 +0000";
layers = (
{
layerId = "9763B71A-4976-465B-BEF0-2F1E1DB14637";
shapes = (
{
closed = 1;
nodes = (
(587,-15,o),
(703,108,o),
(703,343,cs),
(703,476,ls),
(703,639,o),
(631,729,o),
(507,729,cs),
(389,729,o),
(321,642,o),
(321,515,cs),
(321,387,o),
(392,302,o),
(497,302,cs),
(541,302,o),
(578,322,o),
(600,358,c),
(538,412,l),
(538,300,ls),
(538,183,o),
(481,131,o),
(382,131,cs),
(278,131,o),
(224,195,o),
(224,315,cs),
(224,714,l),
(58,714,l),
(58,319,ls),
(58,106,o),
(175,-15,o),
(380,-15,cs)
);
},
{
closed = 1;
nodes = (
(477,421,o),
(455,453,o),
(455,517,cs),
(455,581,o),
(477,610,o),
(512,610,cs),
(547,610,o),
(569,581,o),
(569,515,cs),
(569,450,o),
(548,421,o),
(513,421,cs)
);
}
);
width = 761;
}
);
metricLeft = "te-canadian";
metricRight = "te-canadian";
note = uni155F;
unicode = 5471;
},
{
glyphname = "thi-canadian";
lastChange = "2023-01-13 15:30:28 +0000";
layers = (
{
anchors = (
{
name = top_center_can;
pos = (376,714);
}
);
layerId = "9763B71A-4976-465B-BEF0-2F1E1DB14637";
shapes = (
{
closed = 1;
nodes = (
(371,-15,o),
(439,72,o),
(439,199,cs),
(439,327,o),
(369,412,o),
(263,412,cs),
(219,412,o),
(182,392,o),
(160,356,c),
(222,302,l),
(222,414,ls),
(222,531,o),
(279,583,o),
(379,583,cs),
(482,583,o),
(536,519,o),
(536,399,cs),
(536,0,l),
(703,0,l),
(703,395,ls),
(703,608,o),
(585,729,o),
(380,729,cs),
(173,729,o),
(58,606,o),
(58,371,cs),
(58,238,ls),
(58,75,o),
(129,-15,o),
(253,-15,cs)
);
},
{
closed = 1;
nodes = (
(213,104,o),
(191,133,o),
(191,199,cs),
(191,264,o),
(212,293,o),
(247,293,cs),
(283,293,o),
(305,261,o),
(305,197,cs),
(305,133,o),
(283,104,o),
(248,104,cs)
);
}
);
width = 761;
}
);
metricLeft = "te-canadian";
metricRight = "te-canadian";
note = uni1560;
unicode = 5472;
},
{
glyphname = "thiNCree-canadian";
lastChange = "2023-01-13 15:30:28 +0000";
layers = (
{
anchors = (
{
name = top_center_can;
pos = (376,714);
}
);
layerId = "9763B71A-4976-465B-BEF0-2F1E1DB14637";
shapes = (
{
closed = 1;
nodes = (
(631,-15,o),
(703,75,o),
(703,238,cs),
(703,371,ls),
(703,606,o),
(587,729,o),
(380,729,cs),
(175,729,o),
(58,608,o),
(58,395,cs),
(58,0,l),
(224,0,l),
(224,399,ls),
(224,519,o),
(278,583,o),
(382,583,cs),
(481,583,o),
(538,531,o),
(538,414,cs),
(538,302,l),
(600,356,l),
(578,392,o),
(541,412,o),
(497,412,cs),
(392,412,o),
(321,327,o),
(321,199,cs),
(321,72,o),
(389,-15,o),
(507,-15,cs)
);
},
{
closed = 1;
nodes = (
(477,104,o),
(455,133,o),
(455,197,cs),
(455,261,o),
(477,293,o),
(513,293,cs),
(548,293,o),
(569,264,o),
(569,199,cs),
(569,133,o),
(547,104,o),
(512,104,cs)
);
}
);
width = 761;
}
);
metricLeft = "te-canadian";
metricRight = "te-canadian";
note = uni1561;
unicode = 5473;
},
{
glyphname = "tho-canadian";
lastChange = "2023-01-13 15:28:15 +0000";
layers = (
{
anchors = (
{
name = top_center_can;
pos = (313,714);
}
);
layerId = "9763B71A-4976-465B-BEF0-2F1E1DB14637";
shapes = (
{
closed = 1;
nodes = (
(292,0,ls),
(520,0,o),
(650,128,o),
(650,362,cs),
(650,586,o),
(513,729,o),
(316,729,cs),
(149,729,o),
(51,629,o),
(51,489,cs),
(51,363,o),
(127,279,o),
(242,279,cs),
(355,279,o),
(422,356,o),
(422,472,cs),
(422,561,o),
(377,646,o),
(273,655,c),
(249,605,l),
(258,609,o),
(279,612,o),
(292,612,cs),
(415,612,o),
(487,518,o),
(487,373,cs),
(487,218,o),
(415,149,o),
(282,149,cs),
(85,149,l),
(85,0,l)
);
},
{
closed = 1;
nodes = (
(207,398,o),
(185,426,o),
(185,495,cs),
(185,563,o),
(208,592,o),
(241,592,cs),
(275,592,o),
(299,562,o),
(299,494,cs),
(299,427,o),
(277,398,o),
(242,398,cs)
);
}
);
width = 702;
}
);
metricRight = "to-canadian";
note = uni1564;
unicode = 5476;
},
{
glyphname = "tha-canadian";
lastChange = "2023-01-13 15:30:29 +0000";
layers = (
{
anchors = (
{
name = top_center_can;
pos = (393,714);
}
);
layerId = "9763B71A-4976-465B-BEF0-2F1E1DB14637";
shapes = (
{
closed = 1;
nodes = (
(617,0,l),
(617,149,l),
(420,149,ls),
(287,149,o),
(216,217,o),
(216,372,cs),
(216,518,o),
(287,612,o),
(411,612,cs),
(423,612,o),
(444,609,o),
(453,605,c),
(429,655,l),
(326,646,o),
(280,561,o),
(280,472,cs),
(280,356,o),
(349,279,o),
(460,279,cs),
(575,279,o),
(651,364,o),
(651,489,cs),
(651,630,o),
(552,729,o),
(389,729,cs),
(190,729,o),
(52,586,o),
(52,362,cs),
(52,130,o),
(180,0,o),
(410,0,cs)
);
},
{
closed = 1;
nodes = (
(425,398,o),
(403,427,o),
(403,494,cs),
(403,562,o),
(427,592,o),
(461,592,cs),
(494,592,o),
(518,563,o),
(518,495,cs),
(518,426,o),
(495,398,o),
(461,398,cs)
);
}
);
width = 702;
}
);
metricLeft = "=|theCarrier-canadian";
metricRight = "=|tho-canadian";
note = uni1566;
unicode = 5478;
},
{
glyphname = "th-canadian";
kernLeft = mwestleft;
kernRight = mwestright;
lastChange = "2023-01-13 15:28:15 +0000";
layers = (
{
layerId = "9763B71A-4976-465B-BEF0-2F1E1DB14637";
shapes = (
{
closed = 1;
nodes = (
(329,357,l),
(329,447,l),
(243,447,ls),
(176,447,o),
(143,476,o),
(143,543,cs),
(143,611,o),
(179,656,o),
(242,656,cs),
(248,656,o),
(257,655,o),
(261,654,c),
(235,680,l),
(189,676,o),
(165,639,o),
(165,598,cs),
(165,535,o),
(203,495,o),
(256,495,cs),
(309,495,o),
(346,535,o),
(346,599,cs),
(346,675,o),
(295,720,o),
(218,720,cs),
(119,720,o),
(48,650,o),
(48,535,cs),
(48,424,o),
(113,357,o),
(236,357,cs)
);
},
{
closed = 1;
nodes = (
(237,554,o),
(226,569,o),
(226,598,cs),
(226,629,o),
(237,642,o),
(254,642,cs),
(270,642,o),
(282,628,o),
(282,597,cs),
(282,568,o),
(271,554,o),
(254,554,cs)
);
}
);
width = 396;
}
);
metricLeft = "t-canadian";
note = uni156A;
unicode = 5482;
},
{
glyphname = "tthe-canadian";
lastChange = "2023-01-13 15:28:15 +0000";
layers = (
{
anchors = (
{
name = middle_right_can;
pos = (844,357);
},
{
name = top_center_can;
pos = (375,714);
},
{
name = top_left_can;
pos = (141,714);
},
{
name = top_right_can;
pos = (611,714);
}
);
layerId = "9763B71A-4976-465B-BEF0-2F1E1DB14637";
shapes = (
{
closed = 1;
nodes = (
(576,-15,o),
(693,108,o),
(693,320,cs),
(693,714,l),
(531,714,l),
(531,319,ls),
(531,195,o),
(475,135,o),
(375,135,cs),
(278,135,o),
(219,199,o),
(219,319,cs),
(219,714,l),
(58,714,l),
(58,319,ls),
(58,106,o),
(175,-15,o),
(376,-15,cs)
);
},
{
closed = 1;
nodes = (
(442,393,l),
(442,714,l),
(309,714,l),
(309,393,l)
);
}
);
width = 751;
}
);
metricLeft = "te-canadian";
metricRight = "te-canadian";
note = uni156B;
unicode = 5483;
},
{
glyphname = "tthi-canadian";
lastChange = "2023-01-13 15:28:15 +0000";
layers = (
{
layerId = "9763B71A-4976-465B-BEF0-2F1E1DB14637";
shapes = (
{
closed = 1;
nodes = (
(219,0,l),
(219,395,ls),
(219,516,o),
(281,579,o),
(378,579,cs),
(474,579,o),
(531,515,o),
(531,395,cs),
(531,0,l),
(693,0,l),
(693,395,ls),
(693,607,o),
(576,729,o),
(381,729,cs),
(179,729,o),
(58,607,o),
(58,395,cs),
(58,0,l)
);
},
{
closed = 1;
nodes = (
(442,0,l),
(442,321,l),
(309,321,l),
(309,0,l)
);
}
);
width = 751;
}
);
metricLeft = "te-canadian";
metricRight = "te-canadian";
note = uni156C;
unicode = 5484;
},
{
glyphname = "ttho-canadian";
lastChange = "2023-01-13 15:30:28 +0000";
layers = (
{
anchors = (
{
name = top_center_can;
pos = (328,714);
},
{
name = top_left_can;
pos = (141,714);
},
{
name = top_right_can;
pos = (514,714);
}
);
layerId = "9763B71A-4976-465B-BEF0-2F1E1DB14637";
shapes = (
{
closed = 1;
nodes = (
(234,0,ls),
(463,0,o),
(596,129,o),
(596,358,cs),
(596,587,o),
(463,714,o),
(234,714,cs),
(58,714,l),
(58,565,l),
(226,565,ls),
(354,565,o),
(430,499,o),
(430,358,cs),
(430,217,o),
(354,149,o),
(227,149,cs),
(58,149,l),
(58,0,l)
);
},
{
closed = 1;
nodes = (
(306,290,l),
(306,426,l),
(58,426,l),
(58,290,l)
);
}
);
width = 648;
}
);
metricRight = "to-canadian";
note = uni156D;
unicode = 5485;
},
{
glyphname = "ttha-canadian";
lastChange = "2023-01-13 15:30:28 +0000";
layers = (
{
anchors = (
{
name = top_center_can;
pos = (323,714);
},
{
name = top_left_can;
pos = (135,714);
},
{
name = top_right_can;
pos = (508,714);
}
);
layerId = "9763B71A-4976-465B-BEF0-2F1E1DB14637";
shapes = (
{
closed = 1;
nodes = (
(590,0,l),
(590,149,l),
(422,149,ls),
(294,149,o),
(219,216,o),
(219,357,cs),
(219,498,o),
(294,565,o),
(422,565,cs),
(590,565,l),
(590,714,l),
(415,714,ls),
(186,714,o),
(52,586,o),
(52,357,cs),
(52,128,o),
(186,0,o),
(414,0,cs)
);
},
{
closed = 1;
nodes = (
(590,290,l),
(590,426,l),
(343,426,l),
(343,290,l)
);
}
);
width = 648;
}
);
metricLeft = "=|to-canadian";
metricRight = "=|ttho-canadian";
note = uni156E;
unicode = 5486;
},
{
glyphname = "tth-canadian";
lastChange = "2023-01-13 15:28:15 +0000";
layers = (
{
layerId = "9763B71A-4976-465B-BEF0-2F1E1DB14637";
shapes = (
{
closed = 1;
nodes = (
(672,476,l),
(629,476,l),
(722,344,l),
(798,400,l),
(704,530,l),
(690,488,l),
(839,539,l),
(809,627,l),
(661,575,l),
(698,550,l),
(698,714,l),
(603,714,l),
(603,550,l),
(640,575,l),
(492,627,l),
(462,539,l),
(611,488,l),
(597,530,l),
(503,400,l),
(579,344,l)
);
},
{
closed = 1;
nodes = (
(243,476,l),
(200,476,l),
(293,344,l),
(370,400,l),
(275,530,l),
(262,488,l),
(410,539,l),
(380,627,l),
(232,575,l),
(269,550,l),
(269,714,l),
(174,714,l),
(174,550,l),
(211,575,l),
(64,627,l),
(33,539,l),
(182,488,l),
(168,530,l),
(73,400,l),
(150,344,l)
);
}
);
width = 872;
}
);
metricRight = "=|";
note = uni156F;
unicode = 5487;
},
{
glyphname = "tye-canadian";
lastChange = "2023-01-13 15:28:15 +0000";
layers = (
{
layerId = "9763B71A-4976-465B-BEF0-2F1E1DB14637";
shapes = (
{
closed = 1;
nodes = (
(576,-15,o),
(693,108,o),
(693,320,cs),
(693,714,l),
(533,714,l),
(533,323,ls),
(533,195,o),
(475,135,o),
(375,135,cs),
(278,135,o),
(218,199,o),
(218,323,cs),
(218,714,l),
(58,714,l),
(58,319,ls),
(58,106,o),
(175,-15,o),
(376,-15,cs)
);
},
{
closed = 1;
nodes = (
(447,424,o),
(486,470,o),
(486,542,cs),
(486,714,l),
(409,714,l),
(409,546,ls),
(409,518,o),
(399,503,o),
(375,503,cs),
(353,503,o),
(341,518,o),
(341,546,cs),
(341,714,l),
(265,714,l),
(265,542,ls),
(265,468,o),
(306,424,o),
(376,424,cs)
);
}
);
width = 751;
}
);
metricLeft = "te-canadian";
metricRight = "te-canadian";
note = uni1570;
unicode = 5488;
},
{
glyphname = "tyi-canadian";
lastChange = "2023-01-13 15:28:15 +0000";
layers = (
{
layerId = "9763B71A-4976-465B-BEF0-2F1E1DB14637";
shapes = (
{
closed = 1;
nodes = (
(219,0,l),
(219,391,ls),
(219,516,o),
(281,579,o),
(378,579,cs),
(474,579,o),
(532,515,o),
(532,391,cs),
(532,0,l),
(693,0,l),
(693,395,ls),
(693,607,o),
(576,729,o),
(381,729,cs),
(179,729,o),
(58,607,o),
(58,395,cs),
(58,0,l)
);
},
{
closed = 1;
nodes = (
(341,0,l),
(341,167,ls),
(341,196,o),
(352,211,o),
(375,211,cs),
(398,211,o),
(409,196,o),
(409,167,cs),
(409,0,l),
(486,0,l),
(486,172,ls),
(486,246,o),
(445,290,o),
(375,290,cs),
(304,290,o),
(265,244,o),
(265,172,cs),
(265,0,l)
);
}
);
width = 751;
}
);
metricLeft = "te-canadian";
metricRight = "te-canadian";
note = uni1571;
unicode = 5489;
},
{
glyphname = "tyo-canadian";
lastChange = "2023-01-13 15:30:29 +0000";
layers = (
{
layerId = "9763B71A-4976-465B-BEF0-2F1E1DB14637";
shapes = (
{
closed = 1;
nodes = (
(241,0,ls),
(466,0,o),
(602,129,o),
(602,358,cs),
(602,587,o),
(466,714,o),
(240,714,cs),
(65,714,l),
(65,568,l),
(227,568,ls),
(360,568,o),
(436,500,o),
(436,358,cs),
(436,216,o),
(360,146,o),
(227,146,cs),
(65,146,l),
(65,0,l)
);
},
{
closed = 1;
nodes = (
(164,226,ls),
(250,226,o),
(300,274,o),
(300,357,cs),
(300,440,o),
(250,488,o),
(164,488,cs),
(65,488,l),
(65,407,l),
(153,407,ls),
(193,407,o),
(211,390,o),
(211,357,cs),
(211,324,o),
(193,307,o),
(153,307,cs),
(65,307,l),
(65,226,l)
);
}
);
width = 654;
}
);
metricLeft = "nunavuth-canadian";
metricRight = "theCarrier-canadian";
note = uni1572;
unicode = 5490;
},
{
glyphname = "tya-canadian";
lastChange = "2023-01-13 15:30:29 +0000";
layers = (
{
layerId = "9763B71A-4976-465B-BEF0-2F1E1DB14637";
shapes = (
{
closed = 1;
nodes = (
(590,0,l),
(590,146,l),
(428,146,ls),
(295,146,o),
(219,215,o),
(219,357,cs),
(219,499,o),
(295,568,o),
(428,568,cs),
(590,568,l),
(590,714,l),
(415,714,ls),
(188,714,o),
(52,586,o),
(52,357,cs),
(52,128,o),
(188,0,o),
(414,0,cs)
);
},
{
closed = 1;
nodes = (
(590,226,l),
(590,307,l),
(502,307,ls),
(462,307,o),
(444,324,o),
(444,357,cs),
(444,390,o),
(462,407,o),
(502,407,cs),
(590,407,l),
(590,488,l),
(491,488,ls),
(405,488,o),
(354,440,o),
(354,357,cs),
(354,274,o),
(405,226,o),
(491,226,cs)
);
}
);
width = 655;
}
);
metricLeft = "=|theCarrier-canadian";
metricRight = "nunavuth-canadian";
note = uni1573;
unicode = 5491;
},
{
glyphname = "heNunavik-canadian";
lastChange = "2023-01-13 15:28:15 +0000";
layers = (
{
layerId = "9763B71A-4976-465B-BEF0-2F1E1DB14637";
shapes = (
{
closed = 1;
nodes = (
(539,0,l),
(789,208,l),
(699,320,l),
(452,117,l),
(557,109,l),
(557,450,ls),
(557,623,o),
(462,729,o),
(304,729,cs),
(146,729,o),
(43,622,o),
(43,455,cs),
(43,296,o),
(139,190,o),
(276,190,cs),
(343,190,o),
(393,222,o),
(404,256,c),
(392,269,l),
(392,0,l)
);
},
{
closed = 1;
nodes = (
(244,330,o),
(206,373,o),
(206,459,cs),
(206,546,o),
(241,589,o),
(300,589,cs),
(358,589,o),
(394,546,o),
(394,459,cs),
(394,373,o),
(355,330,o),
(300,330,cs)
);
}
);
width = 808;
}
);
metricLeft = "ke-canadian";
note = uni1574;
unicode = 5492;
},
{
glyphname = "hiNunavik-canadian";
lastChange = "2023-01-13 15:30:28 +0000";
layers = (
{
anchors = (
{
name = top_center_can;
pos = (509,714);
}
);
layerId = "9763B71A-4976-465B-BEF0-2F1E1DB14637";
shapes = (
{
closed = 1;
nodes = (
(416,0,l),
(416,269,l),
(405,256,l),
(415,222,o),
(465,190,o),
(532,190,cs),
(669,190,o),
(766,297,o),
(766,458,cs),
(766,624,o),
(663,729,o),
(509,729,cs),
(351,729,o),
(252,623,o),
(252,450,cs),
(252,121,l),
(356,117,l),
(110,320,l),
(19,208,l),
(270,0,l)
);
},
{
closed = 1;
nodes = (
(453,330,o),
(414,373,o),
(414,459,cs),
(414,546,o),
(451,589,o),
(509,589,cs),
(567,589,o),
(603,546,o),
(603,459,cs),
(603,373,o),
(564,330,o),
(509,330,cs)
);
}
);
width = 809;
}
);
metricLeft = "=|heNunavik-canadian";
metricRight = "=|ke-canadian";
note = uni1575;
unicode = 5493;
},
{
glyphname = "hoNunavik-canadian";
lastChange = "2023-01-13 15:28:15 +0000";
layers = (
{
anchors = (
{
name = top_center_can;
pos = (299,714);
},
{
name = top_right_can;
pos = (475,714);
}
);
layerId = "9763B71A-4976-465B-BEF0-2F1E1DB14637";
shapes = (
{
closed = 1;
nodes = (
(462,-15,o),
(557,91,o),
(557,264,cs),
(557,605,l),
(452,597,l),
(699,394,l),
(789,506,l),
(539,714,l),
(392,714,l),
(392,445,l),
(404,458,l),
(393,492,o),
(343,524,o),
(278,524,cs),
(139,524,o),
(43,415,o),
(43,254,cs),
(43,89,o),
(142,-15,o),
(300,-15,cs)
);
},
{
closed = 1;
nodes = (
(241,125,o),
(206,168,o),
(206,255,cs),
(206,341,o),
(244,384,o),
(300,384,cs),
(355,384,o),
(394,341,o),
(394,255,cs),
(394,168,o),
(358,125,o),
(300,125,cs)
);
}
);
width = 808;
}
);
metricLeft = "ke-canadian";
metricRight = "heNunavik-canadian";
note = uni1577;
unicode = 5495;
},
{
glyphname = "haNunavik-canadian";
lastChange = "2023-01-13 15:30:28 +0000";
layers = (
{
anchors = (
{
name = top_center_can;
pos = (509,714);
},
{
name = top_left_can;
pos = (334,714);
}
);
layerId = "9763B71A-4976-465B-BEF0-2F1E1DB14637";
shapes = (
{
closed = 1;
nodes = (
(661,-15,o),
(766,90,o),
(766,257,cs),
(766,417,o),
(669,524,o),
(536,524,cs),
(468,524,o),
(418,492,o),
(405,458,c),
(416,445,l),
(416,714,l),
(270,714,l),
(19,506,l),
(110,394,l),
(356,597,l),
(252,593,l),
(252,264,ls),
(252,91,o),
(346,-15,o),
(507,-15,cs)
);
},
{
closed = 1;
nodes = (
(451,125,o),
(414,168,o),
(414,255,cs),
(414,341,o),
(453,384,o),
(509,384,cs),
(564,384,o),
(603,341,o),
(603,255,cs),
(603,168,o),
(567,125,o),
(509,125,cs)
);
}
);
width = 809;
}
);
metricLeft = "=|heNunavik-canadian";
metricRight = "=|ke-canadian";
note = uni1579;
unicode = 5497;
},
{
glyphname = "hNunavik-canadian";
kernLeft = mwestleft;
kernRight = mwestright;
lastChange = "2023-01-13 15:30:28 +0000";
layers = (
{
layerId = "9763B71A-4976-465B-BEF0-2F1E1DB14637";
shapes = (
{
closed = 1;
nodes = (
(377,351,o),
(439,400,o),
(439,489,cs),
(439,571,o),
(387,622,o),
(319,622,cs),
(279,622,o),
(250,601,o),
(242,575,c),
(264,575,l),
(264,714,l),
(159,714,l),
(35,610,l),
(86,548,l),
(210,652,l),
(151,657,l),
(151,492,ls),
(151,408,o),
(206,351,o),
(299,351,cs)
);
},
{
closed = 1;
nodes = (
(271,431,o),
(254,449,o),
(254,486,cs),
(254,524,o),
(273,542,o),
(296,542,cs),
(321,542,o),
(340,524,o),
(340,486,cs),
(340,449,o),
(321,431,o),
(296,431,cs)
);
}
);
width = 484;
}
);
metricRight = "k-canadian";
note = uni157B;
unicode = 5499;
},
{
color = 4;
glyphname = "nunavuth-canadian";
lastChange = "2023-01-13 15:28:15 +0000";
layers = (
{
layerId = "9763B71A-4976-465B-BEF0-2F1E1DB14637";
shapes = (
{
closed = 1;
nodes = (
(231,295,l),
(502,295,l),
(502.006,0,l),
(668,0,l),
(668,714,l),
(502.006,714,l),
(502,441,l),
(231,441,l),
(231,714,l),
(65,714,l),
(65,0,l),
(231,0,l)
);
}
);
width = 733;
}
);
metricRight = "=|";
note = uni157C;
unicode = 5500;
},
{
glyphname = "tlhe-canadian";
lastChange = "2023-01-13 15:28:15 +0000";
layers = (
{
anchors = (
{
name = top_center_can;
pos = (318,714);
}
);
layerId = "9763B71A-4976-465B-BEF0-2F1E1DB14637";
shapes = (
{
closed = 1;
nodes = (
(237,0,l),
(371,284,l),
(246,227,l),
(260,223,o),
(275,222,o),
(291,222,cs),
(359,222,o),
(410,252,o),
(421,281,c),
(411,340,l),
(411,0,l),
(575,0,l),
(575,459,ls),
(575,628,o),
(481,729,o),
(319,729,cs),
(147,729,o),
(54,616,o),
(54,472,cs),
(54,367,o),
(102,288,o),
(180,251,c),
(61,0,l)
);
},
{
closed = 1;
nodes = (
(254,362,o),
(216,401,o),
(216,474,cs),
(216,549,o),
(253,589,o),
(315,589,cs),
(376,589,o),
(413,549,o),
(413,475,cs),
(413,401,o),
(375,362,o),
(315,362,cs)
);
}
);
width = 633;
}
);
metricRight = "te-canadian";
note = uni1586;
unicode = 5510;
},
{
glyphname = "tlhi-canadian";
lastChange = "2023-01-13 15:28:15 +0000";
layers = (
{
layerId = "9763B71A-4976-465B-BEF0-2F1E1DB14637";
shapes = (
{
closed = 1;
nodes = (
(222,0,l),
(222,340,l),
(210,289,l),
(211,258,o),
(266,222,o),
(342,222,c),
(262,284,l),
(397,0,l),
(572,0,l),
(453,251,l),
(531,288,o),
(579,367,o),
(579,472,cs),
(579,616,o),
(487,729,o),
(315,729,cs),
(152,729,o),
(58,628,o),
(58,459,cs),
(58,0,l)
);
},
{
closed = 1;
nodes = (
(259,362,o),
(220,401,o),
(220,475,cs),
(220,549,o),
(258,589,o),
(319,589,cs),
(380,589,o),
(417,549,o),
(417,474,cs),
(417,401,o),
(379,362,o),
(319,362,cs)
);
}
);
width = 633;
}
);
metricLeft = "te-canadian";
metricRight = "=|tlhe-canadian";
note = uni1587;
unicode = 5511;
},
{
glyphname = "tlho-canadian";
lastChange = "2023-01-13 15:28:15 +0000";
layers = (
{
anchors = (
{
name = top_center_can;
pos = (326,714);
}
);
layerId = "9763B71A-4976-465B-BEF0-2F1E1DB14637";
shapes = (
{
closed = 1;
nodes = (
(481,-15,o),
(575,86,o),
(575,255,cs),
(575,714,l),
(411,714,l),
(411,374,l),
(423,425,l),
(422,456,o),
(367,492,o),
(291,492,c),
(371,430,l),
(237,714,l),
(61,714,l),
(180,463,l),
(102,426,o),
(54,347,o),
(54,242,cs),
(54,98,o),
(147,-15,o),
(319,-15,cs)
);
},
{
closed = 1;
nodes = (
(253,125,o),
(216,165,o),
(216,240,cs),
(216,313,o),
(254,352,o),
(315,352,cs),
(375,352,o),
(413,313,o),
(413,239,cs),
(413,165,o),
(376,125,o),
(315,125,cs)
);
}
);
width = 633;
}
);
metricLeft = "tlhe-canadian";
metricRight = "te-canadian";
note = uni1588;
unicode = 5512;
},
{
glyphname = "tlha-canadian";
lastChange = "2023-01-13 15:28:15 +0000";
layers = (
{
layerId = "9763B71A-4976-465B-BEF0-2F1E1DB14637";
shapes = (
{
closed = 1;
nodes = (
(487,-15,o),
(579,98,o),
(579,242,cs),
(579,347,o),
(531,426,o),
(453,463,c),
(572,714,l),
(397,714,l),
(262,430,l),
(387,487,l),
(373,491,o),
(358,492,o),
(342,492,cs),
(266,492,o),
(211,456,o),
(210,425,c),
(222,374,l),
(222,714,l),
(58,714,l),
(58,255,ls),
(58,86,o),
(152,-15,o),
(315,-15,cs)
);
},
{
closed = 1;
nodes = (
(258,125,o),
(220,165,o),
(220,239,cs),
(220,313,o),
(259,352,o),
(319,352,cs),
(379,352,o),
(417,313,o),
(417,240,cs),
(417,165,o),
(380,125,o),
(319,125,cs)
);
}
);
width = 633;
}
);
metricLeft = "te-canadian";
note = uni1589;
unicode = 5513;
},
{
glyphname = "reWestCree-canadian";
lastChange = "2023-01-13 15:28:15 +0000";
layers = (
{
layerId = "9763B71A-4976-465B-BEF0-2F1E1DB14637";
shapes = (
{
closed = 1;
nodes = (
(529,0,l),
(780,208,l),
(689,320,l),
(443,117,l),
(547,109,l),
(547,454,ls),
(547,629,o),
(456,729,o),
(299,729,cs),
(139,729,o),
(42,628,o),
(42,453,cs),
(42,393,l),
(206,393,l),
(206,470,ls),
(206,545,o),
(238,585,o),
(295,585,cs),
(351,585,o),
(383,546,o),
(383,469,cs),
(383,0,l)
);
}
);
width = 799;
}
);
metricLeft = "ce-canadian";
metricRight = "heNunavik-canadian";
note = uni158A;
unicode = 5514;
},
{
glyphname = "riWestCree-canadian";
lastChange = "2023-01-13 15:28:15 +0000";
layers = (
{
layerId = "9763B71A-4976-465B-BEF0-2F1E1DB14637";
shapes = (
{
closed = 1;
nodes = (
(416,0,l),
(416,469,ls),
(416,546,o),
(450,585,o),
(506,585,cs),
(564,585,o),
(593,546,o),
(593,470,cs),
(593,393,l),
(757,393,l),
(757,453,ls),
(757,628,o),
(665,729,o),
(508,729,cs),
(345,729,o),
(252,625,o),
(252,453,cs),
(252,109,l),
(356,117,l),
(110,320,l),
(19,208,l),
(270,0,l)
);
}
);
width = 799;
}
);
metricLeft = "=|heNunavik-canadian";
metricRight = "=|ce-canadian";
note = uni158B;
unicode = 5515;
},
{
glyphname = "roWestCree-canadian";
lastChange = "2023-01-13 15:28:15 +0000";
layers = (
{
layerId = "9763B71A-4976-465B-BEF0-2F1E1DB14637";
shapes = (
{
closed = 1;
nodes = (
(455,-15,o),
(547,84,o),
(547,260,cs),
(547,605,l),
(443,597,l),
(689,394,l),
(780,506,l),
(529,714,l),
(383,714,l),
(383,243,ls),
(383,166,o),
(351,129,o),
(295,129,cs),
(236,129,o),
(206,169,o),
(206,250,cs),
(206,321,l),
(42,321,l),
(42,261,ls),
(42,86,o),
(134,-15,o),
(298,-15,cs)
);
}
);
width = 799;
}
);
metricLeft = "ce-canadian";
metricRight = "heNunavik-canadian";
note = uni158C;
unicode = 5516;
},
{
glyphname = "raWestCree-canadian";
lastChange = "2023-01-13 15:28:15 +0000";
layers = (
{
layerId = "9763B71A-4976-465B-BEF0-2F1E1DB14637";
shapes = (
{
closed = 1;
nodes = (
(663,-15,o),
(757,86,o),
(757,261,cs),
(757,321,l),
(593,321,l),
(593,248,ls),
(593,167,o),
(562,129,o),
(506,129,cs),
(447,129,o),
(416,166,o),
(416,243,cs),
(416,714,l),
(270,714,l),
(19,506,l),
(110,394,l),
(356,597,l),
(252,605,l),
(252,260,ls),
(252,86,o),
(341,-15,o),
(506,-15,cs)
);
}
);
width = 799;
}
);
metricLeft = "=|heNunavik-canadian";
metricRight = "=|ce-canadian";
note = uni158D;
unicode = 5517;
},
{
glyphname = "ng-canadian";
kernLeft = mwestleft;
kernRight = mwestright;
lastChange = "2023-01-13 15:28:15 +0000";
layers = (
{
layerId = "9763B71A-4976-465B-BEF0-2F1E1DB14637";
shapes = (
{
closed = 1;
nodes = (
(565,225,o),
(621,276,o),
(621,361,cs),
(621,382,l),
(515,382,l),
(515,356,ls),
(515,328,o),
(501,312,o),
(478,312,cs),
(454,312,o),
(442,328,o),
(442,357,cs),
(442,555,l),
(287,555,l),
(294,508,l),
(313,521,o),
(330,552,o),
(330,591,cs),
(330,670,o),
(277,721,o),
(188,721,cs),
(101,721,o),
(45,668,o),
(45,585,cs),
(45,505,o),
(99,450,o),
(193,450,cs),
(350,450,l),
(329,477,l),
(329,371,ls),
(329,275,o),
(381,225,o),
(478,225,cs)
);
},
{
closed = 1;
nodes = (
(163,531,o),
(145,549,o),
(145,585,cs),
(145,622,o),
(163,641,o),
(188,641,cs),
(213,641,o),
(230,622,o),
(230,585,cs),
(230,550,o),
(213,531,o),
(188,531,cs)
);
}
);
width = 653;
}
);
metricLeft = "n-canadian";
metricRight = "c-canadian";
note = uni1595;
unicode = 5525;
},
{
glyphname = "nng-canadian";
kernLeft = mwestleft;
kernRight = mwestright;
lastChange = "2023-01-13 15:30:28 +0000";
layers = (
{
layerId = "9763B71A-4976-465B-BEF0-2F1E1DB14637";
shapes = (
{
closed = 1;
nodes = (
(872,225,o),
(927,276,o),
(927,361,cs),
(927,382,l),
(822,382,l),
(822,356,ls),
(822,328,o),
(808,312,o),
(784,312,cs),
(761,312,o),
(749,328,o),
(749,357,cs),
(749,555,l),
(603,555,l),
(610,508,l),
(629,521,o),
(645,552,o),
(645,591,cs),
(645,671,o),
(592,721,o),
(504,721,cs),
(415,721,o),
(361,669,o),
(361,589,cs),
(361,552,o),
(378,520,o),
(396,507,c),
(404,555,l),
(287,555,l),
(294,508,l),
(313,521,o),
(330,552,o),
(330,591,cs),
(330,670,o),
(277,721,o),
(188,721,cs),
(101,721,o),
(45,668,o),
(45,585,cs),
(45,505,o),
(99,450,o),
(193,450,cs),
(636,450,l),
(636,371,ls),
(636,275,o),
(687,225,o),
(784,225,cs)
);
},
{
closed = 1;
nodes = (
(163,531,o),
(145,549,o),
(145,585,cs),
(145,622,o),
(163,641,o),
(188,641,cs),
(213,641,o),
(230,622,o),
(230,585,cs),
(230,550,o),
(213,531,o),
(188,531,cs)
);
},
{
closed = 1;
nodes = (
(478,531,o),
(461,549,o),
(461,585,cs),
(461,622,o),
(478,641,o),
(504,641,cs),
(528,641,o),
(546,622,o),
(546,585,cs),
(546,550,o),
(529,531,o),
(504,531,cs)
);
}
);
width = 959;
}
);
metricLeft = "n-canadian";
metricRight = "c-canadian";
note = uni1596;
unicode = 5526;
},
{
glyphname = "sheSayisi-canadian";
lastChange = "2023-01-13 15:28:15 +0000";
layers = (
{
anchors = (
{
name = middle_right_can;
pos = (714,357);
},
{
name = top_center_can;
pos = (311,714);
}
);
layerId = "9763B71A-4976-465B-BEF0-2F1E1DB14637";
shapes = (
{
closed = 1;
nodes = (
(564,0,l),
(564,453,ls),
(564,623,o),
(472,729,o),
(311,729,cs),
(145,729,o),
(43,618,o),
(43,440,cs),
(43,271,o),
(122,190,o),
(221,190,cs),
(330,190,o),
(377,278,o),
(368,428,c),
(282,428,l),
(285,348,o),
(271,326,o),
(247,326,cs),
(222,326,o),
(202,351,o),
(202,444,cs),
(202,545,o),
(242,589,o),
(304,589,cs),
(365,589,o),
(398,547,o),
(398,449,cs),
(398,0,l)
);
}
);
width = 622;
}
);
metricLeft = "ke-canadian";
metricRight = "te-canadian";
note = uni1597;
unicode = 5527;
},
{
glyphname = "shiSayisi-canadian";
lastChange = "2023-01-13 15:28:15 +0000";
layers = (
{
layerId = "9763B71A-4976-465B-BEF0-2F1E1DB14637";
shapes = (
{
closed = 1;
nodes = (
(224,0,l),
(224,449,ls),
(224,547,o),
(260,589,o),
(321,589,cs),
(383,589,o),
(420,546,o),
(420,445,cs),
(420,351,o),
(400,326,o),
(375,326,cs),
(351,326,o),
(337,348,o),
(340,428,c),
(254,428,l),
(245,278,o),
(292,190,o),
(401,190,cs),
(500,190,o),
(579,271,o),
(579,440,cs),
(579,618,o),
(484,729,o),
(322,729,cs),
(155,729,o),
(58,623,o),
(58,453,cs),
(58,0,l)
);
}
);
width = 622;
}
);
metricLeft = "te-canadian";
metricRight = "=|ke-canadian";
note = uni1598;
unicode = 5528;
},
{
glyphname = "shoSayisi-canadian";
lastChange = "2023-01-13 15:28:15 +0000";
layers = (
{
anchors = (
{
name = top_center_can;
pos = (302,714);
},
{
name = top_left_can;
pos = (123,714);
},
{
name = top_right_can;
pos = (482,714);
}
);
layerId = "9763B71A-4976-465B-BEF0-2F1E1DB14637";
shapes = (
{
closed = 1;
nodes = (
(467,-15,o),
(564,91,o),
(564,261,cs),
(564,714,l),
(398,714,l),
(398,265,ls),
(398,167,o),
(362,125,o),
(301,125,cs),
(239,125,o),
(202,168,o),
(202,269,cs),
(202,363,o),
(222,388,o),
(247,388,cs),
(271,388,o),
(285,366,o),
(282,286,c),
(368,286,l),
(377,436,o),
(331,524,o),
(221,524,cs),
(122,524,o),
(43,443,o),
(43,268,cs),
(43,94,o),
(138,-15,o),
(300,-15,cs)
);
}
);
width = 622;
}
);
metricLeft = "ke-canadian";
metricRight = "te-canadian";
note = uni1599;
unicode = 5529;
},
{
glyphname = "shaSayisi-canadian";
lastChange = "2023-01-13 15:28:15 +0000";
layers = (
{
layerId = "9763B71A-4976-465B-BEF0-2F1E1DB14637";
shapes = (
{
closed = 1;
nodes = (
(477,-15,o),
(579,96,o),
(579,274,cs),
(579,443,o),
(504,524,o),
(405,524,cs),
(296,524,o),
(245,436,o),
(254,286,c),
(340,286,l),
(337,366,o),
(351,388,o),
(375,388,cs),
(400,388,o),
(420,363,o),
(420,270,cs),
(420,169,o),
(380,125,o),
(318,125,cs),
(257,125,o),
(224,167,o),
(224,265,cs),
(224,714,l),
(58,714,l),
(58,261,ls),
(58,91,o),
(150,-15,o),
(312,-15,cs)
);
}
);
width = 622;
}
);
metricLeft = "te-canadian";
metricRight = "=|ke-canadian";
note = uni159A;
unicode = 5530;
},
{
glyphname = "theWoodScree-canadian";
lastChange = "2023-01-13 15:28:15 +0000";
layers = (
{
layerId = "9763B71A-4976-465B-BEF0-2F1E1DB14637";
shapes = (
{
closed = 1;
nodes = (
(686,-15,o),
(794,86,o),
(794,248,cs),
(794,416,o),
(689,509,o),
(512,509,cs),
(52,509,l),
(52,375,l),
(348,375,l),
(324,398,l),
(289,360,o),
(271,298,o),
(271,239,cs),
(271,82,o),
(373,-15,o),
(532,-15,cs)
);
},
{
closed = 1;
nodes = (
(468,125,o),
(434,174,o),
(434,248,cs),
(434,321,o),
(468,370,o),
(532,370,cs),
(596,370,o),
(631,322,o),
(631,248,cs),
(631,173,o),
(596,125,o),
(532,125,cs)
);
},
{
closed = 1;
nodes = (
(781,580,l),
(781,714,l),
(52,714,l),
(52,580,l)
);
}
);
width = 846;
}
);
note = uni159B;
unicode = 5531;
},
{
glyphname = "thiWoodScree-canadian";
kernRight = niright;
lastChange = "2023-01-13 15:28:15 +0000";
layers = (
{
layerId = "9763B71A-4976-465B-BEF0-2F1E1DB14637";
shapes = (
{
closed = 1;
nodes = (
(473,-15,o),
(575,82,o),
(575,241,cs),
(575,301,o),
(556,362,o),
(522,400,c),
(498,375,l),
(794,375,l),
(794,509,l),
(336,509,ls),
(155,509,o),
(52,406,o),
(52,245,cs),
(52,86,o),
(158,-15,o),
(314,-15,cs)
);
},
{
closed = 1;
nodes = (
(250,125,o),
(215,173,o),
(215,248,cs),
(215,322,o),
(250,370,o),
(314,370,cs),
(377,370,o),
(412,321,o),
(412,248,cs),
(412,174,o),
(377,125,o),
(314,125,cs)
);
},
{
closed = 1;
nodes = (
(794,580,l),
(794,714,l),
(65,714,l),
(65,580,l)
);
}
);
width = 846;
}
);
metricLeft = "theWoodScree-canadian";
metricRight = "theWoodScree-canadian";
note = uni159C;
unicode = 5532;
},
{
glyphname = "thoWoodScree-canadian";
lastChange = "2023-01-13 15:28:15 +0000";
layers = (
{
layerId = "9763B71A-4976-465B-BEF0-2F1E1DB14637";
shapes = (
{
closed = 1;
nodes = (
(518,0,ls),
(691,0,o),
(794,97,o),
(794,261,cs),
(794,423,o),
(689,524,o),
(532,524,cs),
(373,524,o),
(271,425,o),
(271,269,cs),
(271,210,o),
(289,149,o),
(325,111,c),
(348,134,l),
(52,134,l),
(52,0,l)
);
},
{
closed = 1;
nodes = (
(468,139,o),
(434,188,o),
(434,262,cs),
(434,336,o),
(468,384,o),
(532,384,cs),
(596,384,o),
(631,336,o),
(631,262,cs),
(631,187,o),
(596,139,o),
(532,139,cs)
);
},
{
closed = 1;
nodes = (
(781,580,l),
(781,714,l),
(52,714,l),
(52,580,l)
);
}
);
width = 846;
}
);
metricLeft = "theWoodScree-canadian";
metricRight = "theWoodScree-canadian";
note = uni159D;
unicode = 5533;
},
{
glyphname = "thaWoodScree-canadian";
lastChange = "2023-01-13 15:28:15 +0000";
layers = (
{
layerId = "9763B71A-4976-465B-BEF0-2F1E1DB14637";
shapes = (
{
closed = 1;
nodes = (
(794,0,l),
(794,134,l),
(498,134,l),
(521,109,l),
(556,147,o),
(575,209,o),
(575,268,cs),
(575,427,o),
(473,524,o),
(314,524,cs),
(158,524,o),
(52,423,o),
(52,261,cs),
(52,101,o),
(153,0,o),
(330,0,cs)
);
},
{
closed = 1;
nodes = (
(250,139,o),
(215,187,o),
(215,262,cs),
(215,336,o),
(250,384,o),
(314,384,cs),
(377,384,o),
(412,336,o),
(412,262,cs),
(412,188,o),
(377,139,o),
(314,139,cs)
);
},
{
closed = 1;
nodes = (
(794,580,l),
(794,714,l),
(65,714,l),
(65,580,l)
);
}
);
width = 846;
}
);
metricLeft = "theWoodScree-canadian";
metricRight = "theWoodScree-canadian";
note = uni159E;
unicode = 5534;
},
{
glyphname = "thWoodScree-canadian";
lastChange = "2023-01-13 15:28:15 +0000";
layers = (
{
layerId = "9763B71A-4976-465B-BEF0-2F1E1DB14637";
shapes = (
{
closed = 1;
nodes = (
(457,356,l),
(457,452,l),
(295,452,l),
(300,412,l),
(321,423,o),
(340,456,o),
(340,497,cs),
(340,576,o),
(287,627,o),
(198,627,cs),
(111,627,o),
(55,574,o),
(55,491,cs),
(55,411,o),
(109,356,o),
(203,356,cs)
);
},
{
closed = 1;
nodes = (
(173,437,o),
(155,455,o),
(155,491,cs),
(155,528,o),
(173,547,o),
(198,547,cs),
(223,547,o),
(240,528,o),
(240,491,cs),
(240,456,o),
(223,437,o),
(198,437,cs)
);
},
{
closed = 1;
nodes = (
(452,661,l),
(452,758,l),
(60,758,l),
(60,661,l)
);
}
);
width = 512;
}
);
metricRight = "=|";
note = uni159F;
unicode = 5535;
},
{
glyphname = "lhi-canadian";
kernRight = niright;
lastChange = "2023-01-13 15:30:28 +0000";
layers = (
{
anchors = (
{
name = top_center_can;
pos = (442,714);
},
{
name = top_right_can;
pos = (562,714);
}
);
layerId = "9763B71A-4976-465B-BEF0-2F1E1DB14637";
shapes = (
{
closed = 1;
nodes = (
(385,0,l),
(385,145,l),
(330,145,ls),
(251,145,o),
(207,182,o),
(207,252,cs),
(207,321,o),
(248,361,o),
(327,361,cs),
(785,361,l),
(785,492,l),
(595,767,l),
(475,685,l),
(664,410,l),
(656,509,l),
(322,509,ls),
(151,509,o),
(43,414,o),
(43,253,cs),
(43,93,o),
(151,0,o),
(323,0,cs)
);
}
);
width = 827;
}
);
metricLeft = "ke-canadian";
metricRight = "=|ne-canadian";
note = uni15A0;
unicode = 5536;
},
{
glyphname = "lho-canadian";
kernLeft = noleft;
lastChange = "2023-01-13 15:30:28 +0000";
layers = (
{
anchors = (
{
name = top_center_can;
pos = (411,528);
},
{
name = top_right_can;
pos = (520,528);
}
);
layerId = "9763B71A-4976-465B-BEF0-2F1E1DB14637";
shapes = (
{
closed = 1;
nodes = (
(352,-176,l),
(162,99,l),
(170,0,l),
(502,0,ls),
(677,0,o),
(784,93,o),
(784,255,cs),
(784,418,o),
(674,509,o),
(508,509,cs),
(442,509,l),
(442,365,l),
(497,365,ls),
(578,365,o),
(619,327,o),
(619,257,cs),
(619,188,o),
(577,148,o),
(500,148,cs),
(42,148,l),
(42,17,l),
(231,-258,l)
);
}
);
width = 827;
}
);
metricLeft = "ne-canadian";
metricRight = "=|ke-canadian";
note = uni15A2;
unicode = 5538;
},
{
glyphname = "lha-canadian";
kernRight = naright;
lastChange = "2023-01-13 15:30:28 +0000";
layers = (
{
anchors = (
{
name = top_center_can;
pos = (416,528);
},
{
name = top_left_can;
pos = (309,528);
}
);
layerId = "9763B71A-4976-465B-BEF0-2F1E1DB14637";
shapes = (
{
closed = 1;
nodes = (
(785,17,l),
(785,148,l),
(327,148,ls),
(247,148,o),
(207,187,o),
(207,256,cs),
(207,327,o),
(250,365,o),
(326,365,cs),
(385,365,l),
(385,509,l),
(320,509,ls),
(150,509,o),
(43,413,o),
(43,254,cs),
(43,92,o),
(150,0,o),
(322,0,cs),
(656,0,l),
(664,99,l),
(475,-176,l),
(595,-258,l)
);
}
);
width = 827;
}
);
metricLeft = "ke-canadian";
metricRight = "=|ne-canadian";
note = uni15A4;
unicode = 5540;
},
{
glyphname = "lh-canadian";
kernLeft = mwestleft;
kernRight = mwestright;
lastChange = "2023-01-13 15:28:15 +0000";
layers = (
{
layerId = "9763B71A-4976-465B-BEF0-2F1E1DB14637";
shapes = (
{
closed = 1;
nodes = (
(444,369,l),
(444,462,l),
(244,462,ls),
(190,462,o),
(161,487,o),
(161,536,cs),
(161,585,o),
(190,613,o),
(240,613,cs),
(255,613,l),
(255,714,l),
(231,714,ls),
(117,714,o),
(48,643,o),
(48,535,cs),
(48,424,o),
(117,357,o),
(237,357,cs),
(376,357,l),
(368,422,l),
(260,268,l),
(337,215,l)
);
}
);
width = 492;
}
);
metricLeft = "t-canadian";
metricRight = "=|";
note = uni15A6;
unicode = 5542;
},
{
glyphname = "theThCree-canadian";
lastChange = "2023-01-13 15:28:15 +0000";
layers = (
{
anchors = (
{
name = top_left_can;
pos = (112,714);
},
{
name = top_right_can;
pos = (454,714);
}
);
layerId = "9763B71A-4976-465B-BEF0-2F1E1DB14637";
shapes = (
{
closed = 1;
nodes = (
(536,0,l),
(536,77,l),
(609,77,l),
(609,165,l),
(536,165,l),
(536,365,l),
(247,365,l),
(246,286,l),
(558,628,l),
(446,726,l),
(30,262,l),
(30,221,l),
(370,221,l),
(370,165,l),
(151,165,l),
(151,77,l),
(370,77,l),
(370,0,l)
);
}
);
width = 637;
}
);
metricLeft = "ye-canadian";
note = uni15A7;
unicode = 5543;
},
{
glyphname = "thiThCree-canadian";
kernRight = yiright;
lastChange = "2023-01-13 15:28:15 +0000";
layers = (
{
anchors = (
{
name = top_left_can;
pos = (184,714);
},
{
name = top_right_can;
pos = (525,714);
}
);
layerId = "9763B71A-4976-465B-BEF0-2F1E1DB14637";
shapes = (
{
closed = 1;
nodes = (
(268,0,l),
(268,77,l),
(486,77,l),
(486,165,l),
(268,165,l),
(268,221,l),
(607,221,l),
(607,262,l),
(191,726,l),
(82,629,l),
(397,281,l),
(394,365,l),
(101,365,l),
(101,165,l),
(28,165,l),
(28,77,l),
(101,77,l),
(101,0,l)
);
}
);
width = 637;
}
);
metricLeft = "=|theThCree-canadian";
metricRight = "=|ye-canadian";
note = uni15A8;
unicode = 5544;
},
{
glyphname = "thoThCree-canadian";
kernLeft = yoleft;
lastChange = "2023-01-13 15:28:15 +0000";
layers = (
{
anchors = (
{
name = top_left_can;
pos = (112,714);
},
{
name = top_right_can;
pos = (453,714);
}
);
layerId = "9763B71A-4976-465B-BEF0-2F1E1DB14637";
shapes = (
{
closed = 1;
nodes = (
(556,85,l),
(245,427,l),
(244,349,l),
(536,349,l),
(536,549,l),
(609,549,l),
(609,637,l),
(536,637,l),
(536,714,l),
(370,714,l),
(370,637,l),
(151,637,l),
(151,549,l),
(370,549,l),
(370,493,l),
(30,493,l),
(30,452,l),
(446,-12,l)
);
}
);
width = 637;
}
);
metricLeft = "ye-canadian";
metricRight = "theThCree-canadian";
note = uni15AA;
unicode = 5546;
},
{
glyphname = "thaThCree-canadian";
kernRight = yaright;
lastChange = "2023-01-13 15:28:15 +0000";
layers = (
{
anchors = (
{
name = top_left_can;
pos = (185,714);
},
{
name = top_right_can;
pos = (525,714);
}
);
layerId = "9763B71A-4976-465B-BEF0-2F1E1DB14637";
shapes = (
{
closed = 1;
nodes = (
(607,452,l),
(607,493,l),
(268,493,l),
(268,549,l),
(486,549,l),
(486,637,l),
(268,637,l),
(268,714,l),
(101,714,l),
(101,637,l),
(28,637,l),
(28,549,l),
(101,549,l),
(101,349,l),
(394,349,l),
(393,427,l),
(82,85,l),
(191,-12,l)
);
}
);
width = 637;
}
);
metricLeft = "=|theThCree-canadian";
metricRight = "=|ye-canadian";
note = uni15AC;
unicode = 5548;
},
{
glyphname = "thThCree-canadian";
kernLeft = mwestleft;
kernRight = mwestright;
lastChange = "2023-01-13 15:28:15 +0000";
layers = (
{
layerId = "9763B71A-4976-465B-BEF0-2F1E1DB14637";
shapes = (
{
closed = 1;
nodes = (
(350,575,l),
(350,603,l),
(193,603,l),
(193,636,l),
(289,636,l),
(289,681,l),
(193,681,l),
(193,714,l),
(80,714,l),
(80,681,l),
(42,681,l),
(42,636,l),
(80,636,l),
(80,514,l),
(245,514,l),
(229,582,l),
(78,407,l),
(155,347,l)
);
}
);
width = 373;
}
);
metricRight = "y-canadian";
note = uni15AE;
unicode = 5550;
},
{
glyphname = "bAivilik-canadian";
lastChange = "2023-01-13 15:30:28 +0000";
layers = (
{
layerId = "9763B71A-4976-465B-BEF0-2F1E1DB14637";
shapes = (
{
closed = 1;
nodes = (
(484,-15,o),
(581,95,o),
(581,257,cs),
(581,411,o),
(495,524,o),
(354,524,cs),
(283,524,o),
(233,492,o),
(220,458,c),
(231,430,l),
(231,714,l),
(65,714,l),
(65,0,l),
(222,0,l),
(222,77,l),
(217,56,l),
(233,20,o),
(282,-15,o),
(354,-15,cs)
);
},
{
closed = 1;
nodes = (
(266,125,o),
(230,168,o),
(230,255,cs),
(230,341,o),
(268,384,o),
(324,384,cs),
(379,384,o),
(418,341,o),
(418,255,cs),
(418,168,o),
(382,125,o),
(324,125,cs)
);
}
);
width = 624;
}
);
metricLeft = "nunavuth-canadian";
metricRight = "=|ke-canadian";
note = uni15AF;
unicode = 5551;
},
{
glyphname = "eBlackfoot-canadian";
lastChange = "2023-01-13 15:28:15 +0000";
layers = (
{
layerId = "9763B71A-4976-465B-BEF0-2F1E1DB14637";
shapes = (
{
closed = 1;
nodes = (
(231,0,l),
(231,413,l),
(261,377,o),
(307,354,o),
(362,354,cs),
(467,354,o),
(537,434,o),
(537,542,cs),
(537,650,o),
(467,729,o),
(362,729,cs),
(303,729,o),
(253,703,o),
(224,660,c),
(224,714,l),
(65,714,l),
(65,0,l)
);
}
);
width = 575;
}
);
metricLeft = "nunavuth-canadian";
note = uni15B0;
unicode = 5552;
},
{
glyphname = "iBlackfoot-canadian";
lastChange = "2023-01-13 15:30:28 +0000";
layers = (
{
layerId = "9763B71A-4976-465B-BEF0-2F1E1DB14637";
shapes = (
{
closed = 1;
nodes = (
(273,-15,o),
(323,11,o),
(352,54,c),
(352,0,l),
(511,0,l),
(511,714,l),
(345,714,l),
(345,301,l),
(314,337,o),
(268,360,o),
(213,360,cs),
(109,360,o),
(38,280,o),
(38,172,cs),
(38,64,o),
(109,-15,o),
(213,-15,cs)
);
}
);
width = 576;
}
);
metricLeft = "=|eBlackfoot-canadian";
metricRight = "nunavuth-canadian";
note = uni15B1;
unicode = 5553;
},
{
glyphname = "oBlackfoot-canadian";
lastChange = "2023-01-13 15:28:15 +0000";
layers = (
{
layerId = "9763B71A-4976-465B-BEF0-2F1E1DB14637";
shapes = (
{
closed = 1;
nodes = (
(467,-15,o),
(537,64,o),
(537,172,cs),
(537,280,o),
(467,360,o),
(362,360,cs),
(307,360,o),
(261,337,o),
(231,301,c),
(231,714,l),
(65,714,l),
(65,0,l),
(224,0,l),
(224,54,l),
(253,11,o),
(303,-15,o),
(362,-15,cs)
);
}
);
width = 575;
}
);
metricLeft = "nunavuth-canadian";
metricRight = "eBlackfoot-canadian";
note = uni15B2;
unicode = 5554;
},
{
glyphname = "aBlackfoot-canadian";
lastChange = "2023-01-13 15:30:28 +0000";
layers = (
{
layerId = "9763B71A-4976-465B-BEF0-2F1E1DB14637";
shapes = (
{
closed = 1;
nodes = (
(511,0,l),
(511,714,l),
(352,714,l),
(352,660,l),
(323,703,o),
(273,729,o),
(213,729,cs),
(109,729,o),
(38,650,o),
(38,542,cs),
(38,434,o),
(109,354,o),
(213,354,cs),
(268,354,o),
(314,377,o),
(345,413,c),
(345,0,l)
);
}
);
width = 576;
}
);
metricLeft = "=|eBlackfoot-canadian";
metricRight = "nunavuth-canadian";
note = uni15B3;
unicode = 5555;
},
{
glyphname = "weBlackfoot-canadian";
lastChange = "2023-01-13 15:28:15 +0000";
layers = (
{
layerId = "9763B71A-4976-465B-BEF0-2F1E1DB14637";
shapes = (
{
closed = 1;
nodes = (
(231,286,l),
(565,286,l),
(565,423,l),
(231,423,l),
(231,576,l),
(565,576,l),
(565,714,l),
(65,714,l),
(65,0,l),
(231,0,l)
);
}
);
width = 617;
}
);
metricLeft = "nunavuth-canadian";
note = uni15B4;
unicode = 5556;
},
{
glyphname = "wiBlackfoot-canadian";
lastChange = "2023-01-13 15:28:15 +0000";
layers = (
{
layerId = "9763B71A-4976-465B-BEF0-2F1E1DB14637";
shapes = (
{
closed = 1;
nodes = (
(552,0,l),
(552,714,l),
(386,714,l),
(386,428,l),
(52,428,l),
(52,291,l),
(386,291,l),
(386,138,l),
(52,138,l),
(52,0,l)
);
}
);
width = 617;
}
);
metricLeft = "=|weBlackfoot-canadian";
metricRight = "nunavuth-canadian";
note = uni15B5;
unicode = 5557;
},
{
glyphname = "woBlackfoot-canadian";
lastChange = "2023-01-13 15:28:15 +0000";
layers = (
{
layerId = "9763B71A-4976-465B-BEF0-2F1E1DB14637";
shapes = (
{
closed = 1;
nodes = (
(565,0,l),
(565,138,l),
(231,138,l),
(231,291,l),
(565,291,l),
(565,428,l),
(231,428,l),
(231,714,l),
(65,714,l),
(65,0,l)
);
}
);
width = 617;
}
);
metricLeft = "nunavuth-canadian";
metricRight = "weBlackfoot-canadian";
note = uni15B6;
unicode = 5558;
},
{
glyphname = "waBlackfoot-canadian";
lastChange = "2023-01-13 15:28:15 +0000";
layers = (
{
layerId = "9763B71A-4976-465B-BEF0-2F1E1DB14637";
shapes = (
{
closed = 1;
nodes = (
(552,0,l),
(552,714,l),
(52,714,l),
(52,576,l),
(386,576,l),
(386,423,l),
(52,423,l),
(52,286,l),
(386,286,l),
(386,0,l)
);
}
);
width = 617;
}
);
metricLeft = "=|weBlackfoot-canadian";
metricRight = "nunavuth-canadian";
note = uni15B7;
unicode = 5559;
},
{
glyphname = "neBlackfoot-canadian";
lastChange = "2023-01-13 15:28:15 +0000";
layers = (
{
layerId = "9763B71A-4976-465B-BEF0-2F1E1DB14637";
shapes = (
{
closed = 1;
nodes = (
(231,0,l),
(231,594,l),
(284,594,l),
(243,696,l),
(243,674,ls),
(243,502,o),
(337,397,o),
(498,397,cs),
(652,397,o),
(756,501,o),
(756,668,cs),
(756,714,l),
(594,714,l),
(594,659,ls),
(594,582,o),
(558,538,o),
(499,538,cs),
(440,538,o),
(405,582,o),
(405,659,cs),
(405,714,l),
(65,714,l),
(65,0,l)
);
}
);
width = 785;
}
);
metricLeft = "nunavuth-canadian";
note = uni15B8;
unicode = 5560;
},
{
glyphname = "niBlackfoot-canadian";
lastChange = "2023-01-13 15:30:28 +0000";
layers = (
{
layerId = "9763B71A-4976-465B-BEF0-2F1E1DB14637";
shapes = (
{
closed = 1;
nodes = (
(192,0,l),
(192,55,ls),
(192,132,o),
(227,176,o),
(286,176,cs),
(345,176,o),
(380,132,o),
(380,55,cs),
(380,0,l),
(721,0,l),
(721,714,l),
(555,714,l),
(555,120,l),
(502,120,l),
(543,18,l),
(543,40,ls),
(543,212,o),
(449,317,o),
(288,317,cs),
(133,317,o),
(29,213,o),
(29,46,cs),
(29,0,l)
);
}
);
width = 786;
}
);
metricLeft = "=|neBlackfoot-canadian";
metricRight = "nunavuth-canadian";
note = uni15B9;
unicode = 5561;
},
{
glyphname = "noBlackfoot-canadian";
lastChange = "2023-01-13 15:28:15 +0000";
layers = (
{
layerId = "9763B71A-4976-465B-BEF0-2F1E1DB14637";
shapes = (
{
closed = 1;
nodes = (
(405,0,l),
(405,55,ls),
(405,132,o),
(440,176,o),
(499,176,cs),
(558,176,o),
(594,132,o),
(594,55,cs),
(594,0,l),
(756,0,l),
(756,46,ls),
(756,213,o),
(652,317,o),
(498,317,cs),
(337,317,o),
(243,212,o),
(243,40,cs),
(243,18,l),
(284,120,l),
(231,120,l),
(231,714,l),
(65,714,l),
(65,0,l)
);
}
);
width = 785;
}
);
metricLeft = "nunavuth-canadian";
metricRight = "neBlackfoot-canadian";
note = uni15BA;
unicode = 5562;
},
{
glyphname = "naBlackfoot-canadian";
lastChange = "2023-01-13 15:30:28 +0000";
layers = (
{
layerId = "9763B71A-4976-465B-BEF0-2F1E1DB14637";
shapes = (
{
closed = 1;
nodes = (
(721,0,l),
(721,714,l),
(380,714,l),
(380,659,ls),
(380,582,o),
(345,538,o),
(286,538,cs),
(227,538,o),
(192,582,o),
(192,659,cs),
(192,714,l),
(29,714,l),
(29,668,ls),
(29,501,o),
(133,397,o),
(288,397,cs),
(449,397,o),
(543,502,o),
(543,674,cs),
(543,696,l),
(502,594,l),
(555,594,l),
(555,0,l)
);
}
);
width = 786;
}
);
metricLeft = "=|neBlackfoot-canadian";
metricRight = "nunavuth-canadian";
note = uni15BB;
unicode = 5563;
},
{
glyphname = "keBlackfoot-canadian";
lastChange = "2023-01-13 15:28:15 +0000";
layers = (
{
layerId = "9763B71A-4976-465B-BEF0-2F1E1DB14637";
shapes = (
{
closed = 1;
nodes = (
(231,0,l),
(231,522,l),
(173,522,l),
(320,258,l),
(385,258,l),
(637,714,l),
(465,714,l),
(306,425,l),
(378,425,l),
(219,714,l),
(65,714,l),
(65,0,l)
);
}
);
width = 645;
}
);
metricLeft = "nunavuth-canadian";
note = uni15BC;
unicode = 5564;
},
{
glyphname = "kiBlackfoot-canadian";
lastChange = "2023-01-13 15:30:28 +0000";
layers = (
{
layerId = "9763B71A-4976-465B-BEF0-2F1E1DB14637";
shapes = (
{
closed = 1;
nodes = (
(180,0,l),
(340,289,l),
(267,289,l),
(426,0,l),
(581,0,l),
(581,714,l),
(415,714,l),
(415,192,l),
(473,192,l),
(325,456,l),
(260,456,l),
(8,0,l)
);
}
);
width = 646;
}
);
metricLeft = "=|keBlackfoot-canadian";
metricRight = "nunavuth-canadian";
note = uni15BD;
unicode = 5565;
},
{
glyphname = "koBlackfoot-canadian";
lastChange = "2023-01-13 15:28:15 +0000";
layers = (
{
layerId = "9763B71A-4976-465B-BEF0-2F1E1DB14637";
shapes = (
{
closed = 1;
nodes = (
(219,0,l),
(378,289,l),
(306,289,l),
(465,0,l),
(637,0,l),
(385,456,l),
(320,456,l),
(173,192,l),
(231,192,l),
(231,714,l),
(65,714,l),
(65,0,l)
);
}
);
width = 645;
}
);
metricLeft = "nunavuth-canadian";
metricRight = "keBlackfoot-canadian";
note = uni15BE;
unicode = 5566;
},
{
glyphname = "kaBlackfoot-canadian";
lastChange = "2023-01-13 15:30:28 +0000";
layers = (
{
layerId = "9763B71A-4976-465B-BEF0-2F1E1DB14637";
shapes = (
{
closed = 1;
nodes = (
(581,0,l),
(581,714,l),
(426,714,l),
(267,425,l),
(340,425,l),
(180,714,l),
(8,714,l),
(260,258,l),
(325,258,l),
(473,522,l),
(415,522,l),
(415,0,l)
);
}
);
width = 646;
}
);
metricLeft = "=|keBlackfoot-canadian";
metricRight = "nunavuth-canadian";
note = uni15BF;
unicode = 5567;
},
{
color = 9;
glyphname = "heSayisi-canadian";
lastChange = "2023-01-13 15:30:28 +0000";
layers = (
{
anchors = (
{
name = top_right_can;
pos = (579,714);
}
);
layerId = "9763B71A-4976-465B-BEF0-2F1E1DB14637";
shapes = (
{
closed = 1;
nodes = (
(661,0,l),
(661,714,l),
(496,714,l),
(496,382,l),
(522,382,l),
(513,595,o),
(407,729,o),
(266,729,cs),
(121,729,o),
(43,620,o),
(43,451,cs),
(43,416,o),
(46,378,o),
(54,340,c),
(213,340,l),
(207,375,o),
(204,408,o),
(204,434,cs),
(204,535,o),
(241,584,o),
(302,584,cs),
(404,584,o),
(491,454,o),
(495,0,c)
);
}
);
width = 726;
}
);
metricRight = "nunavuth-canadian";
note = uni15C0;
unicode = 5568;
},
{
color = 9;
glyphname = "hiSayisi-canadian";
lastChange = "2023-01-13 15:28:15 +0000";
layers = (
{
layerId = "9763B71A-4976-465B-BEF0-2F1E1DB14637";
shapes = (
{
closed = 1;
nodes = (
(231,0,l),
(235,454,o),
(321,584,o),
(423,584,cs),
(484,584,o),
(521,535,o),
(521,434,cs),
(521,408,o),
(518,375,o),
(513,340,c),
(671,340,l),
(679,378,o),
(682,416,o),
(682,451,cs),
(682,620,o),
(604,729,o),
(459,729,cs),
(318,729,o),
(213,595,o),
(203,382,c),
(229,382,l),
(229,714,l),
(65,714,l),
(65,0,l)
);
}
);
width = 725;
}
);
metricLeft = "nunavuth-canadian";
metricRight = "=|heSayisi-canadian";
note = uni15C1;
unicode = 5569;
},
{
color = 9;
glyphname = "hoSayisi-canadian";
lastChange = "2023-01-13 15:30:28 +0000";
layers = (
{
anchors = (
{
name = top_center_can;
pos = (356,714);
},
{
name = top_left_can;
pos = (134,714);
},
{
name = top_right_can;
pos = (578,714);
}
);
layerId = "9763B71A-4976-465B-BEF0-2F1E1DB14637";
shapes = (
{
closed = 1;
nodes = (
(407,-15,o),
(513,119,o),
(522,332,c),
(496,332,l),
(496,0,l),
(661,0,l),
(661,714,l),
(495,714,l),
(491,260,o),
(404,130,o),
(302,130,cs),
(241,130,o),
(204,179,o),
(204,280,cs),
(204,306,o),
(207,339,o),
(213,374,c),
(54,374,l),
(46,336,o),
(43,298,o),
(43,263,cs),
(43,94,o),
(121,-15,o),
(266,-15,cs)
);
}
);
width = 726;
}
);
metricLeft = "heSayisi-canadian";
metricRight = "nunavuth-canadian";
note = uni15C2;
unicode = 5570;
},
{
color = 9;
glyphname = "haSayisi-canadian";
lastChange = "2023-01-13 15:28:15 +0000";
layers = (
{
layerId = "9763B71A-4976-465B-BEF0-2F1E1DB14637";
shapes = (
{
closed = 1;
nodes = (
(604,-15,o),
(682,94,o),
(682,263,cs),
(682,298,o),
(679,336,o),
(671,374,c),
(513,374,l),
(518,339,o),
(521,306,o),
(521,280,cs),
(521,179,o),
(484,130,o),
(423,130,cs),
(321,130,o),
(235,260,o),
(231,714,c),
(65,714,l),
(65,0,l),
(229,0,l),
(229,332,l),
(203,332,l),
(213,119,o),
(318,-15,o),
(459,-15,cs)
);
}
);
width = 725;
}
);
metricLeft = "nunavuth-canadian";
metricRight = "=|heSayisi-canadian";
note = uni15C3;
unicode = 5571;
},
{
color = 9;
glyphname = "ghuCarrier-canadian";
lastChange = "2023-01-13 15:28:15 +0000";
layers = (
{
layerId = "9763B71A-4976-465B-BEF0-2F1E1DB14637";
shapes = (
{
closed = 1;
nodes = (
(402,0,l),
(731,674,l),
(731,714,l),
(593,714,l),
(503,528,l),
(587,549,l),
(174,549,l),
(260,525,l),
(170,714,l),
(25,714,l),
(25,674,l),
(353,0,l)
);
},
{
closed = 1;
nodes = (
(539,425,l),
(473,443,l),
(348,185,l),
(414,185,l),
(290,447,l),
(226,425,l)
);
}
);
width = 756;
}
);
metricLeft = "e-canadian";
metricRight = "e-canadian";
note = uni15C4;
unicode = 5572;
},
{
color = 9;
glyphname = "ghoCarrier-canadian";
lastChange = "2023-01-13 15:28:15 +0000";
layers = (
{
layerId = "9763B71A-4976-465B-BEF0-2F1E1DB14637";
shapes = (
{
closed = 1;
nodes = (
(170,0,l),
(260,189,l),
(174,165,l),
(587,165,l),
(503,186,l),
(593,0,l),
(731,0,l),
(731,40,l),
(402,714,l),
(353,714,l),
(25,40,l),
(25,0,l)
);
},
{
closed = 1;
nodes = (
(414,529,l),
(348,529,l),
(473,271,l),
(539,289,l),
(226,289,l),
(290,267,l)
);
}
);
width = 756;
}
);
metricLeft = "e-canadian";
metricRight = "e-canadian";
note = uni15C5;
unicode = 5573;
},
{
color = 9;
glyphname = "gheCarrier-canadian";
lastChange = "2023-01-13 15:30:28 +0000";
layers = (
{
anchors = (
{
name = middle_center_can;
pos = (77,357);
}
);
layerId = "9763B71A-4976-465B-BEF0-2F1E1DB14637";
shapes = (
{
closed = 1;
nodes = (
(82,0,l),
(639,332,l),
(639,382,l),
(82,714,l),
(43,714,l),
(43,579,l),
(185,493,l),
(179,542,l),
(179,151,l),
(185,223,l),
(43,138,l),
(43,0,l)
);
},
{
closed = 1;
nodes = (
(301,513,l),
(276,454,l),
(497,320,l),
(498,396,l),
(276,263,l),
(301,203,l)
);
}
);
width = 667;
}
);
metricLeft = "po-canadian";
metricRight = "o-canadian";
note = uni15C6;
unicode = 5574;
},
{
color = 9;
glyphname = "ghaCarrier-canadian";
lastChange = "2023-01-13 15:30:28 +0000";
layers = (
{
layerId = "9763B71A-4976-465B-BEF0-2F1E1DB14637";
shapes = (
{
closed = 1;
nodes = (
(624,0,l),
(624,135,l),
(493,216,l),
(500,157,l),
(500,557,l),
(493,498,l),
(624,577,l),
(624,714,l),
(584,714,l),
(28,382,l),
(28,332,l),
(584,0,l)
);
},
{
closed = 1;
nodes = (
(402,256,l),
(171,395,l),
(171,319,l),
(402,458,l),
(378,507,l),
(378,212,l)
);
}
);
width = 667;
}
);
metricLeft = "=|o-canadian";
metricRight = "=|po-canadian";
note = uni15C9;
unicode = 5577;
},
{
color = 9;
glyphname = "ruCarrier-canadian";
lastChange = "2023-01-13 15:28:15 +0000";
layers = (
{
layerId = "9763B71A-4976-465B-BEF0-2F1E1DB14637";
shapes = (
{
closed = 1;
nodes = (
(402,0,l),
(731,674,l),
(731,714,l),
(593,714,l),
(555,636,l),
(581,649,l),
(176,649,l),
(209,634,l),
(171,714,l),
(25,714,l),
(25,674,l),
(353,0,l)
);
},
{
closed = 1;
nodes = (
(546,522,l),
(524,554,l),
(349,189,l),
(415,188,l),
(243,550,l),
(210,522,l)
);
}
);
width = 756;
}
);
metricLeft = "e-canadian";
metricRight = "e-canadian";
note = uni15CA;
unicode = 5578;
},
{
color = 9;
glyphname = "roCarrier-canadian";
lastChange = "2023-01-13 15:28:15 +0000";
layers = (
{
layerId = "9763B71A-4976-465B-BEF0-2F1E1DB14637";
shapes = (
{
closed = 1;
nodes = (
(170,0,l),
(207,78,l),
(177,65,l),
(581,65,l),
(553,80,l),
(592.006,0,l),
(731,0,l),
(731,40,l),
(402,714,l),
(353,714,l),
(25,40,l),
(25,0,l)
);
},
{
closed = 1;
nodes = (
(410,531,l),
(345,531,l),
(520,164,l),
(547,192,l),
(211,192,l),
(236,160,l)
);
}
);
width = 756;
}
);
metricLeft = "e-canadian";
metricRight = "e-canadian";
note = uni15CB;
unicode = 5579;
},
{
color = 9;
glyphname = "reCarrier-canadian";
lastChange = "2023-01-13 15:30:28 +0000";
layers = (
{
layerId = "9763B71A-4976-465B-BEF0-2F1E1DB14637";
shapes = (
{
closed = 1;
nodes = (
(82,0,l),
(639,332,l),
(639,382,l),
(82,714,l),
(43,714,l),
(43,578,l),
(118,532,l),
(100,566,l),
(100,147,l),
(118,184,l),
(43,138,l),
(43,0,l)
);
},
{
closed = 1;
nodes = (
(226,539,l),
(210,487,l),
(490,319,l),
(490,395,l),
(210,229,l),
(226,174,l)
);
}
);
width = 667;
}
);
metricLeft = "po-canadian";
metricRight = "o-canadian";
note = uni15CC;
unicode = 5580;
},
{
color = 9;
glyphname = "reeCarrier-canadian";
lastChange = "2023-01-13 15:30:28 +0000";
layers = (
{
layerId = "9763B71A-4976-465B-BEF0-2F1E1DB14637";
shapes = (
{
closed = 1;
nodes = (
(82,0,l),
(639,332,l),
(639,382,l),
(82,714,l),
(43,714,l),
(43,597,l),
(118,550,l),
(100,578,l),
(100,130,l),
(118,162,l),
(43,117,l),
(43,0,l)
);
},
{
closed = 1;
nodes = (
(209.002,549.998,l),
(195,516,l),
(529,320,l),
(529,395,l),
(194,197,l),
(209,175,l)
);
},
{
closed = 1;
nodes = (
(306,288,l),
(306,426,l),
(243,426,l),
(243,288,l)
);
}
);
width = 667;
}
);
metricLeft = "po-canadian";
metricRight = "o-canadian";
note = uni15CD;
unicode = 5581;
},
{
color = 9;
glyphname = "riCarrier-canadian";
lastChange = "2023-01-13 15:30:28 +0000";
layers = (
{
layerId = "9763B71A-4976-465B-BEF0-2F1E1DB14637";
shapes = (
{
closed = 1;
nodes = (
(82,0,l),
(639,332,l),
(639,382,l),
(82,714,l),
(43,714,l),
(43,597,l),
(118,550,l),
(100,578,l),
(100,130,l),
(118,162,l),
(43,117,l),
(43,0,l)
);
},
{
closed = 1;
nodes = (
(318,304,o),
(344,326,o),
(344,357,cs),
(344,388,o),
(318,410,o),
(290,410,cs),
(262,410,o),
(236,388,o),
(236,357,cs),
(236,326,o),
(262,304,o),
(290,304,cs)
);
},
{
closed = 1;
nodes = (
(209,550,l),
(195,516,l),
(529,320,l),
(529,395,l),
(194,197,l),
(209,175,l)
);
}
);
width = 667;
}
);
metricLeft = "po-canadian";
metricRight = "o-canadian";
note = uni15CE;
unicode = 5582;
},
{
color = 9;
glyphname = "raCarrier-canadian";
lastChange = "2023-01-13 15:30:28 +0000";
layers = (
{
layerId = "9763B71A-4976-465B-BEF0-2F1E1DB14637";
shapes = (
{
closed = 1;
nodes = (
(624,0,l),
(624,137,l),
(557,179,l),
(567,133,l),
(567,581,l),
(557,535,l),
(624,577,l),
(624,714,l),
(584,714,l),
(28,382,l),
(28,332,l),
(584,0,l)
);
},
{
closed = 1;
nodes = (
(464,491,l),
(440,540,l),
(440,175,l),
(464,225,l),
(178,396,l),
(178,320,l)
);
}
);
width = 667;
}
);
metricLeft = "=|o-canadian";
metricRight = "=|po-canadian";
note = uni15CF;
unicode = 5583;
},
{
color = 9;
glyphname = "wuCarrier-canadian";
lastChange = "2023-01-13 15:28:15 +0000";
layers = (
{
layerId = "9763B71A-4976-465B-BEF0-2F1E1DB14637";
shapes = (
{
closed = 1;
nodes = (
(411,0,l),
(748,674,l),
(748,714,l),
(619,714,l),
(420,286,l),
(456,286,l),
(456,714,l),
(328,714,l),
(328,286,l),
(365,286,l),
(162.996,714,l),
(25,714,l),
(25,674,l),
(362,0,l)
);
}
);
width = 773;
}
);
metricLeft = "e-canadian";
metricRight = "e-canadian";
note = uni15D0;
unicode = 5584;
},
{
color = 9;
glyphname = "woCarrier-canadian";
lastChange = "2023-01-13 15:28:15 +0000";
layers = (
{
layerId = "9763B71A-4976-465B-BEF0-2F1E1DB14637";
shapes = (
{
closed = 1;
nodes = (
(160,0,l),
(360,428,l),
(324,428,l),
(324,0,l),
(451,0,l),
(451,428,l),
(413,428,l),
(616,0,l),
(748,0,l),
(748,40,l),
(411,714,l),
(362,714,l),
(25,40,l),
(25,0,l)
);
}
);
width = 773;
}
);
metricLeft = "e-canadian";
metricRight = "e-canadian";
note = uni15D1;
unicode = 5585;
},
{
color = 9;
glyphname = "weCarrier-canadian";
lastChange = "2023-01-13 15:30:28 +0000";
layers = (
{
layerId = "9763B71A-4976-465B-BEF0-2F1E1DB14637";
shapes = (
{
closed = 1;
nodes = (
(103,0,l),
(660,332,l),
(660,382,l),
(103,714,l),
(64,714,l),
(64,580,l),
(394,391,l),
(394,419,l),
(67,419,l),
(67,295,l),
(393,295,l),
(393,323,l),
(64,135,l),
(64,0,l)
);
}
);
width = 688;
}
);
metricRight = "o-canadian";
note = uni15D2;
unicode = 5586;
},
{
color = 9;
glyphname = "weeCarrier-canadian";
lastChange = "2023-01-13 15:30:28 +0000";
layers = (
{
layerId = "9763B71A-4976-465B-BEF0-2F1E1DB14637";
shapes = (
{
closed = 1;
nodes = (
(103,0,l),
(660,332,l),
(660,382,l),
(103,714,l),
(64,714,l),
(64,595,l),
(458,369,l),
(468,405,l),
(217,405,l),
(217,474,l),
(131,474,l),
(131,405,l),
(64,405,l),
(64,309,l),
(131,309,l),
(131,240,l),
(217,240,l),
(217,309,l),
(468,309,l),
(458,345,l),
(64,119,l),
(64,0,l)
);
}
);
width = 688;
}
);
metricLeft = "weCarrier-canadian";
metricRight = "o-canadian";
note = uni15D3;
unicode = 5587;
},
{
color = 9;
glyphname = "wiCarrier-canadian";
lastChange = "2023-01-13 15:30:28 +0000";
layers = (
{
layerId = "9763B71A-4976-465B-BEF0-2F1E1DB14637";
shapes = (
{
closed = 1;
nodes = (
(103,0,l),
(660,332,l),
(660,382,l),
(103,714,l),
(64,714,l),
(64,595,l),
(459,369,l),
(469,405,l),
(289,405,l),
(274,435,o),
(242,455,o),
(205,455,cs),
(168,455,o),
(136,435,o),
(120,405,c),
(64,405,l),
(64,309,l),
(120,309,l),
(137,279,o),
(168,259,o),
(205,259,cs),
(241,259,o),
(272,280,o),
(288,309,c),
(469,309,l),
(459,345,l),
(64,119,l),
(64,0,l)
);
}
);
width = 688;
}
);
metricLeft = "weCarrier-canadian";
metricRight = "o-canadian";
note = uni15D4;
unicode = 5588;
},
{
color = 9;
glyphname = "waCarrier-canadian";
lastChange = "2023-01-13 15:30:28 +0000";
layers = (
{
layerId = "9763B71A-4976-465B-BEF0-2F1E1DB14637";
shapes = (
{
closed = 1;
nodes = (
(624,0,l),
(624,134,l),
(294,323,l),
(294,295,l),
(620,295,l),
(620,419,l),
(295,419,l),
(295,391,l),
(624,579,l),
(624,714,l),
(585,714,l),
(28,382,l),
(28,332,l),
(584,0,l)
);
}
);
width = 688;
}
);
metricLeft = "=|o-canadian";
metricRight = "=|weCarrier-canadian";
note = uni15D5;
unicode = 5589;
},
{
color = 9;
glyphname = "hwuCarrier-canadian";
lastChange = "2023-01-13 15:28:15 +0000";
layers = (
{
layerId = "9763B71A-4976-465B-BEF0-2F1E1DB14637";
shapes = (
{
closed = 1;
nodes = (
(411,0,l),
(748,674,l),
(748,714,l),
(627,714,l),
(548,551,l),
(598,571,l),
(439,571,l),
(439,714,l),
(338,714,l),
(338,571,l),
(177,571,l),
(230,553,l),
(151,714,l),
(25,714,l),
(25,674,l),
(362,0,l)
);
},
{
closed = 1;
nodes = (
(348,485,l),
(348,208,l),
(379,215,l),
(246,504,l),
(211,485,l)
);
},
{
closed = 1;
nodes = (
(429,485,l),
(566,485,l),
(535,503,l),
(397,212,l),
(429,205,l)
);
}
);
width = 773;
}
);
metricLeft = "e-canadian";
metricRight = "e-canadian";
note = uni15D6;
unicode = 5590;
},
{
color = 9;
glyphname = "hwoCarrier-canadian";
lastChange = "2023-01-13 15:28:15 +0000";
layers = (
{
layerId = "9763B71A-4976-465B-BEF0-2F1E1DB14637";
shapes = (
{
closed = 1;
nodes = (
(150,0,l),
(231,162,l),
(181,140,l),
(338,140,l),
(338,0,l),
(439,0,l),
(439,140,l),
(604,140,l),
(548,162,l),
(627,0,l),
(748,0,l),
(748,40,l),
(411,714,l),
(362,714,l),
(25,40,l),
(25,0,l)
);
},
{
closed = 1;
nodes = (
(364,468,l),
(348,473,l),
(348,232,l),
(224,232,l),
(245,210,l)
);
},
{
closed = 1;
nodes = (
(561,232,l),
(429,232,l),
(429,476,l),
(413,471,l),
(534,211,l)
);
}
);
width = 773;
}
);
metricLeft = "e-canadian";
metricRight = "e-canadian";
note = uni15D7;
unicode = 5591;
},
{
color = 9;
glyphname = "hweCarrier-canadian";
lastChange = "2023-01-13 15:30:28 +0000";
layers = (
{
layerId = "9763B71A-4976-465B-BEF0-2F1E1DB14637";
shapes = (
{
closed = 1;
nodes = (
(103,0,l),
(660,332,l),
(660,382,l),
(103,714,l),
(64,714,l),
(64,594,l),
(196,518,l),
(196,409,l),
(64,409,l),
(64,305,l),
(196,305,l),
(196,195,l),
(64,119,l),
(64,0,l)
);
},
{
closed = 1;
nodes = (
(272,316,l),
(434,316,l),
(272,228,l)
);
},
{
closed = 1;
nodes = (
(272,485,l),
(432,398,l),
(272,398,l)
);
}
);
width = 688;
}
);
metricLeft = "weCarrier-canadian";
metricRight = "o-canadian";
note = uni15D8;
unicode = 5592;
},
{
color = 9;
glyphname = "hweeCarrier-canadian";
lastChange = "2023-01-13 15:30:28 +0000";
layers = (
{
layerId = "9763B71A-4976-465B-BEF0-2F1E1DB14637";
shapes = (
{
closed = 1;
nodes = (
(103,0,l),
(660,332,l),
(660,382,l),
(103,714,l),
(64,714,l),
(64,598,l),
(237,500,l),
(237,400,l),
(188,400,l),
(188,467,l),
(119,467,l),
(119,400,l),
(64,400,l),
(64,314,l),
(119,314,l),
(119,247,l),
(188,247,l),
(188,314,l),
(237,314,l),
(237,214,l),
(64,116,l),
(64,0,l)
);
},
{
closed = 1;
nodes = (
(305,322,l),
(442,322,l),
(305,245,l)
);
},
{
closed = 1;
nodes = (
(305,469,l),
(442,392,l),
(305,392,l)
);
}
);
width = 688;
}
);
metricLeft = "weCarrier-canadian";
metricRight = "o-canadian";
note = uni15D9;
unicode = 5593;
},
{
color = 9;
glyphname = "hwiCarrier-canadian";
lastChange = "2023-01-13 15:30:28 +0000";
layers = (
{
layerId = "9763B71A-4976-465B-BEF0-2F1E1DB14637";
shapes = (
{
closed = 1;
nodes = (
(103,0,l),
(660,332,l),
(660,382,l),
(103,714,l),
(64,714,l),
(64,598,l),
(237,500,l),
(237,392,l),
(222,392,l),
(210,417,o),
(186,434,o),
(157,434,cs),
(129,434,o),
(104,417,o),
(92,392,c),
(64,392,l),
(64,322,l),
(92,322,l),
(104,297,o),
(129,280,o),
(157,280,cs),
(184,280,o),
(209,297,o),
(221,322,c),
(237,322,l),
(237,214,l),
(64,116,l),
(64,0,l)
);
},
{
closed = 1;
nodes = (
(305,322,l),
(442,322,l),
(305,245,l)
);
},
{
closed = 1;
nodes = (
(305,469,l),
(442,392,l),
(305,392,l)
);
}
);
width = 688;
}
);
metricLeft = "weCarrier-canadian";
metricRight = "o-canadian";
note = uni15DA;
unicode = 5594;
},
{
color = 9;
glyphname = "hwaCarrier-canadian";
lastChange = "2023-01-13 15:30:28 +0000";
layers = (
{
layerId = "9763B71A-4976-465B-BEF0-2F1E1DB14637";
shapes = (
{
closed = 1;
nodes = (
(624,0,l),
(624,119,l),
(492,195,l),
(492,305,l),
(624,305,l),
(624,409,l),
(492,409,l),
(492,518,l),
(624,594,l),
(624,714,l),
(585,714,l),
(28,382,l),
(28,332,l),
(584,0,l)
);
},
{
closed = 1;
nodes = (
(254,316,l),
(416,316,l),
(416,228,l)
);
},
{
closed = 1;
nodes = (
(416,485,l),
(416,398,l),
(255,398,l)
);
}
);
width = 688;
}
);
metricLeft = "=|o-canadian";
metricRight = "=|weCarrier-canadian";
note = uni15DB;
unicode = 5595;
},
{
color = 9;
glyphname = "thuCarrier-canadian";
lastChange = "2023-01-13 15:28:15 +0000";
layers = (
{
layerId = "9763B71A-4976-465B-BEF0-2F1E1DB14637";
shapes = (
{
closed = 1;
nodes = (
(576,-15,o),
(693,108,o),
(693,320,cs),
(693,714,l),
(58,714,l),
(58,319,ls),
(58,106,o),
(175,-15,o),
(376,-15,cs)
);
},
{
closed = 1;
nodes = (
(223,569,l),
(528,569,l),
(528,320,ls),
(528,195,o),
(475,135,o),
(375,135,cs),
(278,135,o),
(223,199,o),
(223,320,cs)
);
}
);
width = 751;
}
);
metricLeft = "te-canadian";
metricRight = "te-canadian";
note = uni15DC;
unicode = 5596;
},
{
color = 9;
glyphname = "thoCarrier-canadian";
lastChange = "2023-01-13 15:28:15 +0000";
layers = (
{
layerId = "9763B71A-4976-465B-BEF0-2F1E1DB14637";
shapes = (
{
closed = 1;
nodes = (
(693,0,l),
(693,395,ls),
(693,607,o),
(576,729,o),
(381,729,cs),
(179,729,o),
(58,607,o),
(58,395,cs),
(58,0,l)
);
},
{
closed = 1;
nodes = (
(223,394,ls),
(223,516,o),
(281,579,o),
(378,579,cs),
(474,579,o),
(528,515,o),
(528,394,cs),
(528,145,l),
(223,145,l)
);
}
);
width = 751;
}
);
metricLeft = "te-canadian";
metricRight = "te-canadian";
note = uni15DD;
unicode = 5597;
},
{
color = 9;
glyphname = "theCarrier-canadian";
lastChange = "2023-01-13 15:30:28 +0000";
layers = (
{
anchors = (
{
name = middle_center_can;
pos = (374,357);
}
);
layerId = "9763B71A-4976-465B-BEF0-2F1E1DB14637";
shapes = (
{
closed = 1;
nodes = (
(338,0,ls),
(566,0,o),
(699,129,o),
(699,358,cs),
(699,587,o),
(566,714,o),
(337,714,cs),
(65,714,l),
(65,0,l)
);
},
{
closed = 1;
nodes = (
(231,610,l),
(190,569,l),
(330,569,ls),
(461,569,o),
(533,501,o),
(533,358,cs),
(533,216,o),
(461,145,o),
(330,145,cs),
(190,145,l),
(231,104,l)
);
}
);
width = 751;
}
);
metricLeft = "nunavuth-canadian";
metricRight = "to-canadian";
note = uni15DE;
unicode = 5598;
},
{
color = 9;
glyphname = "thaCarrier-canadian";
lastChange = "2023-01-13 15:28:15 +0000";
layers = (
{
layerId = "9763B71A-4976-465B-BEF0-2F1E1DB14637";
shapes = (
{
closed = 1;
nodes = (
(687,0,l),
(687,714,l),
(415,714,ls),
(186,714,o),
(52,585,o),
(52,356,cs),
(52,127,o),
(186,0,o),
(414,0,cs)
);
},
{
closed = 1;
nodes = (
(219,499,o),
(290,569,o),
(421,569,cs),
(562,569,l),
(521,610,l),
(521,104,l),
(562,145,l),
(421,145,ls),
(290,145,o),
(219,214,o),
(219,356,cs)
);
}
);
width = 752;
}
);
metricLeft = "=|theCarrier-canadian";
metricRight = "nunavuth-canadian";
note = uni15E1;
unicode = 5601;
},
{
color = 9;
glyphname = "ttuCarrier-canadian";
lastChange = "2023-01-13 15:28:15 +0000";
layers = (
{
layerId = "9763B71A-4976-465B-BEF0-2F1E1DB14637";
shapes = (
{
closed = 1;
nodes = (
(576,-15,o),
(693,108,o),
(693,320,cs),
(693,714,l),
(645,714,l),
(354,536,l),
(398,536,l),
(107,714,l),
(58,714,l),
(58,319,ls),
(58,106,o),
(175,-15,o),
(376,-15,cs)
);
},
{
closed = 1;
nodes = (
(278,135,o),
(223,199,o),
(223,320,cs),
(223,582,l),
(73,578,l),
(362,400,l),
(390,400,l),
(680,578,l),
(528,582,l),
(528,320,ls),
(528,195,o),
(475,135,o),
(375,135,cs)
);
}
);
width = 751;
}
);
metricLeft = "te-canadian";
metricRight = "te-canadian";
note = uni15E2;
unicode = 5602;
},
{
color = 9;
glyphname = "ttoCarrier-canadian";
lastChange = "2023-01-13 15:28:15 +0000";
layers = (
{
layerId = "9763B71A-4976-465B-BEF0-2F1E1DB14637";
shapes = (
{
closed = 1;
nodes = (
(106,0,l),
(397,178,l),
(353,178,l),
(643,0,l),
(693,0,l),
(693,395,ls),
(693,608,o),
(576,729,o),
(375,729,cs),
(175,729,o),
(58,606,o),
(58,394,cs),
(58,0,l)
);
},
{
closed = 1;
nodes = (
(472,579,o),
(528,515,o),
(528,394,cs),
(528,132,l),
(678,136,l),
(389,314,l),
(361,314,l),
(71,136,l),
(223,132,l),
(223,394,ls),
(223,519,o),
(275,579,o),
(375,579,cs)
);
}
);
width = 751;
}
);
metricLeft = "te-canadian";
metricRight = "te-canadian";
note = uni15E3;
unicode = 5603;
},
{
color = 9;
glyphname = "tteCarrier-canadian";
lastChange = "2023-01-13 15:30:28 +0000";
layers = (
{
anchors = (
{
name = middle_center_can;
pos = (425,357);
}
);
layerId = "9763B71A-4976-465B-BEF0-2F1E1DB14637";
shapes = (
{
closed = 1;
nodes = (
(348,0,ls),
(576,0,o),
(709,129,o),
(709,358,cs),
(709,587,o),
(576,714,o),
(347,714,cs),
(57,714,l),
(57,674,l),
(184,338,l),
(184,375,l),
(57,40,l),
(57,0,l)
);
},
{
closed = 1;
nodes = (
(336,343,l),
(336,368,l),
(209,703,l),
(207,569,l),
(341,569,ls),
(472,569,o),
(545,501,o),
(545,358,cs),
(545,216,o),
(472,145,o),
(341,145,cs),
(207,145,l),
(209,7,l)
);
}
);
width = 761;
}
);
metricRight = "theCarrier-canadian";
note = uni15E4;
unicode = 5604;
},
{
color = 9;
glyphname = "ttaCarrier-canadian";
lastChange = "2023-01-13 15:28:15 +0000";
layers = (
{
layerId = "9763B71A-4976-465B-BEF0-2F1E1DB14637";
shapes = (
{
closed = 1;
nodes = (
(705,0,l),
(705,40,l),
(578,376,l),
(578,339,l),
(705,674,l),
(705,714,l),
(415,714,ls),
(186,714,o),
(52,585,o),
(52,356,cs),
(52,127,o),
(186,0,o),
(414,0,cs)
);
},
{
closed = 1;
nodes = (
(555,145,l),
(421,145,ls),
(290,145,o),
(217,214,o),
(217,356,cs),
(217,499,o),
(290,569,o),
(421,569,cs),
(555,569,l),
(553,707,l),
(426,371,l),
(426,346,l),
(553,11,l)
);
}
);
width = 762;
}
);
metricLeft = "=|theCarrier-canadian";
metricRight = "=|tteCarrier-canadian";
note = uni15E7;
unicode = 5607;
},
{
color = 9;
glyphname = "puCarrier-canadian";
lastChange = "2023-01-13 15:28:15 +0000";
layers = (
{
layerId = "9763B71A-4976-465B-BEF0-2F1E1DB14637";
shapes = (
{
closed = 1;
nodes = (
(576,-15,o),
(693,108,o),
(693,320,cs),
(693,714,l),
(527,714,l),
(527,575,l),
(224,575,l),
(224,714,l),
(58,714,l),
(58,319,ls),
(58,106,o),
(175,-15,o),
(376,-15,cs)
);
},
{
closed = 1;
nodes = (
(278,135,o),
(224,199,o),
(224,320,cs),
(224,429,l),
(527,429,l),
(527,320,ls),
(527,195,o),
(475,135,o),
(375,135,cs)
);
}
);
width = 751;
}
);
metricLeft = "te-canadian";
metricRight = "te-canadian";
note = uni15E8;
unicode = 5608;
},
{
color = 9;
glyphname = "poCarrier-canadian";
lastChange = "2023-01-13 15:28:15 +0000";
layers = (
{
layerId = "9763B71A-4976-465B-BEF0-2F1E1DB14637";
shapes = (
{
closed = 1;
nodes = (
(224,0,l),
(224,139,l),
(527,139,l),
(527,0,l),
(693,0,l),
(693,395,ls),
(693,607,o),
(577,729,o),
(381,729,cs),
(181,729,o),
(58,607,o),
(58,395,cs),
(58,0,l)
);
},
{
closed = 1;
nodes = (
(224,394,ls),
(224,516,o),
(281,579,o),
(378,579,cs),
(474,579,o),
(527,515,o),
(527,394,cs),
(527,285,l),
(224,285,l)
);
}
);
width = 751;
}
);
metricLeft = "te-canadian";
metricRight = "te-canadian";
note = uni15E9;
unicode = 5609;
},
{
color = 9;
glyphname = "peCarrier-canadian";
lastChange = "2023-01-13 15:30:28 +0000";
layers = (
{
anchors = (
{
name = middle_center_can;
pos = (413,357);
}
);
layerId = "9763B71A-4976-465B-BEF0-2F1E1DB14637";
shapes = (
{
closed = 1;
nodes = (
(347,0,ls),
(575,0,o),
(708,129,o),
(708,358,cs),
(708,587,o),
(575,714,o),
(346,714,cs),
(56,714,l),
(56,569,l),
(138,569,l),
(138,145,l),
(56,145,l),
(56,0,l)
);
},
{
closed = 1;
nodes = (
(302,610,l),
(253,569,l),
(340,569,ls),
(471,569,o),
(542,501,o),
(542,358,cs),
(542,216,o),
(471,145,o),
(340,145,cs),
(253,145,l),
(302,104,l)
);
}
);
width = 760;
}
);
metricRight = "theCarrier-canadian";
note = uni15EA;
unicode = 5610;
},
{
color = 9;
glyphname = "paCarrier-canadian";
lastChange = "2023-01-13 15:28:15 +0000";
layers = (
{
layerId = "9763B71A-4976-465B-BEF0-2F1E1DB14637";
shapes = (
{
closed = 1;
nodes = (
(705,0,l),
(705,145,l),
(623,145,l),
(623,569,l),
(705,569,l),
(705,714,l),
(415,714,ls),
(186,714,o),
(52,587,o),
(52,358,cs),
(52,129,o),
(186,0,o),
(414,0,cs)
);
},
{
closed = 1;
nodes = (
(508,145,l),
(421,145,ls),
(290,145,o),
(219,216,o),
(219,358,cs),
(219,501,o),
(290,569,o),
(421,569,cs),
(508,569,l),
(458,610,l),
(458,104,l)
);
}
);
width = 761;
}
);
metricLeft = "=|theCarrier-canadian";
metricRight = "=|peCarrier-canadian";
note = uni15ED;
unicode = 5613;
},
{
color = 6;
glyphname = "pCarrier-canadian";
lastChange = "2023-01-13 15:28:15 +0000";
layers = (
{
layerId = "9763B71A-4976-465B-BEF0-2F1E1DB14637";
shapes = (
{
closed = 1;
nodes = (
(391,189,l),
(391,296,l),
(280,296,l),
(280,546,l),
(167,546,l),
(167,296,l),
(55,296,l),
(55,189,l)
);
}
);
width = 446;
}
);
metricLeft = "shorthorizontalstrokeFinal-canadian";
metricRight = "shorthorizontalstrokeFinal-canadian";
note = uni15EE;
unicode = 5614;
},
{
color = 9;
glyphname = "guCarrier-canadian";
lastChange = "2023-01-13 15:28:15 +0000";
layers = (
{
anchors = (
{
name = top_center_can;
pos = (442,714);
}
);
layerId = "9763B71A-4976-465B-BEF0-2F1E1DB14637";
shapes = (
{
closed = 1;
nodes = (
(381,-15,o),
(448,35,o),
(480,132,c),
(404,132,l),
(443,31,o),
(509,-15,o),
(604,-15,cs),
(742,-15,o),
(822,77,o),
(822,226,cs),
(822,714,l),
(664,714,l),
(664,227,ls),
(664,164,o),
(640,131,o),
(594,131,cs),
(548,131,o),
(521,165,o),
(521,224,cs),
(521,714,l),
(365,714,l),
(365,224,ls),
(365,164,o),
(339,131,o),
(293,131,cs),
(245,131,o),
(219,164,o),
(219,227,cs),
(219,714,l),
(61,714,l),
(61,226,ls),
(61,76,o),
(147,-15,o),
(281,-15,cs)
);
}
);
width = 883;
}
);
metricRight = "=|";
note = uni15EF;
unicode = 5615;
},
{
color = 9;
glyphname = "goCarrier-canadian";
lastChange = "2023-01-13 15:28:15 +0000";
layers = (
{
layerId = "9763B71A-4976-465B-BEF0-2F1E1DB14637";
shapes = (
{
closed = 1;
nodes = (
(219,0,l),
(219,487,ls),
(219,550,o),
(243,583,o),
(289,583,cs),
(336,583,o),
(362,550,o),
(362,490,cs),
(362,0,l),
(519,0,l),
(519,490,ls),
(519,549,o),
(544,583,o),
(590,583,cs),
(638,583,o),
(664,550,o),
(664,487,cs),
(664,0,l),
(822,0,l),
(822,488,ls),
(822,638,o),
(736,729,o),
(602,729,cs),
(503,729,o),
(436,679,o),
(404,582,c),
(479,582,l),
(441,683,o),
(375,729,o),
(279,729,cs),
(141,729,o),
(61,637,o),
(61,488,cs),
(61,0,l)
);
}
);
width = 883;
}
);
metricLeft = "guCarrier-canadian";
metricRight = "guCarrier-canadian";
note = uni15F0;
unicode = 5616;
},
{
color = 9;
glyphname = "geCarrier-canadian";
lastChange = "2023-01-13 15:28:15 +0000";
layers = (
{
anchors = (
{
name = top_center_can;
pos = (382,714);
}
);
layerId = "9763B71A-4976-465B-BEF0-2F1E1DB14637";
shapes = (
{
closed = 1;
nodes = (
(466,0,ls),
(620,0,o),
(699,72,o),
(699,202,cs),
(699,285,o),
(648,353,o),
(568,385,c),
(568,328,l),
(651,356,o),
(699,419,o),
(699,510,cs),
(699,638,o),
(617,714,o),
(466,714,cs),
(65,714,l),
(65,580,l),
(436,580,ls),
(501,580,o),
(533,554,o),
(533,503,cs),
(533,450,o),
(500,424,o),
(437,424,cs),
(65,424,l),
(65,292,l),
(437,292,ls),
(499,292,o),
(533,266,o),
(533,211,cs),
(533,160,o),
(500,134,o),
(436,134,cs),
(65,134,l),
(65,0,l)
);
}
);
width = 760;
}
);
metricLeft = "nunavuth-canadian";
note = uni15F1;
unicode = 5617;
},
{
color = 9;
glyphname = "geeCarrier-canadian";
lastChange = "2023-01-13 15:28:15 +0000";
layers = (
{
layerId = "9763B71A-4976-465B-BEF0-2F1E1DB14637";
shapes = (
{
closed = 1;
nodes = (
(466,0,ls),
(620,0,o),
(699,72,o),
(699,202,cs),
(699,285,o),
(648,353,o),
(568,385,c),
(568,328,l),
(651,356,o),
(699,419,o),
(699,510,cs),
(699,638,o),
(617,714,o),
(466,714,cs),
(65,714,l),
(65,580,l),
(436,580,ls),
(501,580,o),
(533,554,o),
(533,503,cs),
(533,450,o),
(500,422,o),
(437,422,cs),
(362,422,l),
(362,501,l),
(270,501,l),
(270,422,l),
(65,422,l),
(65,293,l),
(270,293,l),
(270,214,l),
(362,214,l),
(362,293,l),
(437,293,ls),
(499,293,o),
(533,266,o),
(533,211,cs),
(533,160,o),
(500,134,o),
(436,134,cs),
(65,134,l),
(65,0,l)
);
}
);
width = 760;
}
);
metricLeft = "geCarrier-canadian";
metricRight = "geCarrier-canadian";
note = uni15F2;
unicode = 5618;
},
{
color = 9;
glyphname = "giCarrier-canadian";
lastChange = "2023-01-13 15:28:15 +0000";
layers = (
{
layerId = "9763B71A-4976-465B-BEF0-2F1E1DB14637";
shapes = (
{
closed = 1;
nodes = (
(466,0,ls),
(620,0,o),
(699,72,o),
(699,202,cs),
(699,279,o),
(655,342,o),
(587,375,c),
(586,336,l),
(658,366,o),
(699,425,o),
(699,510,cs),
(699,638,o),
(617,714,o),
(466,714,cs),
(65,714,l),
(65,580,l),
(436,580,ls),
(501,580,o),
(533,554,o),
(533,503,cs),
(533,450,o),
(500,422,o),
(443,422,cs),
(382,422,l),
(434,400,l),
(419,444,o),
(378,475,o),
(327,475,cs),
(286,475,o),
(251,454,o),
(230,422,c),
(65,422,l),
(65,293,l),
(230,293,l),
(250,261,o),
(286,240,o),
(327,240,cs),
(378,240,o),
(418,272,o),
(435,316,c),
(382,293,l),
(443,293,ls),
(499,293,o),
(533,266,o),
(533,211,cs),
(533,160,o),
(500,134,o),
(436,134,cs),
(65,134,l),
(65,0,l)
);
}
);
width = 760;
}
);
metricLeft = "geCarrier-canadian";
metricRight = "geCarrier-canadian";
note = uni15F3;
unicode = 5619;
},
{
color = 9;
glyphname = "gaCarrier-canadian";
lastChange = "2023-01-13 15:28:15 +0000";
layers = (
{
anchors = (
{
name = top_center_can;
pos = (396,714);
}
);
layerId = "9763B71A-4976-465B-BEF0-2F1E1DB14637";
shapes = (
{
closed = 1;
nodes = (
(695,0,l),
(695,134,l),
(323,134,ls),
(259,134,o),
(227,160,o),
(227,211,cs),
(227,266,o),
(261,292,o),
(322,292,cs),
(695,292,l),
(695,424,l),
(322,424,ls),
(260,424,o),
(227,450,o),
(227,503,cs),
(227,554,o),
(259,580,o),
(323,580,cs),
(695,580,l),
(695,714,l),
(294,714,ls),
(143,714,o),
(61,638,o),
(61,510,cs),
(61,419,o),
(109,357,o),
(192,330,c),
(192,386,l),
(112,354,o),
(61,285,o),
(61,202,cs),
(61,72,o),
(139,0,o),
(294,0,cs)
);
}
);
width = 760;
}
);
metricLeft = "=|geCarrier-canadian";
metricRight = "=|geCarrier-canadian";
note = uni15F4;
unicode = 5620;
},
{
color = 9;
glyphname = "khuCarrier-canadian";
lastChange = "2023-01-13 15:28:15 +0000";
layers = (
{
layerId = "9763B71A-4976-465B-BEF0-2F1E1DB14637";
shapes = (
{
closed = 1;
nodes = (
(381,-15,o),
(448,35,o),
(480,132,c),
(404,132,l),
(443,31,o),
(509,-15,o),
(604,-15,cs),
(742,-15,o),
(822,77,o),
(822,226,cs),
(822,714,l),
(61,714,l),
(61,226,ls),
(61,76,o),
(147,-15,o),
(281,-15,cs)
);
},
{
closed = 1;
nodes = (
(246,131,o),
(220,164,o),
(220,227,cs),
(220,573,l),
(365,573,l),
(365,224,ls),
(365,164,o),
(340,131,o),
(294,131,cs)
);
},
{
closed = 1;
nodes = (
(547,131,o),
(521,165,o),
(521,224,cs),
(521,573,l),
(663,573,l),
(663,227,ls),
(663,164,o),
(640,131,o),
(593,131,cs)
);
}
);
width = 883;
}
);
metricLeft = "guCarrier-canadian";
metricRight = "guCarrier-canadian";
note = uni15F5;
unicode = 5621;
},
{
color = 9;
glyphname = "khoCarrier-canadian";
lastChange = "2023-01-13 15:28:15 +0000";
layers = (
{
layerId = "9763B71A-4976-465B-BEF0-2F1E1DB14637";
shapes = (
{
closed = 1;
nodes = (
(822,0,l),
(822,488,ls),
(822,636,o),
(741,729,o),
(604,729,cs),
(508,729,o),
(441,682,o),
(404,582,c),
(480,582,l),
(446,679,o),
(379,729,o),
(280,729,cs),
(146,729,o),
(61,639,o),
(61,488,cs),
(61,0,l)
);
},
{
closed = 1;
nodes = (
(220,487,ls),
(220,550,o),
(246,583,o),
(293,583,cs),
(339,583,o),
(365,550,o),
(365,490,cs),
(365,141,l),
(220,141,l)
);
},
{
closed = 1;
nodes = (
(520,490,ls),
(520,549,o),
(546,583,o),
(593,583,cs),
(640,583,o),
(663,550,o),
(663,487,cs),
(663,141,l),
(520,141,l)
);
}
);
width = 883;
}
);
metricLeft = "guCarrier-canadian";
metricRight = "guCarrier-canadian";
note = uni15F6;
unicode = 5622;
},
{
color = 9;
glyphname = "kheCarrier-canadian";
lastChange = "2023-01-13 15:28:15 +0000";
layers = (
{
layerId = "9763B71A-4976-465B-BEF0-2F1E1DB14637";
shapes = (
{
closed = 1;
nodes = (
(474,0,ls),
(628,0,o),
(707,72,o),
(707,202,cs),
(707,285,o),
(656,353,o),
(576,385,c),
(576,328,l),
(659,356,o),
(707,419,o),
(707,510,cs),
(707,638,o),
(625,714,o),
(474,714,cs),
(65,714,l),
(65,0,l)
);
},
{
closed = 1;
nodes = (
(230,293,l),
(445,293,ls),
(507,293,o),
(541,266,o),
(541,211,cs),
(541,160,o),
(508,132,o),
(444,132,cs),
(230,132,l)
);
},
{
closed = 1;
nodes = (
(230,582,l),
(444,582,ls),
(509,582,o),
(541,554,o),
(541,503,cs),
(541,450,o),
(508,423,o),
(445,423,cs),
(230,423,l)
);
}
);
width = 768;
}
);
metricLeft = "nunavuth-canadian";
metricRight = "geCarrier-canadian";
note = uni15F7;
unicode = 5623;
},
{
color = 9;
glyphname = "kheeCarrier-canadian";
lastChange = "2023-01-13 15:28:15 +0000";
layers = (
{
layerId = "9763B71A-4976-465B-BEF0-2F1E1DB14637";
shapes = (
{
closed = 1;
nodes = (
(474,0,ls),
(628,0,o),
(707,72,o),
(707,202,cs),
(707,283,o),
(659,348,o),
(583,381,c),
(583,332,l),
(661,360,o),
(707,422,o),
(707,510,cs),
(707,638,o),
(625,714,o),
(474,714,cs),
(65,714,l),
(65,0,l)
);
},
{
closed = 1;
nodes = (
(230,294,l),
(326,294,l),
(326,213,l),
(429,213,l),
(429,334,l),
(384,294,l),
(451,294,ls),
(510,294,o),
(541,267,o),
(541,212,cs),
(541,160,o),
(508,132,o),
(444,132,cs),
(230,132,l)
);
},
{
closed = 1;
nodes = (
(429,502,l),
(326,502,l),
(326,421,l),
(230,421,l),
(230,582,l),
(444,582,ls),
(509,582,o),
(541,554,o),
(541,503,cs),
(541,448,o),
(511,421,o),
(451,421,cs),
(384,421,l),
(429,382,l)
);
}
);
width = 768;
}
);
metricLeft = "nunavuth-canadian";
metricRight = "geCarrier-canadian";
note = uni15F8;
unicode = 5624;
},
{
color = 9;
glyphname = "khiCarrier-canadian";
lastChange = "2023-01-13 15:28:15 +0000";
layers = (
{
layerId = "9763B71A-4976-465B-BEF0-2F1E1DB14637";
shapes = (
{
closed = 1;
nodes = (
(474,0,ls),
(628,0,o),
(707,72,o),
(707,202,cs),
(707,283,o),
(658,349,o),
(584,382,c),
(582,331,l),
(662,359,o),
(707,421,o),
(707,510,cs),
(707,638,o),
(625,714,o),
(474,714,cs),
(65,714,l),
(65,0,l)
);
},
{
closed = 1;
nodes = (
(230,297,l),
(277,297,l),
(297,263,o),
(333,240,o),
(376,240,cs),
(437,240,o),
(482,287,o),
(489,344,c),
(398,297,l),
(454,297,ls),
(510,297,o),
(541,269,o),
(541,213,cs),
(541,159,o),
(508,132,o),
(444,132,cs),
(230,132,l)
);
},
{
closed = 1;
nodes = (
(444,582,ls),
(509,582,o),
(541,555,o),
(541,501,cs),
(541,446,o),
(511,418,o),
(454,418,cs),
(399,418,l),
(490,371,l),
(482,430,o),
(437,475,o),
(376,475,cs),
(316,475,o),
(268,430,o),
(261,371,c),
(314,418,l),
(230,418,l),
(230,582,l)
);
}
);
width = 768;
}
);
metricLeft = "nunavuth-canadian";
metricRight = "geCarrier-canadian";
note = uni15F9;
unicode = 5625;
},
{
color = 9;
glyphname = "khaCarrier-canadian";
lastChange = "2023-01-13 15:28:15 +0000";
layers = (
{
layerId = "9763B71A-4976-465B-BEF0-2F1E1DB14637";
shapes = (
{
closed = 1;
nodes = (
(703,0,l),
(703,714,l),
(294,714,ls),
(143,714,o),
(61,638,o),
(61,510,cs),
(61,421,o),
(106,360,o),
(186,333,c),
(183,384,l),
(109,350,o),
(61,283,o),
(61,202,cs),
(61,72,o),
(139,0,o),
(294,0,cs)
);
},
{
closed = 1;
nodes = (
(259,132,o),
(227,160,o),
(227,211,cs),
(227,266,o),
(261,293,o),
(322,293,cs),
(538,293,l),
(538,132,l),
(323,132,ls)
);
},
{
closed = 1;
nodes = (
(260,423,o),
(227,450,o),
(227,503,cs),
(227,554,o),
(259,582,o),
(323,582,cs),
(538,582,l),
(538,423,l),
(322,423,ls)
);
}
);
width = 768;
}
);
metricLeft = "=|geCarrier-canadian";
metricRight = "nunavuth-canadian";
note = uni15FA;
unicode = 5626;
},
{
color = 9;
glyphname = "kkuCarrier-canadian";
lastChange = "2023-01-13 15:28:15 +0000";
layers = (
{
layerId = "9763B71A-4976-465B-BEF0-2F1E1DB14637";
shapes = (
{
closed = 1;
nodes = (
(381,-15,o),
(449,36,o),
(480,135,c),
(404,135,l),
(442,32,o),
(508,-15,o),
(604,-15,cs),
(742,-15,o),
(822,77,o),
(822,226,cs),
(822,714,l),
(775,714,l),
(494,572,l),
(494,419,l),
(768,553,l),
(664,563,l),
(664,227,ls),
(664,164,o),
(640,131,o),
(594,131,cs),
(547,131,o),
(520,165,o),
(520,224,cs),
(520,714,l),
(365,714,l),
(365,224,ls),
(365,164,o),
(340,131,o),
(293,131,cs),
(246,131,o),
(219,164,o),
(219,227,cs),
(219,563,l),
(117,552,l),
(389,420,l),
(389,573,l),
(110,714,l),
(61,714,l),
(61,226,ls),
(61,76,o),
(147,-15,o),
(281,-15,cs)
);
}
);
width = 883;
}
);
metricLeft = "guCarrier-canadian";
metricRight = "guCarrier-canadian";
note = uni15FB;
unicode = 5627;
},
{
color = 9;
glyphname = "kkoCarrier-canadian";
lastChange = "2023-01-13 15:28:15 +0000";
layers = (
{
layerId = "9763B71A-4976-465B-BEF0-2F1E1DB14637";
shapes = (
{
closed = 1;
nodes = (
(108,0,l),
(389,142,l),
(389,295,l),
(115,161,l),
(219,151,l),
(219,487,ls),
(219,550,o),
(243,583,o),
(289,583,cs),
(336,583,o),
(362,549,o),
(362,490,cs),
(362,0,l),
(518,0,l),
(518,490,ls),
(518,550,o),
(543,583,o),
(589,583,cs),
(637,583,o),
(664,550,o),
(664,487,cs),
(664,151,l),
(766,162,l),
(493,294,l),
(493,141,l),
(773,0,l),
(822,0,l),
(822,488,ls),
(822,638,o),
(736,729,o),
(602,729,cs),
(502,729,o),
(434,678,o),
(403,579,c),
(479,579,l),
(441,682,o),
(375,729,o),
(279,729,cs),
(141,729,o),
(61,637,o),
(61,488,cs),
(61,0,l)
);
}
);
width = 883;
}
);
metricLeft = "guCarrier-canadian";
metricRight = "guCarrier-canadian";
note = uni15FC;
unicode = 5628;
},
{
color = 9;
glyphname = "kkeCarrier-canadian";
lastChange = "2023-01-13 15:30:28 +0000";
layers = (
{
layerId = "9763B71A-4976-465B-BEF0-2F1E1DB14637";
shapes = (
{
closed = 1;
nodes = (
(488,0,ls),
(643,0,o),
(722,72,o),
(722,202,cs),
(722,283,o),
(673,349,o),
(599,382,c),
(597,331,l),
(676,359,o),
(722,421,o),
(722,510,cs),
(722,638,o),
(639,714,o),
(488,714,cs),
(60,714,l),
(60,674,l),
(155,424,l),
(80,424,l),
(80,292,l),
(155,292,l),
(60,40,l),
(60,0,l)
);
},
{
closed = 1;
nodes = (
(322,292,l),
(460,292,ls),
(521,292,o),
(556,266,o),
(556,211,cs),
(556,160,o),
(523,134,o),
(459,134,cs),
(188,134,l),
(235,64,l)
);
},
{
closed = 1;
nodes = (
(234,650,l),
(186,580,l),
(459,580,ls),
(523,580,o),
(556,554,o),
(556,503,cs),
(556,450,o),
(522,424,o),
(460,424,cs),
(320,424,l)
);
}
);
width = 783;
}
);
metricRight = "geCarrier-canadian";
note = uni15FD;
unicode = 5629;
},
{
color = 9;
glyphname = "kkeeCarrier-canadian";
lastChange = "2023-01-13 15:30:28 +0000";
layers = (
{
layerId = "9763B71A-4976-465B-BEF0-2F1E1DB14637";
shapes = (
{
closed = 1;
nodes = (
(488,0,ls),
(643,0,o),
(722,72,o),
(722,202,cs),
(722,283,o),
(673,349,o),
(599,382,c),
(597,331,l),
(676,359,o),
(722,421,o),
(722,510,cs),
(722,638,o),
(639,714,o),
(488,714,cs),
(60,714,l),
(60,674,l),
(155,424,l),
(80,424,l),
(80,292,l),
(155,292,l),
(60,40,l),
(60,0,l)
);
},
{
closed = 1;
nodes = (
(321,296,l),
(363,296,l),
(363,214,l),
(466,214,l),
(466,322,l),
(429,296,l),
(471,296,ls),
(524,296,o),
(556,269,o),
(556,213,cs),
(556,161,o),
(523,134,o),
(459,134,cs),
(186,134,l),
(235,64,l)
);
},
{
closed = 1;
nodes = (
(466,501,l),
(363,501,l),
(363,420,l),
(319,420,l),
(233,650,l),
(185,580,l),
(459,580,ls),
(523,580,o),
(556,554,o),
(556,501,cs),
(556,446,o),
(525,420,o),
(471,420,cs),
(429,420,l),
(466,397,l)
);
}
);
width = 783;
}
);
metricLeft = "kkeCarrier-canadian";
metricRight = "geCarrier-canadian";
note = uni15FE;
unicode = 5630;
},
{
color = 9;
glyphname = "kkiCarrier-canadian";
lastChange = "2023-01-13 15:30:28 +0000";
layers = (
{
layerId = "9763B71A-4976-465B-BEF0-2F1E1DB14637";
shapes = (
{
closed = 1;
nodes = (
(488,0,ls),
(643,0,o),
(722,72,o),
(722,202,cs),
(722,283,o),
(673,349,o),
(599,382,c),
(597,331,l),
(676,359,o),
(722,421,o),
(722,510,cs),
(722,638,o),
(639,714,o),
(488,714,cs),
(60,714,l),
(60,674,l),
(155,424,l),
(80,424,l),
(80,292,l),
(155,292,l),
(60,40,l),
(60,0,l)
);
},
{
closed = 1;
nodes = (
(322,299,l),
(314,299,l),
(333,263,o),
(369,240,o),
(413,240,cs),
(474,240,o),
(518,288,o),
(523,341,c),
(445,299,l),
(471,299,ls),
(524,299,o),
(556,269,o),
(556,211,cs),
(556,161,o),
(523,134,o),
(459,134,cs),
(186,134,l),
(235,64,l)
);
},
{
closed = 1;
nodes = (
(518,429,o),
(475,475,o),
(413,475,cs),
(370,475,o),
(334,452,o),
(315,417,c),
(320,417,l),
(233,650,l),
(185,580,l),
(459,580,ls),
(523,580,o),
(556,554,o),
(556,499,cs),
(556,446,o),
(525,417,o),
(471,417,cs),
(446,417,l),
(525,374,l)
);
}
);
width = 783;
}
);
metricLeft = "kkeCarrier-canadian";
metricRight = "geCarrier-canadian";
note = uni15FF;
unicode = 5631;
},
{
color = 9;
glyphname = "kkaCarrier-canadian";
lastChange = "2023-01-13 15:28:15 +0000";
layers = (
{
layerId = "9763B71A-4976-465B-BEF0-2F1E1DB14637";
shapes = (
{
closed = 1;
nodes = (
(722,0,l),
(722,40,l),
(627,292,l),
(700,292,l),
(700,424,l),
(627,424,l),
(722,674,l),
(722,714,l),
(294,714,ls),
(143,714,o),
(61,638,o),
(61,510,cs),
(61,421,o),
(106,360,o),
(186,333,c),
(183,384,l),
(109,350,o),
(61,283,o),
(61,202,cs),
(61,72,o),
(139,0,o),
(294,0,cs)
);
},
{
closed = 1;
nodes = (
(596,134,l),
(323,134,ls),
(259,134,o),
(227,160,o),
(227,211,cs),
(227,266,o),
(261,292,o),
(322,292,cs),
(461,292,l),
(548,64,l)
);
},
{
closed = 1;
nodes = (
(260,424,o),
(227,450,o),
(227,503,cs),
(227,554,o),
(259,580,o),
(323,580,cs),
(595,580,l),
(547,650,l),
(461,424,l),
(322,424,ls)
);
}
);
width = 782;
}
);
metricLeft = "=|geCarrier-canadian";
metricRight = "=|kkeCarrier-canadian";
note = uni1600;
unicode = 5632;
},
{
color = 6;
glyphname = "kkCarrier-canadian";
lastChange = "2023-01-13 15:28:15 +0000";
layers = (
{
layerId = "9763B71A-4976-465B-BEF0-2F1E1DB14637";
shapes = (
{
closed = 1;
nodes = (
(225,189,l),
(389,526,l),
(389,546,l),
(279,546,l),
(170,310,l),
(256,310,l),
(148,546,l),
(36,546,l),
(36,526,l),
(200,189,l)
);
}
);
width = 425;
}
);
note = uni1601;
unicode = 5633;
},
{
color = 9;
glyphname = "nuCarrier-canadian";
lastChange = "2023-01-13 15:28:15 +0000";
layers = (
{
layerId = "9763B71A-4976-465B-BEF0-2F1E1DB14637";
shapes = (
{
closed = 1;
nodes = (
(583,-15,o),
(693,104,o),
(693,296,cs),
(693,324,l),
(529,324,l),
(529,291,ls),
(529,188,o),
(475,135,o),
(382,135,cs),
(274,135,o),
(224,194,o),
(224,322,cs),
(224,714,l),
(58,714,l),
(58,318,ls),
(58,100,o),
(173,-15,o),
(378,-15,cs)
);
}
);
width = 741;
}
);
metricLeft = "te-canadian";
note = uni1602;
unicode = 5634;
},
{
color = 9;
glyphname = "noCarrier-canadian";
lastChange = "2023-01-13 15:28:15 +0000";
layers = (
{
layerId = "9763B71A-4976-465B-BEF0-2F1E1DB14637";
shapes = (
{
closed = 1;
nodes = (
(683,0,l),
(683,396,ls),
(683,614,o),
(567,729,o),
(362,729,cs),
(158,729,o),
(48,610,o),
(48,418,cs),
(48,390,l),
(212,390,l),
(212,423,ls),
(212,526,o),
(266,579,o),
(359,579,cs),
(467,579,o),
(517,520,o),
(517,392,cs),
(517,0,l)
);
}
);
width = 741;
}
);
metricLeft = "=|nuCarrier-canadian";
metricRight = "te-canadian";
note = uni1603;
unicode = 5635;
},
{
color = 9;
glyphname = "neCarrier-canadian";
lastChange = "2023-01-13 15:28:15 +0000";
layers = (
{
anchors = (
{
name = middle_center_can;
pos = (362,356);
}
);
layerId = "9763B71A-4976-465B-BEF0-2F1E1DB14637";
shapes = (
{
closed = 1;
nodes = (
(343,0,ls),
(570,0,o),
(704,129,o),
(704,358,cs),
(704,587,o),
(570,714,o),
(341,714,cs),
(42,714,l),
(42,565,l),
(335,565,ls),
(463,565,o),
(539,497,o),
(539,357,cs),
(539,216,o),
(463,147,o),
(336,147,cs),
(316,147,l),
(316,0,l)
);
}
);
width = 756;
}
);
metricRight = "theCarrier-canadian";
note = uni1604;
unicode = 5636;
},
{
color = 9;
glyphname = "naCarrier-canadian";
lastChange = "2023-01-13 15:28:15 +0000";
layers = (
{
layerId = "9763B71A-4976-465B-BEF0-2F1E1DB14637";
shapes = (
{
closed = 1;
nodes = (
(714,0,l),
(714,149,l),
(421,149,ls),
(293,149,o),
(217,217,o),
(217,357,cs),
(217,498,o),
(293,567,o),
(420,567,cs),
(440,567,l),
(440,714,l),
(413,714,ls),
(186,714,o),
(52,585,o),
(52,356,cs),
(52,127,o),
(186,0,o),
(414,0,cs)
);
}
);
width = 756;
}
);
metricLeft = "=|theCarrier-canadian";
metricRight = "=|neCarrier-canadian";
note = uni1607;
unicode = 5639;
},
{
color = 9;
glyphname = "muCarrier-canadian";
lastChange = "2023-01-13 15:28:15 +0000";
layers = (
{
layerId = "9763B71A-4976-465B-BEF0-2F1E1DB14637";
shapes = (
{
closed = 1;
nodes = (
(381,-15,o),
(448,35,o),
(480,132,c),
(404,132,l),
(443,31,o),
(509,-15,o),
(604,-15,cs),
(742,-15,o),
(822,77,o),
(822,226,cs),
(822,409,l),
(664,409,l),
(664,227,ls),
(664,164,o),
(640,131,o),
(594,131,cs),
(548,131,o),
(521,165,o),
(521,224,cs),
(521,409,l),
(365,409,l),
(365,224,ls),
(365,164,o),
(339,131,o),
(293,131,cs),
(245,131,o),
(219,164,o),
(219,227,cs),
(219,714,l),
(61,714,l),
(61,226,ls),
(61,76,o),
(147,-15,o),
(281,-15,cs)
);
}
);
width = 883;
}
);
metricLeft = "guCarrier-canadian";
metricRight = "=|";
note = uni1608;
unicode = 5640;
},
{
color = 9;
glyphname = "moCarrier-canadian";
lastChange = "2023-01-13 15:28:15 +0000";
layers = (
{
layerId = "9763B71A-4976-465B-BEF0-2F1E1DB14637";
shapes = (
{
closed = 1;
nodes = (
(822,0,l),
(822,488,ls),
(822,638,o),
(736,729,o),
(602,729,cs),
(503,729,o),
(436,679,o),
(404,582,c),
(479,582,l),
(441,683,o),
(375,729,o),
(279,729,cs),
(141,729,o),
(61,637,o),
(61,488,cs),
(61,305,l),
(219,305,l),
(219,487,ls),
(219,550,o),
(243,583,o),
(289,583,cs),
(336,583,o),
(362,549,o),
(362,490,cs),
(362,305,l),
(519,305,l),
(519,490,ls),
(519,549,o),
(544,583,o),
(590,583,cs),
(638,583,o),
(664,550,o),
(664,487,cs),
(664,0,l)
);
}
);
width = 883;
}
);
metricLeft = "=|muCarrier-canadian";
metricRight = "guCarrier-canadian";
note = uni1609;
unicode = 5641;
},
{
color = 9;
glyphname = "meCarrier-canadian";
lastChange = "2023-01-13 15:30:28 +0000";
layers = (
{
layerId = "9763B71A-4976-465B-BEF0-2F1E1DB14637";
shapes = (
{
closed = 1;
nodes = (
(470,0,ls),
(625,0,o),
(704,72,o),
(704,202,cs),
(704,285,o),
(652,353,o),
(572,385,c),
(572,328,l),
(655,356,o),
(704,419,o),
(704,510,cs),
(704,638,o),
(621,714,o),
(470,714,cs),
(42,714,l),
(42,580,l),
(441,580,ls),
(505,580,o),
(538,554,o),
(538,503,cs),
(538,450,o),
(504,424,o),
(442,424,cs),
(297,424,l),
(297,292,l),
(442,292,ls),
(503,292,o),
(538,266,o),
(538,211,cs),
(538,160,o),
(505,134,o),
(441,134,cs),
(297,134,l),
(297,0,l)
);
}
);
width = 765;
}
);
metricLeft = "neCarrier-canadian";
metricRight = "geCarrier-canadian";
note = uni160A;
unicode = 5642;
},
{
color = 9;
glyphname = "meeCarrier-canadian";
lastChange = "2023-01-13 15:30:28 +0000";
layers = (
{
layerId = "9763B71A-4976-465B-BEF0-2F1E1DB14637";
shapes = (
{
closed = 1;
nodes = (
(470,0,ls),
(625,0,o),
(704,72,o),
(704,202,cs),
(704,283,o),
(655,349,o),
(581,382,c),
(579,331,l),
(658,359,o),
(704,421,o),
(704,510,cs),
(704,638,o),
(621,714,o),
(470,714,cs),
(42,714,l),
(42,580,l),
(441,580,ls),
(505,580,o),
(538,554,o),
(538,501,cs),
(538,447,o),
(506,420,o),
(447,420,cs),
(403,420,l),
(403,493,l),
(297,493,l),
(297,221,l),
(403,221,l),
(403,295,l),
(446,295,ls),
(506,295,o),
(538,268,o),
(538,213,cs),
(538,161,o),
(505,134,o),
(441,134,cs),
(297,134,l),
(297,0,l)
);
}
);
width = 765;
}
);
metricLeft = "neCarrier-canadian";
metricRight = "geCarrier-canadian";
note = uni160B;
unicode = 5643;
},
{
color = 9;
glyphname = "miCarrier-canadian";
lastChange = "2023-01-13 15:30:28 +0000";
layers = (
{
layerId = "9763B71A-4976-465B-BEF0-2F1E1DB14637";
shapes = (
{
closed = 1;
nodes = (
(470,0,ls),
(625,0,o),
(704,72,o),
(704,202,cs),
(704,283,o),
(655,349,o),
(581,382,c),
(579,331,l),
(658,359,o),
(704,421,o),
(704,510,cs),
(704,638,o),
(621,714,o),
(470,714,cs),
(42,714,l),
(42,580,l),
(440,580,ls),
(505,580,o),
(538,554,o),
(538,501,cs),
(538,447,o),
(506,420,o),
(455,420,cs),
(373,420,l),
(465,374,l),
(457,432,o),
(411,475,o),
(350,475,cs),
(284,475,o),
(234,423,o),
(234,358,cs),
(234,292,o),
(284,240,o),
(350,240,cs),
(410,240,o),
(456,286,o),
(463,341,c),
(372,295,l),
(455,295,ls),
(506,295,o),
(538,268,o),
(538,213,cs),
(538,161,o),
(505,134,o),
(441,134,cs),
(297,134,l),
(297,0,l)
);
}
);
width = 765;
}
);
metricLeft = "neCarrier-canadian";
metricRight = "geCarrier-canadian";
note = uni160C;
unicode = 5644;
},
{
color = 9;
glyphname = "maCarrier-canadian";
lastChange = "2023-01-13 15:28:15 +0000";
layers = (
{
layerId = "9763B71A-4976-465B-BEF0-2F1E1DB14637";
shapes = (
{
closed = 1;
nodes = (
(722,0,l),
(722,134,l),
(323,134,ls),
(259,134,o),
(227,159,o),
(227,211,cs),
(227,265,o),
(260,291,o),
(322,291,cs),
(468,291,l),
(468,423,l),
(323,423,ls),
(260,423,o),
(227,450,o),
(227,503,cs),
(227,554,o),
(259,580,o),
(323,580,cs),
(468,580,l),
(468,714,l),
(294,714,ls),
(142,714,o),
(61,639,o),
(61,511,cs),
(61,421,o),
(110,359,o),
(192,330,c),
(192,386,l),
(111,356,o),
(61,288,o),
(61,202,cs),
(61,73,o),
(141,0,o),
(294,0,cs)
);
}
);
width = 764;
}
);
metricLeft = "=|geCarrier-canadian";
metricRight = "=|neCarrier-canadian";
note = uni160D;
unicode = 5645;
},
{
color = 9;
glyphname = "yuCarrier-canadian";
lastChange = "2023-01-13 15:28:15 +0000";
layers = (
{
layerId = "9763B71A-4976-465B-BEF0-2F1E1DB14637";
shapes = (
{
closed = 1;
nodes = (
(613,-15,o),
(742,139,o),
(742,396,cs),
(742,622,o),
(647,729,o),
(513,729,cs),
(394,729,o),
(305,648,o),
(305,507,cs),
(305,375,o),
(387,296,o),
(497,296,cs),
(509,296,o),
(524,298,o),
(536,301,c),
(536,431,l),
(530,430,o),
(523,430,o),
(514,430,cs),
(473,430,o),
(450,458,o),
(450,514,cs),
(450,567,o),
(472,595,o),
(507,595,cs),
(551,595,o),
(583,555,o),
(583,400,cs),
(583,208,o),
(512,135,o),
(398,135,cs),
(287,135,o),
(224,202,o),
(224,345,cs),
(224,714,l),
(58,714,l),
(58,334,ls),
(58,111,o),
(193,-15,o),
(390,-15,cs)
);
}
);
width = 800;
}
);
metricLeft = "te-canadian";
metricRight = "te-canadian";
note = uni160E;
unicode = 5646;
},
{
color = 9;
glyphname = "yoCarrier-canadian";
lastChange = "2023-01-13 15:28:15 +0000";
layers = (
{
layerId = "9763B71A-4976-465B-BEF0-2F1E1DB14637";
shapes = (
{
closed = 1;
nodes = (
(406,-15,o),
(494,66,o),
(494,207,cs),
(494,339,o),
(413,418,o),
(303,418,cs),
(291,418,o),
(276,416,o),
(264,413,c),
(264,283,l),
(270,284,o),
(277,284,o),
(286,284,cs),
(327,284,o),
(350,256,o),
(350,200,cs),
(350,147,o),
(328,119,o),
(292,119,cs),
(248,119,o),
(217,159,o),
(217,314,cs),
(217,506,o),
(287,579,o),
(402,579,cs),
(513,579,o),
(576,512,o),
(576,369,cs),
(576,0,l),
(742,0,l),
(742,380,ls),
(742,603,o),
(607,729,o),
(409,729,cs),
(187,729,o),
(58,575,o),
(58,318,cs),
(58,92,o),
(152,-15,o),
(287,-15,cs)
);
}
);
width = 800;
}
);
metricLeft = "te-canadian";
metricRight = "te-canadian";
note = uni160F;
unicode = 5647;
},
{
color = 9;
glyphname = "yeCarrier-canadian";
lastChange = "2023-01-13 15:30:28 +0000";
layers = (
{
layerId = "9763B71A-4976-465B-BEF0-2F1E1DB14637";
shapes = (
{
closed = 1;
nodes = (
(562,-15,o),
(698,125,o),
(698,350,cs),
(698,591,o),
(560,714,o),
(309,714,cs),
(64,714,l),
(64,565,l),
(314,565,ls),
(461,565,o),
(533,499,o),
(533,344,cs),
(533,198,o),
(475,125,o),
(338,125,cs),
(235,125,o),
(194,167,o),
(194,231,cs),
(194,281,o),
(216,306,o),
(249,306,cs),
(284,306,o),
(305,279,o),
(305,229,cs),
(305,212,o),
(304,201,o),
(304,191,c),
(435,191,l),
(439,208,o),
(440,223,o),
(440,242,cs),
(440,353,o),
(370,437,o),
(250,437,cs),
(127,437,o),
(50,350,o),
(50,229,cs),
(50,87,o),
(155,-15,o),
(339,-15,cs)
);
}
);
width = 750;
}
);
metricRight = "theCarrier-canadian";
note = uni1610;
unicode = 5648;
},
{
color = 9;
glyphname = "yeeCarrier-canadian";
lastChange = "2023-01-13 15:30:28 +0000";
layers = (
{
layerId = "9763B71A-4976-465B-BEF0-2F1E1DB14637";
shapes = (
{
closed = 1;
nodes = (
(562,-15,o),
(698,125,o),
(698,350,cs),
(698,591,o),
(560,714,o),
(309,714,cs),
(64,714,l),
(64,565,l),
(314,565,ls),
(461,565,o),
(533,499,o),
(533,345,cs),
(533,198,o),
(477,125,o),
(337,125,cs),
(235,125,o),
(194,166,o),
(194,232,cs),
(194,280,o),
(216,306,o),
(247,306,cs),
(281,306,o),
(302,279,o),
(302,232,cs),
(302,196,l),
(391,196,l),
(391,500,l),
(302,500,l),
(302,331,l),
(316,331,l),
(314,397,o),
(275,437,o),
(209,437,cs),
(116,437,o),
(50,353,o),
(50,230,cs),
(50,87,o),
(153,-15,o),
(338,-15,cs)
);
}
);
width = 750;
}
);
metricRight = "theCarrier-canadian";
metricWidth = "yeCarrier-canadian";
note = uni1611;
unicode = 5649;
},
{
color = 9;
glyphname = "yiCarrier-canadian";
lastChange = "2023-01-13 15:30:28 +0000";
layers = (
{
layerId = "9763B71A-4976-465B-BEF0-2F1E1DB14637";
shapes = (
{
closed = 1;
nodes = (
(562,-15,o),
(698,125,o),
(698,350,cs),
(698,591,o),
(560,714,o),
(309,714,cs),
(64,714,l),
(64,565,l),
(314,565,ls),
(461,565,o),
(533,499,o),
(533,344,cs),
(533,198,o),
(475,125,o),
(345,125,cs),
(236,125,o),
(194,167,o),
(194,231,cs),
(194,294,o),
(226,315,o),
(297,308,c),
(222,348,l),
(227,300,o),
(267,261,o),
(321,261,cs),
(378,261,o),
(418,306,o),
(418,358,cs),
(418,412,o),
(376,453,o),
(320,453,cs),
(289,453,o),
(261,440,o),
(244,419,c),
(118,412,o),
(50,333,o),
(50,220,cs),
(50,86,o),
(155,-15,o),
(339,-15,cs)
);
}
);
width = 750;
}
);
metricRight = "theCarrier-canadian";
metricWidth = "yeCarrier-canadian";
note = uni1612;
unicode = 5650;
},
{
color = 9;
glyphname = "yaCarrier-canadian";
lastChange = "2023-01-13 15:28:15 +0000";
layers = (
{
layerId = "9763B71A-4976-465B-BEF0-2F1E1DB14637";
shapes = (
{
closed = 1;
nodes = (
(687,0,l),
(687,149,l),
(436,149,ls),
(290,149,o),
(217,215,o),
(217,370,cs),
(217,516,o),
(275,589,o),
(414,589,cs),
(516,589,o),
(557,547,o),
(557,483,cs),
(557,433,o),
(535,408,o),
(502,408,cs),
(467,408,o),
(445,435,o),
(445,485,cs),
(445,502,o),
(446,513,o),
(447,523,c),
(316,523,l),
(312,506,o),
(311,491,o),
(311,472,cs),
(311,361,o),
(381,277,o),
(501,277,cs),
(624,277,o),
(701,364,o),
(701,485,cs),
(701,627,o),
(596,729,o),
(412,729,cs),
(189,729,o),
(52,589,o),
(52,364,cs),
(52,123,o),
(191,0,o),
(442,0,cs)
);
}
);
width = 751;
}
);
metricLeft = "=|theCarrier-canadian";
metricRight = "=|yeCarrier-canadian";
note = uni1613;
unicode = 5651;
},
{
color = 9;
glyphname = "juCarrier-canadian";
lastChange = "2023-01-13 15:30:28 +0000";
layers = (
{
layerId = "9763B71A-4976-465B-BEF0-2F1E1DB14637";
shapes = (
{
closed = 1;
nodes = (
(606,-15,o),
(714,85,o),
(714,231,cs),
(714,350,o),
(637,437,o),
(514,437,cs),
(394,437,o),
(323,353,o),
(323,242,cs),
(323,223,o),
(325,208,o),
(329,191,c),
(460,191,l),
(459,201,o),
(458,213,o),
(458,229,cs),
(458,278,o),
(480,306,o),
(515,306,cs),
(548,306,o),
(569,280,o),
(569,233,cs),
(569,165,o),
(526,125,o),
(424,125,cs),
(287,125,o),
(228,192,o),
(228,317,cs),
(228,498,o),
(344,565,o),
(538,565,cs),
(700,565,l),
(700,714,l),
(54,714,l),
(54,572,l),
(322,572,l),
(437,629,l),
(188,629,o),
(63,504,o),
(63,309,cs),
(63,118,o),
(198,-15,o),
(418,-15,cs)
);
}
);
width = 764;
}
);
metricRight = "=|yeCarrier-canadian";
note = uni1614;
unicode = 5652;
},
{
color = 9;
glyphname = "juSayisi-canadian";
lastChange = "2023-01-13 15:28:15 +0000";
layers = (
{
anchors = (
{
name = top_center_can;
pos = (384,714);
}
);
layerId = "9763B71A-4976-465B-BEF0-2F1E1DB14637";
shapes = (
{
closed = 1;
nodes = (
(565,-15,o),
(700,118,o),
(700,309,cs),
(700,504,o),
(576,629,o),
(326,629,c),
(442,572,l),
(709,572,l),
(709,714,l),
(64,714,l),
(64,565,l),
(225,565,ls),
(420,565,o),
(536,498,o),
(536,317,cs),
(536,192,o),
(476,125,o),
(339,125,cs),
(237,125,o),
(194,165,o),
(194,233,cs),
(194,280,o),
(216,306,o),
(249,306,cs),
(283,306,o),
(305,278,o),
(305,229,cs),
(305,213,o),
(304,201,o),
(304,191,c),
(435,191,l),
(439,208,o),
(440,223,o),
(440,242,cs),
(440,353,o),
(369,437,o),
(249,437,cs),
(127,437,o),
(50,350,o),
(50,231,cs),
(50,85,o),
(157,-15,o),
(345,-15,cs)
);
}
);
width = 763;
}
);
metricLeft = "yeCarrier-canadian";
metricRight = "=|juCarrier-canadian";
note = uni1615;
unicode = 5653;
},
{
color = 9;
glyphname = "joCarrier-canadian";
lastChange = "2023-01-13 15:28:15 +0000";
layers = (
{
layerId = "9763B71A-4976-465B-BEF0-2F1E1DB14637";
shapes = (
{
closed = 1;
nodes = (
(709,0,l),
(709,142,l),
(442,142,l),
(326,85,l),
(576,85,o),
(700,210,o),
(700,405,cs),
(700,596,o),
(565,729,o),
(345,729,cs),
(157,729,o),
(50,629,o),
(50,483,cs),
(50,364,o),
(127,277,o),
(249,277,cs),
(369,277,o),
(440,361,o),
(440,472,cs),
(440,491,o),
(439,506,o),
(435,523,c),
(304,523,l),
(304,513,o),
(305,501,o),
(305,485,cs),
(305,436,o),
(283,408,o),
(249,408,cs),
(216,408,o),
(194,434,o),
(194,481,cs),
(194,549,o),
(237,589,o),
(339,589,cs),
(476,589,o),
(536,522,o),
(536,397,cs),
(536,216,o),
(420,149,o),
(225,149,cs),
(64,149,l),
(64,0,l)
);
}
);
width = 763;
}
);
metricLeft = "yeCarrier-canadian";
metricRight = "=|juCarrier-canadian";
note = uni1616;
unicode = 5654;
},
{
color = 9;
glyphname = "jeCarrier-canadian";
lastChange = "2023-01-13 15:28:15 +0000";
layers = (
{
layerId = "9763B71A-4976-465B-BEF0-2F1E1DB14637";
shapes = (
{
closed = 1;
nodes = (
(654,-15,o),
(749,92,o),
(749,318,cs),
(749,585,o),
(620,729,o),
(445,729,cs),
(311,729,o),
(217,649,o),
(202,484,c),
(229,489,l),
(229,714,l),
(65,714,l),
(65,0,l),
(231,0,l),
(231,269,ls),
(231,492,o),
(299,579,o),
(418,579,cs),
(522,579,o),
(590,503,o),
(590,315,cs),
(590,159,o),
(559,119,o),
(516,119,cs),
(480,119,o),
(457,147,o),
(457,200,cs),
(457,256,o),
(480,284,o),
(521,284,cs),
(529,284,o),
(537,284,o),
(543,283,c),
(543,413,l),
(531,416,o),
(516,418,o),
(504,418,cs),
(393,418,o),
(312,339,o),
(312,207,cs),
(312,66,o),
(401,-15,o),
(520,-15,cs)
);
}
);
width = 807;
}
);
metricLeft = "nunavuth-canadian";
metricRight = "te-canadian";
note = uni1617;
unicode = 5655;
},
{
color = 9;
glyphname = "jeeCarrier-canadian";
lastChange = "2023-01-13 15:28:15 +0000";
layers = (
{
layerId = "9763B71A-4976-465B-BEF0-2F1E1DB14637";
shapes = (
{
closed = 1;
nodes = (
(654,-15,o),
(749,92,o),
(749,318,cs),
(749,585,o),
(620,729,o),
(445,729,cs),
(327,729,o),
(239,669,o),
(210,544,c),
(229,522,l),
(229,714,l),
(65,714,l),
(65,0,l),
(231,0,l),
(231,269,ls),
(231,492,o),
(299,579,o),
(418,579,cs),
(522,579,o),
(590,503,o),
(590,315,cs),
(590,177,o),
(557,119,o),
(487,119,cs),
(430,119,o),
(401,157,o),
(401,218,cs),
(401,260,o),
(413,290,o),
(437,308,c),
(437,232,l),
(521,232,l),
(521,478,l),
(437,478,l),
(437,398,l),
(364,374,o),
(312,305,o),
(312,200,cs),
(312,65,o),
(395,-15,o),
(514,-15,cs)
);
}
);
width = 807;
}
);
metricLeft = "nunavuth-canadian";
metricRight = "jeCarrier-canadian";
note = uni1618;
unicode = 5656;
},
{
color = 9;
glyphname = "jiCarrier-canadian";
lastChange = "2023-01-13 15:28:15 +0000";
layers = (
{
layerId = "9763B71A-4976-465B-BEF0-2F1E1DB14637";
shapes = (
{
closed = 1;
nodes = (
(654,-15,o),
(749,92,o),
(749,318,cs),
(749,585,o),
(620,729,o),
(445,729,cs),
(327,729,o),
(239,669,o),
(210,544,c),
(229,522,l),
(229,714,l),
(65,714,l),
(65,0,l),
(231,0,l),
(231,269,ls),
(231,492,o),
(299,579,o),
(418,579,cs),
(522,579,o),
(590,503,o),
(590,315,cs),
(590,177,o),
(557,119,o),
(487,119,cs),
(430,119,o),
(401,157,o),
(401,218,cs),
(401,240,o),
(405,255,o),
(413,267,c),
(422,262,o),
(433,259,o),
(444,259,cs),
(500,259,o),
(538,304,o),
(538,356,cs),
(538,410,o),
(498,451,o),
(444,451,cs),
(377,451,o),
(339,389,o),
(353,332,c),
(328,300,o),
(312,256,o),
(312,200,cs),
(312,65,o),
(395,-15,o),
(514,-15,cs)
);
}
);
width = 807;
}
);
metricLeft = "nunavuth-canadian";
metricRight = "jeCarrier-canadian";
note = uni1619;
unicode = 5657;
},
{
color = 9;
glyphname = "jiSayisi-canadian";
lastChange = "2023-01-13 15:28:15 +0000";
layers = (
{
layerId = "9763B71A-4976-465B-BEF0-2F1E1DB14637";
shapes = (
{
closed = 1;
nodes = (
(620,-15,o),
(749,129,o),
(749,396,cs),
(749,622,o),
(654,729,o),
(520,729,cs),
(401,729,o),
(312,648,o),
(312,507,cs),
(312,375,o),
(393,296,o),
(504,296,cs),
(516,296,o),
(531,298,o),
(543,301,c),
(543,431,l),
(537,430,o),
(529,430,o),
(521,430,cs),
(480,430,o),
(457,458,o),
(457,514,cs),
(457,567,o),
(479,595,o),
(513,595,cs),
(558,595,o),
(590,555,o),
(590,399,cs),
(590,211,o),
(522,135,o),
(418,135,cs),
(299,135,o),
(231,222,o),
(231,445,cs),
(231,714,l),
(65,714,l),
(65,0,l),
(229,0,l),
(229,225,l),
(202,230,l),
(217,65,o),
(311,-15,o),
(445,-15,cs)
);
}
);
width = 807;
}
);
metricLeft = "nunavuth-canadian";
metricRight = "jeCarrier-canadian";
note = uni161A;
unicode = 5658;
},
{
color = 9;
glyphname = "jaCarrier-canadian";
lastChange = "2023-01-13 15:28:15 +0000";
layers = (
{
anchors = (
{
name = top_center_can;
pos = (397,714);
}
);
layerId = "9763B71A-4976-465B-BEF0-2F1E1DB14637";
shapes = (
{
closed = 1;
nodes = (
(496,-15,o),
(590,65,o),
(605,230,c),
(578,225,l),
(578,0,l),
(742,0,l),
(742,714,l),
(576,714,l),
(576,445,ls),
(576,222,o),
(508,135,o),
(389,135,cs),
(284,135,o),
(217,211,o),
(217,399,cs),
(217,555,o),
(248,595,o),
(293,595,cs),
(328,595,o),
(350,567,o),
(350,514,cs),
(350,458,o),
(327,430,o),
(285,430,cs),
(277,430,o),
(270,430,o),
(264,431,c),
(264,301,l),
(276,298,o),
(291,296,o),
(303,296,cs),
(413,296,o),
(494,375,o),
(494,507,cs),
(494,648,o),
(406,729,o),
(287,729,cs),
(152,729,o),
(58,622,o),
(58,396,cs),
(58,129,o),
(187,-15,o),
(362,-15,cs)
);
}
);
width = 807;
}
);
metricLeft = "=|jeCarrier-canadian";
metricRight = "nunavuth-canadian";
note = uni161B;
unicode = 5659;
},
{
color = 9;
glyphname = "jjuCarrier-canadian";
lastChange = "2023-01-13 15:28:15 +0000";
layers = (
{
layerId = "9763B71A-4976-465B-BEF0-2F1E1DB14637";
shapes = (
{
closed = 1;
nodes = (
(598,-15,o),
(705,87,o),
(705,229,cs),
(705,350,o),
(628,437,o),
(506,437,cs),
(383,437,o),
(312,353,o),
(312,242,cs),
(312,224,o),
(314,208,o),
(318,191,c),
(449,191,l),
(448,202,o),
(447,215,o),
(447,229,cs),
(447,278,o),
(469,306,o),
(503,306,cs),
(536,306,o),
(558,281,o),
(558,232,cs),
(558,166,o),
(509,124,o),
(414,124,cs),
(275,124,o),
(221,195,o),
(221,320,cs),
(221,476,o),
(316,565,o),
(523,565,cs),
(692,565,l),
(692,714,l),
(507,714,ls),
(383,714,o),
(283,683,o),
(211,630,c),
(113,729,l),
(4,621,l),
(106,518,l),
(74,462,o),
(57,396,o),
(57,325,cs),
(57,123,o),
(185,-15,o),
(412,-15,cs)
);
}
);
width = 755;
}
);
metricRight = "=|yeCarrier-canadian";
note = uni161C;
unicode = 5660;
},
{
color = 9;
glyphname = "jjoCarrier-canadian";
lastChange = "2023-01-13 15:28:15 +0000";
layers = (
{
layerId = "9763B71A-4976-465B-BEF0-2F1E1DB14637";
shapes = (
{
closed = 1;
nodes = (
(751,93,l),
(649,196,l),
(681,252,o),
(698,318,o),
(698,389,cs),
(698,591,o),
(570,729,o),
(349,729,cs),
(163,729,o),
(50,627,o),
(50,484,cs),
(50,364,o),
(126,277,o),
(250,277,cs),
(372,277,o),
(443,361,o),
(443,472,cs),
(443,490,o),
(441,506,o),
(438,523,c),
(306,523,l),
(307,512,o),
(308,499,o),
(308,485,cs),
(308,436,o),
(287,408,o),
(252,408,cs),
(219,408,o),
(197,433,o),
(197,482,cs),
(197,548,o),
(241,590,o),
(345,590,cs),
(480,590,o),
(534,519,o),
(534,394,cs),
(534,238,o),
(439,149,o),
(232,149,cs),
(64,149,l),
(64,0,l),
(248,0,ls),
(372,0,o),
(472,31,o),
(544,84,c),
(642,-15,l)
);
}
);
width = 755;
}
);
metricLeft = "yeCarrier-canadian";
metricRight = "=|jjuCarrier-canadian";
note = uni161D;
unicode = 5661;
},
{
color = 9;
glyphname = "jjeCarrier-canadian";
lastChange = "2023-01-13 15:28:15 +0000";
layers = (
{
layerId = "9763B71A-4976-465B-BEF0-2F1E1DB14637";
shapes = (
{
closed = 1;
nodes = (
(668,-15,o),
(762,92,o),
(762,318,cs),
(762,575,o),
(641,729,o),
(428,729,cs),
(341,729,o),
(263,700,o),
(203,646,c),
(117,729,l),
(12,618,l),
(115,518,l),
(91,462,o),
(78,395,o),
(78,317,cs),
(78,0,l),
(244,0,l),
(244,311,ls),
(244,493,o),
(307,579,o),
(426,579,cs),
(533,579,o),
(603,506,o),
(603,314,cs),
(603,159,o),
(572,119,o),
(528,119,cs),
(492,119,o),
(470,147,o),
(470,200,cs),
(470,256,o),
(493,284,o),
(534,284,cs),
(543,284,o),
(550,284,o),
(556,283,c),
(556,413,l),
(544,416,o),
(529,418,o),
(517,418,cs),
(407,418,o),
(326,339,o),
(326,207,cs),
(326,66,o),
(414,-15,o),
(533,-15,cs)
);
}
);
width = 820;
}
);
metricRight = "jeCarrier-canadian";
note = uni161E;
unicode = 5662;
},
{
color = 9;
glyphname = "jjeeCarrier-canadian";
lastChange = "2023-01-13 15:28:15 +0000";
layers = (
{
layerId = "9763B71A-4976-465B-BEF0-2F1E1DB14637";
shapes = (
{
closed = 1;
nodes = (
(667,-15,o),
(762,92,o),
(762,318,cs),
(762,575,o),
(641,729,o),
(428,729,cs),
(341,729,o),
(263,700,o),
(203,646,c),
(117,729,l),
(12,618,l),
(115,518,l),
(91,462,o),
(78,395,o),
(78,317,cs),
(78,0,l),
(244,0,l),
(244,311,ls),
(244,493,o),
(307,579,o),
(426,579,cs),
(533,579,o),
(603,506,o),
(603,314,cs),
(603,178,o),
(570,119,o),
(499,119,cs),
(443,119,o),
(414,157,o),
(414,218,cs),
(414,259,o),
(427,288,o),
(450,306,c),
(450,232,l),
(533,232,l),
(533,476,l),
(450,476,l),
(450,398,l),
(377,374,o),
(326,304,o),
(326,200,cs),
(326,65,o),
(409,-15,o),
(527,-15,cs)
);
}
);
width = 820;
}
);
metricLeft = "jjeCarrier-canadian";
metricRight = "jeCarrier-canadian";
note = uni161F;
unicode = 5663;
},
{
color = 9;
glyphname = "jjiCarrier-canadian";
lastChange = "2023-01-13 15:28:15 +0000";
layers = (
{
layerId = "9763B71A-4976-465B-BEF0-2F1E1DB14637";
shapes = (
{
closed = 1;
nodes = (
(667,-15,o),
(762,92,o),
(762,318,cs),
(762,575,o),
(641,729,o),
(428,729,cs),
(341,729,o),
(263,700,o),
(203,646,c),
(117,729,l),
(12,618,l),
(115,518,l),
(91,462,o),
(78,395,o),
(78,317,cs),
(78,0,l),
(244,0,l),
(244,311,ls),
(244,493,o),
(307,579,o),
(426,579,cs),
(533,579,o),
(603,506,o),
(603,314,cs),
(603,178,o),
(570,119,o),
(499,119,cs),
(443,119,o),
(414,157,o),
(414,218,cs),
(414,242,o),
(419,259,o),
(429,271,c),
(440,264,o),
(454,259,o),
(470,259,cs),
(525,259,o),
(563,304,o),
(563,356,cs),
(563,410,o),
(524,451,o),
(470,451,cs),
(410,451,o),
(371,399,o),
(377,345,c),
(345,312,o),
(326,263,o),
(326,200,cs),
(326,65,o),
(409,-15,o),
(527,-15,cs)
);
}
);
width = 820;
}
);
metricLeft = "jjeCarrier-canadian";
metricRight = "jeCarrier-canadian";
note = uni1620;
unicode = 5664;
},
{
color = 9;
glyphname = "jjaCarrier-canadian";
lastChange = "2023-01-13 15:30:28 +0000";
layers = (
{
layerId = "9763B71A-4976-465B-BEF0-2F1E1DB14637";
shapes = (
{
closed = 1;
nodes = (
(479,-15,o),
(557,14,o),
(617,68,c),
(703,-15,l),
(809,96,l),
(705,196,l),
(729,252,o),
(742,319,o),
(742,397,cs),
(742,714,l),
(576,714,l),
(576,403,ls),
(576,221,o),
(513,135,o),
(394,135,cs),
(287,135,o),
(217,208,o),
(217,400,cs),
(217,555,o),
(248,595,o),
(292,595,cs),
(328,595,o),
(350,567,o),
(350,514,cs),
(350,458,o),
(327,430,o),
(286,430,cs),
(277,430,o),
(270,430,o),
(264,431,c),
(264,301,l),
(276,298,o),
(291,296,o),
(303,296,cs),
(413,296,o),
(494,375,o),
(494,507,cs),
(494,648,o),
(406,729,o),
(287,729,cs),
(152,729,o),
(58,622,o),
(58,396,cs),
(58,139,o),
(179,-15,o),
(392,-15,cs)
);
}
);
width = 821;
}
);
metricLeft = "=|jeCarrier-canadian";
metricRight = "=|jjeCarrier-canadian";
note = uni1621;
unicode = 5665;
},
{
color = 9;
glyphname = "luCarrier-canadian";
lastChange = "2023-01-13 15:28:15 +0000";
layers = (
{
layerId = "9763B71A-4976-465B-BEF0-2F1E1DB14637";
shapes = (
{
closed = 1;
nodes = (
(584,-15,o),
(698,106,o),
(698,318,cs),
(698,714,l),
(532,714,l),
(532,318,ls),
(532,195,o),
(480,135,o),
(386,135,cs),
(282,135,o),
(228,205,o),
(228,335,cs),
(228,478,o),
(283,570,o),
(403,581,c),
(403,714,l),
(54,714,l),
(54,577,l),
(245,577,l),
(371,635,l),
(167,617,o),
(63,514,o),
(63,308,cs),
(63,112,o),
(179,-15,o),
(379,-15,cs)
);
}
);
width = 756;
}
);
metricRight = "te-canadian";
note = uni1622;
unicode = 5666;
},
{
color = 9;
glyphname = "loCarrier-canadian";
lastChange = "2023-01-13 15:28:15 +0000";
layers = (
{
layerId = "9763B71A-4976-465B-BEF0-2F1E1DB14637";
shapes = (
{
closed = 1;
nodes = (
(224,0,l),
(224,396,ls),
(224,519,o),
(277,579,o),
(376,579,cs),
(475,579,o),
(528,509,o),
(528,379,cs),
(528,236,o),
(473,144,o),
(353,133,c),
(353,0,l),
(702,0,l),
(702,137,l),
(511,137,l),
(385,79,l),
(589,97,o),
(693,200,o),
(693,406,cs),
(693,602,o),
(577,729,o),
(377,729,cs),
(172,729,o),
(58,608,o),
(58,396,cs),
(58,0,l)
);
}
);
width = 756;
}
);
metricLeft = "te-canadian";
metricRight = "=|luCarrier-canadian";
note = uni1623;
unicode = 5667;
},
{
color = 9;
glyphname = "leCarrier-canadian";
lastChange = "2023-01-13 15:30:28 +0000";
layers = (
{
anchors = (
{
name = middle_center_can;
pos = (365,363);
}
);
layerId = "9763B71A-4976-465B-BEF0-2F1E1DB14637";
shapes = (
{
closed = 1;
nodes = (
(332,0,ls),
(562,0,o),
(695,129,o),
(695,370,cs),
(695,603,o),
(567,729,o),
(413,729,cs),
(298,729,o),
(220,665,o),
(198,579,c),
(209,582,l),
(209,714,l),
(61,714,l),
(61,387,l),
(201,387,l),
(210,516,o),
(277,579,o),
(367,579,cs),
(457,579,o),
(530,515,o),
(530,367,cs),
(530,217,o),
(458,149,o),
(326,149,cs),
(61,149,l),
(61,0,l)
);
}
);
width = 747;
}
);
metricRight = "theCarrier-canadian";
note = uni1624;
unicode = 5668;
},
{
color = 9;
glyphname = "laCarrier-canadian";
lastChange = "2023-01-13 15:28:15 +0000";
layers = (
{
layerId = "9763B71A-4976-465B-BEF0-2F1E1DB14637";
shapes = (
{
closed = 1;
nodes = (
(687,0,l),
(687,149,l),
(422,149,ls),
(290,149,o),
(217,217,o),
(217,367,cs),
(217,515,o),
(291,579,o),
(381,579,cs),
(471,579,o),
(538,516,o),
(547,387,c),
(687,387,l),
(687,714,l),
(538,714,l),
(538,582,l),
(549,579,l),
(527,665,o),
(450,729,o),
(335,729,cs),
(181,729,o),
(52,603,o),
(52,370,cs),
(52,129,o),
(185,0,o),
(416,0,cs)
);
}
);
width = 748;
}
);
metricLeft = "=|theCarrier-canadian";
metricRight = "=|leCarrier-canadian";
note = uni1627;
unicode = 5671;
},
{
color = 1;
glyphname = "dluCarrier-canadian";
lastChange = "2023-01-13 15:28:15 +0000";
layers = (
{
layerId = "9763B71A-4976-465B-BEF0-2F1E1DB14637";
shapes = (
{
closed = 1;
nodes = (
(577,-15,o),
(693,112,o),
(693,308,cs),
(693,470,o),
(629,568,o),
(508,610,c),
(478,589,l),
(677,589,l),
(677,510,l),
(797,510,l),
(797,793,l),
(677,793,l),
(677,714,l),
(353,714,l),
(353,581,l),
(473,570,o),
(528,478,o),
(528,335,cs),
(528,205,o),
(475,135,o),
(376,135,cs),
(277,135,o),
(224,195,o),
(224,318,cs),
(224,714,l),
(58,714,l),
(58,318,ls),
(58,106,o),
(172,-15,o),
(374,-15,cs)
);
}
);
width = 830;
}
);
metricLeft = "te-canadian";
note = uni1628;
unicode = 5672;
},
{
color = 9;
glyphname = "dloCarrier-canadian";
lastChange = "2023-01-13 15:28:15 +0000";
layers = (
{
layerId = "9763B71A-4976-465B-BEF0-2F1E1DB14637";
shapes = (
{
closed = 1;
nodes = (
(797,-79,l),
(797,204,l),
(677,204,l),
(677,125,l),
(478,125,l),
(508,104,l),
(629,146,o),
(693,244,o),
(693,406,cs),
(693,602,o),
(577,729,o),
(380,729,cs),
(166,729,o),
(58,608,o),
(58,396,cs),
(58,0,l),
(224,0,l),
(224,396,ls),
(224,519,o),
(276,579,o),
(376,579,cs),
(475,579,o),
(528,509,o),
(528,379,cs),
(528,236,o),
(473,144,o),
(353,133,c),
(353,0,l),
(677,0,l),
(677,-79,l)
);
}
);
width = 830;
}
);
metricLeft = "te-canadian";
metricRight = "dluCarrier-canadian";
note = uni1629;
unicode = 5673;
},
{
color = 9;
glyphname = "dleCarrier-canadian";
lastChange = "2023-01-13 15:30:28 +0000";
layers = (
{
anchors = (
{
name = middle_center_can;
pos = (380,363);
}
);
layerId = "9763B71A-4976-465B-BEF0-2F1E1DB14637";
shapes = (
{
closed = 1;
nodes = (
(347,0,ls),
(577,0,o),
(710,129,o),
(710,370,cs),
(710,603,o),
(582,729,o),
(426,729,cs),
(312,729,o),
(213,670,o),
(174,529,c),
(196,512,l),
(196,718,l),
(273,718,l),
(273,834,l),
(-2,834,l),
(-2,718,l),
(76,718,l),
(76,387,l),
(216,387,l),
(225,516,o),
(292,579,o),
(382,579,cs),
(472,579,o),
(545,515,o),
(545,367,cs),
(545,217,o),
(473,149,o),
(341,149,cs),
(76,149,l),
(76,0,l)
);
}
);
width = 762;
}
);
metricRight = "theCarrier-canadian";
note = uni162A;
unicode = 5674;
},
{
color = 9;
glyphname = "dlaCarrier-canadian";
lastChange = "2023-01-13 15:28:15 +0000";
layers = (
{
layerId = "9763B71A-4976-465B-BEF0-2F1E1DB14637";
shapes = (
{
closed = 1;
nodes = (
(687,0,l),
(687,149,l),
(422,149,ls),
(290,149,o),
(217,217,o),
(217,367,cs),
(217,515,o),
(291,579,o),
(380,579,cs),
(471,579,o),
(538,516,o),
(547,387,c),
(687,387,l),
(687,718,l),
(765,718,l),
(765,834,l),
(489,834,l),
(489,718,l),
(567,718,l),
(567,512,l),
(589,529,l),
(550,670,o),
(451,729,o),
(337,729,cs),
(180,729,o),
(52,603,o),
(52,370,cs),
(52,128,o),
(186,0,o),
(416,0,cs)
);
}
);
width = 763;
}
);
metricLeft = "=|theCarrier-canadian";
metricRight = "=|dleCarrier-canadian";
note = uni162D;
unicode = 5677;
},
{
color = 9;
glyphname = "lhuCarrier-canadian";
lastChange = "2023-01-13 15:28:15 +0000";
layers = (
{
layerId = "9763B71A-4976-465B-BEF0-2F1E1DB14637";
shapes = (
{
closed = 1;
nodes = (
(596,-15,o),
(712,116,o),
(712,312,cs),
(712,512,o),
(608,610,o),
(458,630,c),
(532,574,l),
(721,574,l),
(721,714,l),
(444,714,l),
(444,581,l),
(496,547,o),
(546,472,o),
(546,340,cs),
(546,204,o),
(493,135,o),
(387,135,cs),
(282,135,o),
(229,204,o),
(229,340,cs),
(229,472,o),
(279,547,o),
(331,581,c),
(331,714,l),
(54,714,l),
(54,574,l),
(243,574,l),
(317,630,l),
(167,610,o),
(63,512,o),
(63,312,cs),
(63,116,o),
(179,-15,o),
(387,-15,cs)
);
}
);
width = 775;
}
);
metricLeft = "luCarrier-canadian";
metricRight = "=|";
note = uni162E;
unicode = 5678;
},
{
color = 9;
glyphname = "lhoCarrier-canadian";
lastChange = "2023-01-13 15:28:15 +0000";
layers = (
{
layerId = "9763B71A-4976-465B-BEF0-2F1E1DB14637";
shapes = (
{
closed = 1;
nodes = (
(331,0,l),
(331,133,l),
(279,167,o),
(229,242,o),
(229,374,cs),
(229,510,o),
(282,579,o),
(387,579,cs),
(493,579,o),
(545,510,o),
(545,374,cs),
(545,242,o),
(496,167,o),
(444,133,c),
(444,0,l),
(721,0,l),
(721,140,l),
(532,140,l),
(458,84,l),
(608,104,o),
(712,202,o),
(712,402,cs),
(712,598,o),
(596,729,o),
(387,729,cs),
(178,729,o),
(63,598,o),
(63,402,cs),
(63,202,o),
(167,104,o),
(317,84,c),
(243,140,l),
(54,140,l),
(54,0,l)
);
}
);
width = 775;
}
);
metricLeft = "luCarrier-canadian";
metricRight = "=|";
note = uni162F;
unicode = 5679;
},
{
color = 9;
glyphname = "lheCarrier-canadian";
lastChange = "2023-01-13 15:30:28 +0000";
layers = (
{
anchors = (
{
name = middle_center_can;
pos = (380,357);
}
);
layerId = "9763B71A-4976-465B-BEF0-2F1E1DB14637";
shapes = (
{
closed = 1;
nodes = (
(586,-15,o),
(718,111,o),
(718,357,cs),
(718,603,o),
(586,729,o),
(423,729,cs),
(308,729,o),
(228,665,o),
(206,583,c),
(213,582,l),
(213,714,l),
(65,714,l),
(65,422,l),
(205,422,l),
(225,511,o),
(284,579,o),
(381,579,cs),
(474,579,o),
(552,516,o),
(552.008,357,cs),
(552,198,o),
(475,135,o),
(381,135,cs),
(284,135,o),
(225,203,o),
(205,292,c),
(65,292,l),
(65,0,l),
(213,0,l),
(213,132,l),
(206,131,l),
(228,49,o),
(308,-15,o),
(423,-15,cs)
);
}
);
width = 770;
}
);
metricLeft = "nunavuth-canadian";
metricRight = "theCarrier-canadian";
note = uni1630;
unicode = 5680;
},
{
color = 9;
glyphname = "lhaCarrier-canadian";
lastChange = "2023-01-13 15:28:15 +0000";
layers = (
{
layerId = "9763B71A-4976-465B-BEF0-2F1E1DB14637";
shapes = (
{
closed = 1;
nodes = (
(463,-15,o),
(542,49,o),
(565,131,c),
(557,132,l),
(557,0,l),
(706,0,l),
(706,292,l),
(566,292,l),
(545,203,o),
(487,135,o),
(389,135,cs),
(296,135,o),
(219,198,o),
(219,357,cs),
(219,516,o),
(295,579,o),
(389,579,cs),
(487,579,o),
(545,511,o),
(566,422,c),
(706,422,l),
(706,714,l),
(557,714,l),
(557,582,l),
(565,583,l),
(542,665,o),
(463,729,o),
(347,729,cs),
(184,729,o),
(52,603,o),
(52,357,cs),
(52,111,o),
(184,-15,o),
(347,-15,cs)
);
}
);
width = 771;
}
);
metricLeft = "=|theCarrier-canadian";
metricRight = "nunavuth-canadian";
note = uni1633;
unicode = 5683;
},
{
color = 9;
glyphname = "tlhuCarrier-canadian";
lastChange = "2023-01-13 15:28:15 +0000";
layers = (
{
layerId = "9763B71A-4976-465B-BEF0-2F1E1DB14637";
shapes = (
{
closed = 1;
nodes = (
(596,-15,o),
(712,116,o),
(712,312,cs),
(712,473,o),
(641,568,o),
(541,609,c),
(506,589,l),
(695,589,l),
(695,510,l),
(816,510,l),
(816,793,l),
(695,793,l),
(695,714,l),
(444,714,l),
(444,581,l),
(497,547,o),
(546,472,o),
(546,340,cs),
(546,204,o),
(493,135,o),
(387,135,cs),
(282,135,o),
(229,204,o),
(229,340,cs),
(229,472,o),
(278,547,o),
(331,581,c),
(331,714,l),
(54,714,l),
(54,574,l),
(246,574,l),
(207,598,l),
(120,552,o),
(63,461,o),
(63,312,cs),
(63,116,o),
(179,-15,o),
(387,-15,cs)
);
}
);
width = 844;
}
);
metricLeft = "lhuCarrier-canadian";
note = uni1634;
unicode = 5684;
},
{
color = 9;
glyphname = "tlhoCarrier-canadian";
lastChange = "2023-01-13 15:28:15 +0000";
layers = (
{
layerId = "9763B71A-4976-465B-BEF0-2F1E1DB14637";
shapes = (
{
closed = 1;
nodes = (
(149,-79,l),
(149,0,l),
(400,0,l),
(400,133,l),
(347,167,o),
(298,242,o),
(298,374,cs),
(298,510,o),
(351,579,o),
(456,579,cs),
(562,579,o),
(615,510,o),
(615,374,cs),
(615,242,o),
(565,167,o),
(513,133,c),
(513,0,l),
(790,0,l),
(790,140,l),
(598,140,l),
(637,116,l),
(724,162,o),
(781,253,o),
(781,402,cs),
(781,598,o),
(665,729,o),
(456,729,cs),
(247,729,o),
(132,598,o),
(132,402,cs),
(132,241,o),
(202,146,o),
(303,105,c),
(338,125,l),
(149,125,l),
(149,204,l),
(28,204,l),
(28,-79,l)
);
}
);
width = 844;
}
);
metricLeft = "=|tlhuCarrier-canadian";
metricRight = "lhuCarrier-canadian";
note = uni1635;
unicode = 5685;
},
{
color = 9;
glyphname = "tlheCarrier-canadian";
lastChange = "2023-01-13 15:30:28 +0000";
layers = (
{
anchors = (
{
name = middle_center_can;
pos = (390,357);
}
);
layerId = "9763B71A-4976-465B-BEF0-2F1E1DB14637";
shapes = (
{
closed = 1;
nodes = (
(598,-15,o),
(729,111,o),
(729,357,cs),
(729,603,o),
(598,729,o),
(435,729,cs),
(317,729,o),
(217,670,o),
(176,533,c),
(198,515,l),
(198,718,l),
(276,718,l),
(276,834,l),
(-2,834,l),
(-2,718,l),
(76,718,l),
(76,422,l),
(216,422,l),
(236,511,o),
(295,579,o),
(392,579,cs),
(485,579,o),
(563,519,o),
(563.002,357,cs),
(563,198,o),
(485,135,o),
(392,135,cs),
(295,135,o),
(236,203,o),
(216,292,c),
(76,292,l),
(76,0,l),
(224,0,l),
(224,184,l),
(212,151,l),
(226,60,o),
(311,-15,o),
(435,-15,cs)
);
}
);
width = 781;
}
);
metricLeft = "dleCarrier-canadian";
metricRight = "theCarrier-canadian";
note = uni1636;
unicode = 5686;
},
{
color = 9;
glyphname = "tlhaCarrier-canadian";
lastChange = "2023-01-13 15:30:28 +0000";
layers = (
{
layerId = "9763B71A-4976-465B-BEF0-2F1E1DB14637";
shapes = (
{
closed = 1;
nodes = (
(470,-15,o),
(556,59,o),
(569,152,c),
(557,184,l),
(557,0,l),
(706,0,l),
(706,292,l),
(566,292,l),
(545,203,o),
(487,135,o),
(389,135,cs),
(296,135,o),
(219,198,o),
(219,357,cs),
(219,519,o),
(295,579,o),
(389,579,cs),
(487,579,o),
(545,511,o),
(566,422,c),
(706,422,l),
(706,718,l),
(783,718,l),
(783,834,l),
(506,834,l),
(506,718,l),
(583,718,l),
(583,514,l),
(606,533,l),
(565,671,o),
(465,729,o),
(346,729,cs),
(184,729,o),
(52,603,o),
(52,357,cs),
(52,111,o),
(184,-15,o),
(346,-15,cs)
);
}
);
width = 781;
}
);
metricLeft = "=|theCarrier-canadian";
metricRight = "=|dleCarrier-canadian";
note = uni1639;
unicode = 5689;
},
{
color = 9;
glyphname = "tluCarrier-canadian";
lastChange = "2023-01-13 15:28:15 +0000";
layers = (
{
layerId = "9763B71A-4976-465B-BEF0-2F1E1DB14637";
shapes = (
{
closed = 1;
nodes = (
(382,-15,o),
(445,27,o),
(478,112,c),
(426,112,l),
(458,27,o),
(522,-15,o),
(609,-15,cs),
(759,-15,o),
(840,88,o),
(840,273,cs),
(840,456,o),
(779,564,o),
(661,611,c),
(628,589,l),
(824,589,l),
(824,510,l),
(944,510,l),
(944,793,l),
(824,793,l),
(824,714,l),
(508,714,l),
(508,581,l),
(620,576,o),
(674,478,o),
(674,288,cs),
(674,172,o),
(649,131,o),
(598,131,cs),
(556,131,o),
(532,167,o),
(532,235,cs),
(532,321,l),
(372,321,l),
(372,235,ls),
(372,167,o),
(347,131,o),
(306,131,cs),
(254,131,o),
(230,172,o),
(230,288,cs),
(230,478,o),
(283,576,o),
(395,581,c),
(395,714,l),
(55,714,l),
(55,574,l),
(255,574,l),
(217,598,l),
(116,547,o),
(64,443,o),
(64,273,cs),
(64,88,o),
(144,-15,o),
(294,-15,cs)
);
}
);
width = 972;
}
);
metricRight = "tlhuCarrier-canadian";
note = uni163A;
unicode = 5690;
},
{
color = 1;
glyphname = "tloCarrier-canadian";
lastChange = "2023-01-13 15:28:15 +0000";
layers = (
{
layerId = "9763B71A-4976-465B-BEF0-2F1E1DB14637";
shapes = (
{
closed = 1;
nodes = (
(944,-79,l),
(944,204,l),
(824,204,l),
(824,125,l),
(628,125,l),
(661,103,l),
(779,150,o),
(840,258,o),
(840,441,cs),
(840,626,o),
(759,729,o),
(609,729,cs),
(522,729,o),
(458,687,o),
(426,602,c),
(478,602,l),
(445,687,o),
(382,729,o),
(294,729,cs),
(144,729,o),
(64,626,o),
(64,441,cs),
(64,271,o),
(116,167,o),
(217,116,c),
(255,140,l),
(55,140,l),
(55,0,l),
(395,0,l),
(395,133,l),
(283,138,o),
(230,236,o),
(230,426,cs),
(230,542,o),
(254,583,o),
(306,583,cs),
(347,583,o),
(372,547,o),
(372,479,cs),
(372,393,l),
(532,393,l),
(532,479,ls),
(532,547,o),
(556,583,o),
(598,583,cs),
(649,583,o),
(674,542,o),
(674,426,cs),
(674,236,o),
(620,138,o),
(508,133,c),
(508,0,l),
(824,0,l),
(824,-79,l)
);
}
);
width = 972;
}
);
metricLeft = "tluCarrier-canadian";
metricRight = "tlhuCarrier-canadian";
note = uni163B;
unicode = 5691;
},
{
color = 9;
glyphname = "tleCarrier-canadian";
lastChange = "2023-01-13 15:28:15 +0000";
layers = (
{
anchors = (
{
name = middle_center_can;
pos = (323,357);
}
);
layerId = "9763B71A-4976-465B-BEF0-2F1E1DB14637";
shapes = (
{
closed = 1;
nodes = (
(633,-15,o),
(711,83,o),
(711,198,cs),
(711,283,o),
(659,355,o),
(580,378,c),
(580,337,l),
(661,355,o),
(711,427,o),
(711,516,cs),
(711,631,o),
(633,729,o),
(458,729,cs),
(322,729,o),
(212,667,o),
(177,540,c),
(196,516,l),
(196,718,l),
(273,718,l),
(273,834,l),
(-2,834,l),
(-2,718,l),
(76,718,l),
(76,422,l),
(215,422,l),
(227,519,o),
(288,581,o),
(417,581,cs),
(505,581,o),
(546,549,o),
(546,496,cs),
(546,449,o),
(518,425,o),
(456,425,cs),
(414,425,l),
(414,290,l),
(456,290,ls),
(519,290,o),
(546,265,o),
(546,218,cs),
(546,165,o),
(504,133,o),
(417,133,cs),
(288,133,o),
(227,195,o),
(215,292,c),
(76,292,l),
(76,0,l),
(224,0,l),
(224,167,l),
(201,140,l),
(241,30,o),
(332,-15,o),
(458,-15,cs)
);
}
);
width = 772;
}
);
metricLeft = "dleCarrier-canadian";
metricRight = "geCarrier-canadian";
note = uni163C;
unicode = 5692;
},
{
color = 9;
glyphname = "tlaCarrier-canadian";
lastChange = "2023-01-13 15:28:15 +0000";
layers = (
{
layerId = "9763B71A-4976-465B-BEF0-2F1E1DB14637";
shapes = (
{
closed = 1;
nodes = (
(440,-15,o),
(531,30,o),
(571,140,c),
(547,167,l),
(547,0,l),
(696,0,l),
(696,292,l),
(557,292,l),
(545,195,o),
(484,133,o),
(355,133,cs),
(268,133,o),
(226,165,o),
(226,218,cs),
(226,265,o),
(253,290,o),
(316,290,cs),
(361,290,l),
(361,425,l),
(316,425,ls),
(254,425,o),
(226,449,o),
(226,496,cs),
(226,549,o),
(267,581,o),
(355,581,cs),
(484,581,o),
(545,519,o),
(557,422,c),
(696,422,l),
(696,718,l),
(774,718,l),
(774,834,l),
(498,834,l),
(498,718,l),
(576,718,l),
(576,516,l),
(595,540,l),
(560,667,o),
(450,729,o),
(314,729,cs),
(139,729,o),
(61,631,o),
(61,517,cs),
(61,427,o),
(111,356,o),
(192,337,c),
(192,378,l),
(113,355,o),
(61,283,o),
(61,198,cs),
(61,83,o),
(139,-15,o),
(314,-15,cs)
);
}
);
width = 772;
}
);
metricLeft = "=|geCarrier-canadian";
metricRight = "=|dleCarrier-canadian";
note = uni163F;
unicode = 5695;
},
{
color = 9;
glyphname = "zuCarrier-canadian";
lastChange = "2023-01-13 15:30:28 +0000";
layers = (
{
layerId = "9763B71A-4976-465B-BEF0-2F1E1DB14637";
shapes = (
{
closed = 1;
nodes = (
(596,-15,o),
(712,89,o),
(712,246,cs),
(712,356,o),
(640,475,o),
(640,526,cs),
(640,555,o),
(655,572,o),
(692,572,cs),
(722,572,l),
(722,714,l),
(656,714,ls),
(531,714,o),
(478,646,o),
(478,552,cs),
(478,463,o),
(546,364,o),
(546,273,cs),
(546,186,o),
(493,135,o),
(388,135,cs),
(282,135,o),
(229,186,o),
(229,273,cs),
(229,364,o),
(297,463,o),
(297,552,cs),
(297,646,o),
(244,714,o),
(119,714,cs),
(53,714,l),
(53,572,l),
(83,572,ls),
(120,572,o),
(136,555,o),
(136,526,cs),
(136,475,o),
(63,356,o),
(63,246,cs),
(63,89,o),
(179,-15,o),
(388,-15,cs)
);
}
);
width = 775;
}
);
metricRight = "=|";
note = uni1640;
unicode = 5696;
},
